<svg width="626" height="114" viewBox="0 0 626 114" fill="none" xmlns="http://www.w3.org/2000/svg">
<path d="M53.802 7.57227L75.1417 64.3777H65.3243L60.4566 51.0684H27.9948L22.7216 64.3777H12.9863L35.3785 7.57227H44.6314L30.6753 43.2791H57.7816L44.6314 7.57227H53.802Z" fill="#F6F6F6" style="fill:#F6F6F6;fill:color(display-p3 0.9647 0.9647 0.9647);fill-opacity:1;"/>
<path d="M151.422 7.57227V64.3777H142.416V39.9518H103.952V64.3777H94.9458V7.57227H103.952V31.5102H142.416V7.57227H151.422Z" fill="#F6F6F6" style="fill:#F6F6F6;fill:color(display-p3 0.9647 0.9647 0.9647);fill-opacity:1;"/>
<path d="M195.806 7.57227L217.146 64.3777H207.329L202.461 51.0684H170.005L164.731 64.3777H154.996L177.394 7.57227H186.647L172.691 43.2791H199.797L186.652 7.57227H195.823H195.806Z" fill="#F6F6F6" style="fill:#F6F6F6;fill:color(display-p3 0.9647 0.9647 0.9647);fill-opacity:1;"/>
<path d="M243.524 64.3761C238.925 64.3761 234.814 63.7402 231.19 62.4685C227.567 61.1968 224.497 59.344 221.981 56.9102C219.465 54.4764 217.547 51.4999 216.22 47.9862C214.894 44.4671 214.23 40.4929 214.23 36.0584C214.23 31.6238 214.932 27.6442 216.341 24.1305C217.75 20.6113 219.75 17.6239 222.349 15.1627C224.947 12.7014 228.071 10.8213 231.722 9.52213C235.373 8.223 239.473 7.57617 244.017 7.57617C247.427 7.57617 250.738 7.94344 253.955 8.67248C257.173 9.40153 260.084 10.5801 262.677 12.2026C265.275 13.8252 267.451 15.9246 269.211 18.49C270.97 21.0608 272.094 24.1579 272.576 27.7812H263.406C263.027 26.049 262.271 24.4703 261.136 23.0342C260.002 21.6035 258.582 20.3701 256.877 19.3396C255.172 18.3145 253.199 17.5142 250.951 16.9442C248.704 16.3741 246.314 16.0945 243.771 16.0945C240.147 16.0945 237.05 16.6207 234.479 17.6787C231.909 18.7311 229.798 20.1673 228.148 21.9817C226.498 23.7961 225.292 25.9065 224.536 28.3129C223.779 30.7193 223.401 33.2792 223.401 35.9816C223.401 38.684 223.768 41.2439 224.497 43.6503C225.226 46.0567 226.389 48.1671 227.989 49.9815C229.584 51.7959 231.684 53.2266 234.277 54.2845C236.869 55.3425 240.038 55.8687 243.771 55.8687C245.936 55.8687 248.085 55.6385 250.222 55.178C252.36 54.7176 254.334 54.0159 256.148 53.0676C257.962 52.1193 259.53 50.9024 260.857 49.4169C262.183 47.9314 263.088 46.128 263.575 44.0231H272.664C272.066 47.6464 270.866 50.7435 269.052 53.3143C267.237 55.8852 265.006 57.9956 262.359 59.6455C259.705 61.2955 256.762 62.5014 253.511 63.2579C250.266 64.0143 246.939 64.3925 243.529 64.3925L243.524 64.3761Z" fill="#F6F6F6" style="fill:#F6F6F6;fill:color(display-p3 0.9647 0.9647 0.9647);fill-opacity:1;"/>
<path d="M289.125 38.6527V64.3777H280.119V7.57227H289.125V37.8414" fill="#F6F6F6" style="fill:#F6F6F6;fill:color(display-p3 0.9647 0.9647 0.9647);fill-opacity:1;"/>
<path d="M375.224 7.57227L396.564 64.3777H386.746L381.878 51.0684H349.422L344.149 64.3777H334.414L356.811 7.57227H366.064L352.108 43.2791H379.214L366.07 7.57227H375.24H375.224Z" fill="#F6F6F6" style="fill:#F6F6F6;fill:color(display-p3 0.9647 0.9647 0.9647);fill-opacity:1;"/>
<path d="M440.307 7.57227V16.0139H418.232V64.3777H409.226V16.0139H387.152V7.57227H440.301H440.307Z" fill="#F6F6F6" style="fill:#F6F6F6;fill:color(display-p3 0.9647 0.9647 0.9647);fill-opacity:1;"/>
<path d="M500.839 7.57227V64.3777H491.833V39.9518H453.369V64.3777H444.363V7.57227H453.369V31.5102H491.833V7.57227H500.839Z" fill="#F6F6F6" style="fill:#F6F6F6;fill:color(display-p3 0.9647 0.9647 0.9647);fill-opacity:1;"/>
<path d="M565.84 35.9761C565.84 45.229 563.214 52.2728 557.968 57.113C552.723 61.9533 545.174 64.3761 535.33 64.3761C525.485 64.3761 517.816 61.9533 512.647 57.113C507.478 52.2728 504.896 45.2235 504.896 35.9761C504.896 26.7287 507.544 19.5424 512.85 14.757C518.15 9.97161 525.671 7.57617 535.406 7.57617C545.142 7.57617 552.651 9.9168 557.925 14.5981C563.198 19.2793 565.834 26.4053 565.834 35.9816L565.84 35.9761ZM556.669 35.8117C556.669 29.5353 554.882 24.6841 551.314 21.2472C547.745 17.8102 542.467 16.0945 535.489 16.0945C528.511 16.0945 523.128 17.8267 519.504 21.2856C515.881 24.7499 514.067 29.6449 514.067 35.9707C514.067 42.2964 515.892 47.3997 519.543 50.7818C523.193 54.164 528.511 55.8523 535.489 55.8523C542.467 55.8523 548.08 54.0653 551.517 50.4968C554.954 46.9283 556.669 42.0333 556.669 35.8117Z" fill="#F6F6F6" style="fill:#F6F6F6;fill:color(display-p3 0.9647 0.9647 0.9647);fill-opacity:1;"/>
<path d="M569.896 64.3777V7.57227H578.819V64.3777H569.896ZM624.59 7.57227V64.3777H606.414L578.825 7.57227H587.913L615.667 64.3777V7.57227H624.59Z" fill="#F6F6F6" style="fill:#F6F6F6;fill:color(display-p3 0.9647 0.9647 0.9647);fill-opacity:1;"/>
<path d="M289.125 37.8414L318.342 7.57227H330.675L306.085 32.7271L330.84 64.3777H319.8L299.595 38.6527H289.125" fill="#B91F2E" style="fill:#B91F2E;fill:color(display-p3 0.7255 0.1216 0.1804);fill-opacity:1;"/>
<path d="M9.0062 14.4062H0V64.3762H9.0062V14.4062Z" fill="#F6F6F6" style="fill:#F6F6F6;fill:color(display-p3 0.9647 0.9647 0.9647);fill-opacity:1;"/>
<path d="M18.7519 0H9.74023V8.95687H18.7519V0Z" fill="#B91F2E" style="fill:#B91F2E;fill:color(display-p3 0.7255 0.1216 0.1804);fill-opacity:1;"/>
<path d="M5.38274 113.177H3.16455V88.045H10.6257C12.0597 88.045 13.292 88.2533 14.3227 88.6699C15.3534 89.0864 16.1376 89.665 16.6753 90.4055C17.2131 91.1229 17.594 91.875 17.818 92.6618C18.0421 93.4487 18.1541 94.2933 18.1541 95.1959C18.1541 99.1994 16.5633 101.699 13.3817 102.694L18.9607 113.177H16.5073L11.0963 103.215H5.38274V113.177ZM5.38274 90.0931V101.236H9.3822C11.4435 101.236 13.0232 100.843 14.1211 100.056C15.2414 99.2457 15.8015 97.6952 15.8015 95.4042C15.8015 93.2751 15.2414 91.8634 14.1211 91.1692C13.0232 90.4518 11.1411 90.0931 8.47476 90.0931H5.38274Z" fill="url(#paint0_linear_235_18)" style=""/>
<path d="M45.8854 113.594C44.5635 113.594 43.4208 113.385 42.4573 112.969C41.4939 112.529 40.7097 111.939 40.1047 111.199C39.5221 110.458 39.0516 109.521 38.6931 108.387C38.3346 107.253 38.0882 106.073 37.9537 104.846C37.8417 103.62 37.7857 102.196 37.7857 100.576C37.7857 98.5862 37.9201 96.8505 38.189 95.3695C38.4579 93.8652 38.906 92.5114 39.5333 91.308C40.1607 90.1047 41.0457 89.1905 42.1884 88.5657C43.3311 87.9177 44.7203 87.5938 46.3559 87.5938C47.6555 87.5938 48.7758 87.8136 49.7168 88.2533C50.6803 88.6699 51.4421 89.2368 52.0022 89.9542C52.5848 90.6716 53.0441 91.5857 53.3802 92.6966C53.7387 93.7842 53.974 94.9066 54.086 96.0637C54.2204 97.2208 54.2877 98.5515 54.2877 100.056C54.2877 102.231 54.1644 104.106 53.918 105.679C53.6715 107.23 53.2346 108.63 52.6072 109.879C52.0022 111.106 51.1396 112.032 50.0193 112.657C48.899 113.281 47.5211 113.594 45.8854 113.594ZM41.4154 108.977C42.2893 110.713 43.8241 111.58 46.0199 111.58C48.2156 111.58 49.7505 110.689 50.6243 108.908C51.5205 107.102 51.9686 104.268 51.9686 100.403C51.9686 96.7233 51.5541 94.0156 50.7251 92.28C49.8961 90.5212 48.4173 89.6418 46.2887 89.6418C44.0929 89.6418 42.5133 90.5444 41.5499 92.3494C40.6088 94.1545 40.1383 96.8968 40.1383 100.576C40.1383 104.441 40.564 107.241 41.4154 108.977Z" fill="url(#paint1_linear_235_18)" style=""/>
<path d="M91.1942 113.177H88.7071L86.1529 105.089H76.9104L74.3225 113.177H72.1043L80.2377 88.045H82.9264L91.1942 113.177ZM81.5484 90.5444L77.549 103.041H85.5143L81.582 90.5444H81.5484Z" fill="url(#paint2_linear_235_18)" style=""/>
<path d="M114.59 113.177H109.784V88.045H115.161C122.085 88.045 125.546 92.1064 125.546 100.229C125.546 104.256 124.65 107.426 122.858 109.741C121.065 112.032 118.309 113.177 114.59 113.177ZM112.036 90.0584V111.164H114.758C117.536 111.164 119.631 110.261 121.043 108.456C122.477 106.651 123.194 104.082 123.194 100.75C123.194 96.7927 122.499 94.0272 121.11 92.4536C119.743 90.8568 117.693 90.0584 114.96 90.0584H112.036Z" fill="url(#paint3_linear_235_18)" style=""/>
<path d="M189.68 113.177H187.428V90.0584H179.665V88.045H197.41V90.0584H189.68V113.177Z" fill="url(#paint4_linear_235_18)" style=""/>
<path d="M224.032 113.594C222.71 113.594 221.568 113.385 220.604 112.969C219.641 112.529 218.857 111.939 218.252 111.199C217.669 110.458 217.199 109.521 216.84 108.387C216.482 107.253 216.235 106.073 216.101 104.846C215.989 103.62 215.933 102.196 215.933 100.576C215.933 98.5862 216.067 96.8505 216.336 95.3695C216.605 93.8652 217.053 92.5114 217.68 91.308C218.308 90.1047 219.193 89.1905 220.335 88.5657C221.478 87.9177 222.867 87.5938 224.503 87.5938C225.802 87.5938 226.923 87.8136 227.864 88.2533C228.827 88.6699 229.589 89.2368 230.149 89.9542C230.732 90.6716 231.191 91.5857 231.527 92.6966C231.886 93.7842 232.121 94.9066 232.233 96.0637C232.367 97.2208 232.435 98.5515 232.435 100.056C232.435 102.231 232.311 104.106 232.065 105.679C231.818 107.23 231.382 108.63 230.754 109.879C230.149 111.106 229.287 112.032 228.166 112.657C227.046 113.281 225.668 113.594 224.032 113.594ZM219.562 108.977C220.436 110.713 221.971 111.58 224.167 111.58C226.363 111.58 227.897 110.689 228.771 108.908C229.667 107.102 230.116 104.268 230.116 100.403C230.116 96.7233 229.701 94.0156 228.872 92.28C228.043 90.5212 226.564 89.6418 224.436 89.6418C222.24 89.6418 220.66 90.5444 219.697 92.3494C218.756 94.1545 218.285 96.8968 218.285 100.576C218.285 104.441 218.711 107.241 219.562 108.977Z" fill="url(#paint5_linear_235_18)" style=""/>
<path d="M295.19 113.594C292.726 113.594 290.888 113.05 289.678 111.962C288.469 110.851 287.673 109.069 287.292 106.616L289.376 106.235C289.735 108.109 290.328 109.474 291.157 110.331C292.009 111.164 293.375 111.58 295.258 111.58C298.843 111.58 300.635 109.984 300.635 106.79C300.635 105.934 300.489 105.205 300.198 104.603C299.929 103.978 299.481 103.458 298.854 103.041C298.249 102.624 297.689 102.324 297.173 102.138C296.68 101.93 295.975 101.676 295.056 101.375C294.317 101.143 293.756 100.958 293.375 100.819C293.017 100.681 292.513 100.472 291.863 100.195C291.213 99.9168 290.72 99.616 290.384 99.292C290.048 98.968 289.69 98.5746 289.309 98.1118C288.95 97.6489 288.681 97.0935 288.502 96.4456C288.345 95.7976 288.267 95.0686 288.267 94.2586C288.267 92.199 288.905 90.5791 290.183 89.3988C291.482 88.1954 293.297 87.5938 295.627 87.5938C297.801 87.5938 299.459 88.1376 300.601 89.2253C301.767 90.2898 302.483 92.0717 302.752 94.5711L300.702 94.8488C300.545 93.9694 300.4 93.2982 300.265 92.8354C300.131 92.3494 299.884 91.8287 299.526 91.2733C299.19 90.6948 298.697 90.2898 298.047 90.0584C297.42 89.8038 296.624 89.6765 295.661 89.6765C292.188 89.6765 290.451 91.1692 290.451 94.1545C290.451 94.8025 290.564 95.3926 290.788 95.9249C291.012 96.4571 291.269 96.8853 291.561 97.2092C291.852 97.5101 292.278 97.8225 292.838 98.1465C293.42 98.4473 293.913 98.6672 294.317 98.806C294.72 98.9449 295.291 99.1416 296.031 99.3962C296.927 99.6739 297.599 99.9053 298.047 100.09C298.518 100.252 299.111 100.542 299.828 100.958C300.568 101.352 301.117 101.768 301.475 102.208C301.834 102.648 302.159 103.238 302.45 103.978C302.741 104.719 302.887 105.552 302.887 106.478C302.887 108.838 302.159 110.62 300.702 111.823C299.268 113.004 297.431 113.594 295.19 113.594Z" fill="url(#paint6_linear_235_18)" style=""/>
<path d="M332.198 113.177H329.946V90.0584H322.182V88.045H339.928V90.0584H332.198V113.177Z" fill="url(#paint7_linear_235_18)" style=""/>
<path d="M376.229 113.177H373.742L371.188 105.089H361.946L359.358 113.177H357.139L365.273 88.045H367.962L376.229 113.177ZM366.584 90.5444L362.584 103.041H370.549L366.617 90.5444H366.584Z" fill="url(#paint8_linear_235_18)" style=""/>
<path d="M397.306 113.177H395.088V88.045H402.549C403.983 88.045 405.215 88.2533 406.246 88.6699C407.277 89.0864 408.061 89.665 408.599 90.4055C409.136 91.1229 409.517 91.875 409.741 92.6618C409.965 93.4487 410.077 94.2933 410.077 95.1959C410.077 99.1994 408.487 101.699 405.305 102.694L410.884 113.177H408.431L403.02 103.215H397.306V113.177ZM397.306 90.0931V101.236H401.306C403.367 101.236 404.946 100.843 406.044 100.056C407.165 99.2457 407.725 97.6952 407.725 95.4042C407.725 93.2751 407.165 91.8634 406.044 91.1692C404.946 90.4518 403.064 90.0931 400.398 90.0931H397.306Z" fill="url(#paint9_linear_235_18)" style=""/>
<path d="M439.086 113.177H436.834V90.0584H429.07V88.045H446.816V90.0584H439.086V113.177Z" fill="url(#paint10_linear_235_18)" style=""/>
<path d="M503.959 113.177H501.707V88.045H503.959V99.1532H514.445V88.045H516.697V113.177H514.445V101.167H503.959V113.177Z" fill="url(#paint11_linear_235_18)" style=""/>
<path d="M554.376 113.177H551.889L549.335 105.089H540.092L537.505 113.177H535.286L543.42 88.045H546.108L554.376 113.177ZM544.73 90.5444L540.731 103.041H548.696L544.764 90.5444H544.73Z" fill="url(#paint12_linear_235_18)" style=""/>
<path d="M580.83 113.594C579.486 113.594 578.321 113.362 577.335 112.899C576.349 112.414 575.565 111.8 574.982 111.06C574.4 110.296 573.929 109.336 573.571 108.179C573.235 107.021 573 105.864 572.865 104.707C572.753 103.527 572.697 102.196 572.697 100.715C572.697 96.3646 573.358 93.09 574.68 90.8915C576.024 88.693 578.265 87.5938 581.402 87.5938C583.575 87.5938 585.312 88.2764 586.611 89.6418C587.933 90.984 588.706 93.0321 588.93 95.786L586.846 96.029C586.555 93.8999 585.961 92.3031 585.065 91.2386C584.191 90.1741 582.881 89.6418 581.133 89.6418C578.982 89.6418 577.425 90.5444 576.461 92.3494C575.52 94.1545 575.05 96.9431 575.05 100.715C575.05 104.626 575.487 107.415 576.36 109.081C577.257 110.747 578.825 111.58 581.066 111.58C582.455 111.58 583.631 111.118 584.595 110.192C585.58 109.266 586.264 107.855 586.645 105.957L588.628 106.408C588.247 108.908 587.351 110.736 585.939 111.893C584.527 113.027 582.825 113.594 580.83 113.594Z" fill="url(#paint13_linear_235_18)" style=""/>
<path d="M625.165 113.177H622.509L614.443 100.75L611.62 104.36V113.177H609.368V88.045H611.62V101.479L621.804 88.045H624.459L615.888 98.9449L625.165 113.177Z" fill="url(#paint14_linear_235_18)" style=""/>
<defs>
<linearGradient id="paint0_linear_235_18" x1="-61.9096" y1="123.095" x2="674.716" y2="101.868" gradientUnits="userSpaceOnUse">
<stop stop-color="#B91F2E" style="stop-color:#B91F2E;stop-color:color(display-p3 0.7255 0.1216 0.1804);stop-opacity:1;"/>
<stop offset="0.182692" stop-color="white" style="stop-color:white;stop-opacity:1;"/>
<stop offset="0.819973" stop-color="white" style="stop-color:white;stop-opacity:1;"/>
<stop offset="1" stop-color="#B91F2E" style="stop-color:#B91F2E;stop-color:color(display-p3 0.7255 0.1216 0.1804);stop-opacity:1;"/>
</linearGradient>
<linearGradient id="paint1_linear_235_18" x1="-61.9096" y1="123.095" x2="674.716" y2="101.868" gradientUnits="userSpaceOnUse">
<stop stop-color="#B91F2E" style="stop-color:#B91F2E;stop-color:color(display-p3 0.7255 0.1216 0.1804);stop-opacity:1;"/>
<stop offset="0.182692" stop-color="white" style="stop-color:white;stop-opacity:1;"/>
<stop offset="0.819973" stop-color="white" style="stop-color:white;stop-opacity:1;"/>
<stop offset="1" stop-color="#B91F2E" style="stop-color:#B91F2E;stop-color:color(display-p3 0.7255 0.1216 0.1804);stop-opacity:1;"/>
</linearGradient>
<linearGradient id="paint2_linear_235_18" x1="-61.9096" y1="123.095" x2="674.716" y2="101.868" gradientUnits="userSpaceOnUse">
<stop stop-color="#B91F2E" style="stop-color:#B91F2E;stop-color:color(display-p3 0.7255 0.1216 0.1804);stop-opacity:1;"/>
<stop offset="0.182692" stop-color="white" style="stop-color:white;stop-opacity:1;"/>
<stop offset="0.819973" stop-color="white" style="stop-color:white;stop-opacity:1;"/>
<stop offset="1" stop-color="#B91F2E" style="stop-color:#B91F2E;stop-color:color(display-p3 0.7255 0.1216 0.1804);stop-opacity:1;"/>
</linearGradient>
<linearGradient id="paint3_linear_235_18" x1="-61.9096" y1="123.095" x2="674.716" y2="101.868" gradientUnits="userSpaceOnUse">
<stop stop-color="#B91F2E" style="stop-color:#B91F2E;stop-color:color(display-p3 0.7255 0.1216 0.1804);stop-opacity:1;"/>
<stop offset="0.182692" stop-color="white" style="stop-color:white;stop-opacity:1;"/>
<stop offset="0.819973" stop-color="white" style="stop-color:white;stop-opacity:1;"/>
<stop offset="1" stop-color="#B91F2E" style="stop-color:#B91F2E;stop-color:color(display-p3 0.7255 0.1216 0.1804);stop-opacity:1;"/>
</linearGradient>
<linearGradient id="paint4_linear_235_18" x1="-61.9096" y1="123.095" x2="674.716" y2="101.868" gradientUnits="userSpaceOnUse">
<stop stop-color="#B91F2E" style="stop-color:#B91F2E;stop-color:color(display-p3 0.7255 0.1216 0.1804);stop-opacity:1;"/>
<stop offset="0.182692" stop-color="white" style="stop-color:white;stop-opacity:1;"/>
<stop offset="0.819973" stop-color="white" style="stop-color:white;stop-opacity:1;"/>
<stop offset="1" stop-color="#B91F2E" style="stop-color:#B91F2E;stop-color:color(display-p3 0.7255 0.1216 0.1804);stop-opacity:1;"/>
</linearGradient>
<linearGradient id="paint5_linear_235_18" x1="-61.9096" y1="123.095" x2="674.716" y2="101.868" gradientUnits="userSpaceOnUse">
<stop stop-color="#B91F2E" style="stop-color:#B91F2E;stop-color:color(display-p3 0.7255 0.1216 0.1804);stop-opacity:1;"/>
<stop offset="0.182692" stop-color="white" style="stop-color:white;stop-opacity:1;"/>
<stop offset="0.819973" stop-color="white" style="stop-color:white;stop-opacity:1;"/>
<stop offset="1" stop-color="#B91F2E" style="stop-color:#B91F2E;stop-color:color(display-p3 0.7255 0.1216 0.1804);stop-opacity:1;"/>
</linearGradient>
<linearGradient id="paint6_linear_235_18" x1="-61.9096" y1="123.095" x2="674.716" y2="101.868" gradientUnits="userSpaceOnUse">
<stop stop-color="#B91F2E" style="stop-color:#B91F2E;stop-color:color(display-p3 0.7255 0.1216 0.1804);stop-opacity:1;"/>
<stop offset="0.182692" stop-color="white" style="stop-color:white;stop-opacity:1;"/>
<stop offset="0.819973" stop-color="white" style="stop-color:white;stop-opacity:1;"/>
<stop offset="1" stop-color="#B91F2E" style="stop-color:#B91F2E;stop-color:color(display-p3 0.7255 0.1216 0.1804);stop-opacity:1;"/>
</linearGradient>
<linearGradient id="paint7_linear_235_18" x1="-61.9096" y1="123.095" x2="674.716" y2="101.868" gradientUnits="userSpaceOnUse">
<stop stop-color="#B91F2E" style="stop-color:#B91F2E;stop-color:color(display-p3 0.7255 0.1216 0.1804);stop-opacity:1;"/>
<stop offset="0.182692" stop-color="white" style="stop-color:white;stop-opacity:1;"/>
<stop offset="0.819973" stop-color="white" style="stop-color:white;stop-opacity:1;"/>
<stop offset="1" stop-color="#B91F2E" style="stop-color:#B91F2E;stop-color:color(display-p3 0.7255 0.1216 0.1804);stop-opacity:1;"/>
</linearGradient>
<linearGradient id="paint8_linear_235_18" x1="-61.9096" y1="123.095" x2="674.716" y2="101.868" gradientUnits="userSpaceOnUse">
<stop stop-color="#B91F2E" style="stop-color:#B91F2E;stop-color:color(display-p3 0.7255 0.1216 0.1804);stop-opacity:1;"/>
<stop offset="0.182692" stop-color="white" style="stop-color:white;stop-opacity:1;"/>
<stop offset="0.819973" stop-color="white" style="stop-color:white;stop-opacity:1;"/>
<stop offset="1" stop-color="#B91F2E" style="stop-color:#B91F2E;stop-color:color(display-p3 0.7255 0.1216 0.1804);stop-opacity:1;"/>
</linearGradient>
<linearGradient id="paint9_linear_235_18" x1="-61.9096" y1="123.095" x2="674.716" y2="101.868" gradientUnits="userSpaceOnUse">
<stop stop-color="#B91F2E" style="stop-color:#B91F2E;stop-color:color(display-p3 0.7255 0.1216 0.1804);stop-opacity:1;"/>
<stop offset="0.182692" stop-color="white" style="stop-color:white;stop-opacity:1;"/>
<stop offset="0.819973" stop-color="white" style="stop-color:white;stop-opacity:1;"/>
<stop offset="1" stop-color="#B91F2E" style="stop-color:#B91F2E;stop-color:color(display-p3 0.7255 0.1216 0.1804);stop-opacity:1;"/>
</linearGradient>
<linearGradient id="paint10_linear_235_18" x1="-61.9096" y1="123.095" x2="674.716" y2="101.868" gradientUnits="userSpaceOnUse">
<stop stop-color="#B91F2E" style="stop-color:#B91F2E;stop-color:color(display-p3 0.7255 0.1216 0.1804);stop-opacity:1;"/>
<stop offset="0.182692" stop-color="white" style="stop-color:white;stop-opacity:1;"/>
<stop offset="0.819973" stop-color="white" style="stop-color:white;stop-opacity:1;"/>
<stop offset="1" stop-color="#B91F2E" style="stop-color:#B91F2E;stop-color:color(display-p3 0.7255 0.1216 0.1804);stop-opacity:1;"/>
</linearGradient>
<linearGradient id="paint11_linear_235_18" x1="-61.9096" y1="123.095" x2="674.716" y2="101.868" gradientUnits="userSpaceOnUse">
<stop stop-color="#B91F2E" style="stop-color:#B91F2E;stop-color:color(display-p3 0.7255 0.1216 0.1804);stop-opacity:1;"/>
<stop offset="0.182692" stop-color="white" style="stop-color:white;stop-opacity:1;"/>
<stop offset="0.819973" stop-color="white" style="stop-color:white;stop-opacity:1;"/>
<stop offset="1" stop-color="#B91F2E" style="stop-color:#B91F2E;stop-color:color(display-p3 0.7255 0.1216 0.1804);stop-opacity:1;"/>
</linearGradient>
<linearGradient id="paint12_linear_235_18" x1="-61.9096" y1="123.095" x2="674.716" y2="101.868" gradientUnits="userSpaceOnUse">
<stop stop-color="#B91F2E" style="stop-color:#B91F2E;stop-color:color(display-p3 0.7255 0.1216 0.1804);stop-opacity:1;"/>
<stop offset="0.182692" stop-color="white" style="stop-color:white;stop-opacity:1;"/>
<stop offset="0.819973" stop-color="white" style="stop-color:white;stop-opacity:1;"/>
<stop offset="1" stop-color="#B91F2E" style="stop-color:#B91F2E;stop-color:color(display-p3 0.7255 0.1216 0.1804);stop-opacity:1;"/>
</linearGradient>
<linearGradient id="paint13_linear_235_18" x1="-61.9096" y1="123.095" x2="674.716" y2="101.868" gradientUnits="userSpaceOnUse">
<stop stop-color="#B91F2E" style="stop-color:#B91F2E;stop-color:color(display-p3 0.7255 0.1216 0.1804);stop-opacity:1;"/>
<stop offset="0.182692" stop-color="white" style="stop-color:white;stop-opacity:1;"/>
<stop offset="0.819973" stop-color="white" style="stop-color:white;stop-opacity:1;"/>
<stop offset="1" stop-color="#B91F2E" style="stop-color:#B91F2E;stop-color:color(display-p3 0.7255 0.1216 0.1804);stop-opacity:1;"/>
</linearGradient>
<linearGradient id="paint14_linear_235_18" x1="-61.9096" y1="123.095" x2="674.716" y2="101.868" gradientUnits="userSpaceOnUse">
<stop stop-color="#B91F2E" style="stop-color:#B91F2E;stop-color:color(display-p3 0.7255 0.1216 0.1804);stop-opacity:1;"/>
<stop offset="0.182692" stop-color="white" style="stop-color:white;stop-opacity:1;"/>
<stop offset="0.819973" stop-color="white" style="stop-color:white;stop-opacity:1;"/>
<stop offset="1" stop-color="#B91F2E" style="stop-color:#B91F2E;stop-color:color(display-p3 0.7255 0.1216 0.1804);stop-opacity:1;"/>
</linearGradient>
</defs>
</svg>
