<svg width="793" height="57" viewBox="0 0 793 57" fill="none" xmlns="http://www.w3.org/2000/svg">
<path d="M5.7 29H1.84V14.52H6.2C7.8 14.52 8.92 14.8333 9.56 15.46C10.2133 16.0867 10.54 16.9533 10.54 18.06C10.54 19.0333 10.26 19.8 9.7 20.36C9.14 20.92 8.41333 21.2867 7.52 21.46V21.5C9.85333 21.8067 11.02 23.0067 11.02 25.1C11.02 26.5 10.5533 27.5 9.62 28.1C8.7 28.7 7.39333 29 5.7 29ZM3.16 15.68V21.02H5.24C5.69333 21.02 6.12667 20.98 6.54 20.9C6.96667 20.82 7.38 20.68 7.78 20.48C8.19333 20.28 8.52 19.9867 8.76 19.6C9.01333 19.2133 9.14 18.7467 9.14 18.2C9.14 17.7333 9.08 17.3467 8.96 17.04C8.84 16.72 8.68 16.4733 8.48 16.3C8.29333 16.1133 8 15.98 7.6 15.9C7.2 15.8067 6.80667 15.7467 6.42 15.72C6.03333 15.6933 5.50667 15.68 4.84 15.68H3.16ZM3.16 22.18V27.82H5.6C6.10667 27.82 6.54 27.8067 6.9 27.78C7.26 27.74 7.62 27.6667 7.98 27.56C8.34 27.44 8.63333 27.28 8.86 27.08C9.08667 26.88 9.26667 26.6133 9.4 26.28C9.54667 25.9333 9.62 25.5267 9.62 25.06C9.62 24.5533 9.53333 24.12 9.36 23.76C9.18667 23.4 8.96667 23.12 8.7 22.92C8.44667 22.72 8.1 22.5667 7.66 22.46C7.23333 22.34 6.81333 22.2667 6.4 22.24C6 22.2 5.51333 22.18 4.94 22.18H3.16ZM19.3623 29H18.0223V23.32L12.9023 14.52H14.3423L18.6223 21.98H18.7223L22.9423 14.52H24.3023L19.3623 23.26V29Z" fill="#4C4C4C" style="fill:#4C4C4C;fill:color(display-p3 0.2980 0.2980 0.2980);fill-opacity:1;"/>
<path d="M50 5.50927V-6.10352e-05H87.6774V5.50927H72.4712V41.3098H65.3373V5.50927H50Z" fill="#4C4C4C" style="fill:#4C4C4C;fill:color(display-p3 0.2980 0.2980 0.2980);fill-opacity:1;"/>
<path d="M103.176 10.1709C104.992 9.27291 107.051 8.82893 109.341 8.82893C113.387 8.82893 116.556 9.92878 118.856 12.1184C121.147 14.308 122.297 17.5167 122.297 21.7244V41.3199H115.284V22.9151C115.284 20.12 114.558 17.9809 113.095 16.4976C111.632 15.0143 109.634 14.2777 107.091 14.2777C104.377 14.2777 102.207 15.1253 100.583 16.8104C98.958 18.4955 98.1407 20.9474 98.1407 24.1663V41.3199H91.1279V-0.00012207H98.1407V13.9548H98.8269C99.9166 12.3303 101.36 11.069 103.176 10.1709Z" fill="#4C4C4C" style="fill:#4C4C4C;fill:color(display-p3 0.2980 0.2980 0.2980);fill-opacity:1;"/>
<path d="M129.614 37.3038C126.819 34.2162 125.416 30.2507 125.416 25.4073C125.416 22.1986 126.042 19.343 127.293 16.8608C128.544 14.3786 130.421 12.421 132.923 10.9781C135.426 9.5352 138.513 8.81879 142.186 8.81879C147.443 8.81879 151.419 10.2516 154.113 13.1072C156.807 15.9628 158.149 19.7971 158.149 24.59C158.149 25.6293 158.109 26.3659 158.028 26.7796H132.237C132.53 33.752 135.91 37.2332 142.378 37.2332C144.961 37.2332 146.999 36.6984 148.483 35.6389C149.966 34.5794 150.955 33.0861 151.459 31.1689H158.159C157.574 34.2969 156 36.88 153.437 38.8981C150.874 40.9263 147.12 41.9353 142.196 41.9353C136.606 41.9353 132.409 40.3915 129.614 37.3038ZM151.459 22.5921C151.338 19.5448 150.47 17.2644 148.866 15.7408C147.262 14.2171 145.082 13.4503 142.327 13.4503C139.573 13.4503 137.151 14.2272 135.446 15.7609C133.73 17.3048 132.711 19.5751 132.378 22.582H151.469L151.459 22.5921Z" fill="#4C4C4C" style="fill:#4C4C4C;fill:color(display-p3 0.2980 0.2980 0.2980);fill-opacity:1;"/>
<path d="M177.886 1.99799V19.4644H201.235V1.99799H208.561V43.3079H201.235V24.9636H177.886V43.3079H170.561V1.99799H177.886Z" fill="#F1F1F1" style="fill:#F1F1F1;fill:color(display-p3 0.9451 0.9451 0.9451);fill-opacity:1;"/>
<path d="M230.054 42.6115C228.076 43.6104 225.624 44.1149 222.698 44.1149C219.57 44.1149 216.997 43.3279 214.999 41.7639C213.001 40.1999 211.992 37.98 211.992 35.0942C211.992 32.511 212.81 30.4425 214.434 28.8987C216.059 27.3549 218.753 26.2651 222.506 25.6395L230.458 24.3278C232.213 24.0352 233.414 23.6416 234.09 23.1371C234.766 22.6326 235.089 21.8455 235.089 20.7558C235.089 19.1716 234.514 17.9406 233.364 17.0627C232.213 16.1849 230.286 15.751 227.572 15.751C222.103 15.751 219.368 17.88 219.368 22.1382H212.668C212.668 18.6772 213.97 15.9427 216.583 13.9347C219.187 11.9267 222.829 10.9278 227.501 10.9278C232.173 10.9278 235.583 11.8258 237.864 13.6219C240.144 15.418 241.295 17.9406 241.335 21.1998L241.708 43.2976H235.573L235.382 38.6662H234.564C233.525 40.2907 232.011 41.6125 230.024 42.6115H230.054ZM224.706 39.4835C226.916 39.4835 228.813 39.0092 230.407 38.0708C231.991 37.1324 233.182 35.8812 233.979 34.3172C234.776 32.7532 235.17 31.0984 235.17 29.3427V27.3448L224.968 29.2216C222.96 29.5949 221.467 30.2205 220.458 31.0984C219.459 31.9763 218.955 33.1467 218.955 34.5997C218.955 37.8589 220.872 39.4835 224.716 39.4835H224.706Z" fill="#F1F1F1" style="fill:#F1F1F1;fill:color(display-p3 0.9451 0.9451 0.9451);fill-opacity:1;"/>
<path d="M247.114 18.9599C248.406 16.4575 250.343 14.4697 252.937 13.0167C255.52 11.5536 258.698 10.8271 262.452 10.8271C267.457 10.8271 271.341 12.0278 274.096 14.4293C276.851 16.8308 278.374 19.9891 278.667 23.9143H271.906C271.533 21.2908 270.554 19.3332 268.96 18.0619C267.376 16.7905 265.267 16.1548 262.633 16.1548C259.293 16.1548 256.72 17.073 254.904 18.9095C253.088 20.7459 252.18 23.6015 252.18 27.4862C252.18 31.371 253.058 34.0954 254.813 35.9319C256.569 37.7683 259.071 38.6865 262.321 38.6865C265.196 38.6865 267.467 37.9802 269.111 36.5575C270.756 35.1347 271.735 33.1167 272.017 30.4831H278.778C278.657 33.0662 277.951 35.3769 276.679 37.395C275.408 39.4231 273.571 41.0174 271.17 42.1778C268.768 43.3483 265.862 43.9335 262.442 43.9335C258.688 43.9335 255.5 43.2171 252.896 41.7742C250.283 40.3313 248.345 38.3737 247.074 35.8915C245.803 33.4093 245.167 30.6042 245.167 27.4762C245.167 24.3482 245.813 21.4623 247.104 18.9599H247.114Z" fill="#F1F1F1" style="fill:#F1F1F1;fill:color(display-p3 0.9451 0.9451 0.9451);fill-opacity:1;"/>
<path d="M289.171 35.2254V43.2977H282.219V1.98779H289.171V27.2742L305.76 11.5635H314.215L299.443 25.5891L314.901 43.2977H306.577L295.064 29.6555L289.181 35.2254H289.171Z" fill="#F1F1F1" style="fill:#F1F1F1;fill:color(display-p3 0.9451 0.9451 0.9451);fill-opacity:1;"/>
<path d="M333.266 42.6115C331.288 43.6104 328.836 44.1149 325.91 44.1149C322.782 44.1149 320.209 43.3279 318.211 41.7639C316.213 40.1999 315.204 37.98 315.204 35.0942C315.204 32.511 316.021 30.4425 317.646 28.8987C319.271 27.3549 321.965 26.2651 325.718 25.6395L333.669 24.3278C335.425 24.0352 336.626 23.6416 337.302 23.1371C337.978 22.6326 338.301 21.8455 338.301 20.7558C338.301 19.1716 337.726 17.9406 336.575 17.0627C335.425 16.1849 333.498 15.751 330.784 15.751C325.315 15.751 322.58 17.88 322.58 22.1382H315.88C315.88 18.6772 317.182 15.9427 319.795 13.9347C322.399 11.9267 326.041 10.9278 330.713 10.9278C335.385 10.9278 338.795 11.8258 341.076 13.6219C343.356 15.418 344.506 17.9406 344.547 21.1998L344.92 43.2976H338.785L338.594 38.6662H337.776C336.737 40.2907 335.223 41.6125 333.236 42.6115H333.266ZM327.918 39.4835C330.128 39.4835 332.025 39.0092 333.619 38.0708C335.203 37.1324 336.394 35.8812 337.191 34.3172C337.988 32.7532 338.382 31.0984 338.382 29.3427V27.3448L328.18 29.2216C326.172 29.5949 324.679 30.2205 323.67 31.0984C322.671 31.9763 322.166 33.1467 322.166 34.5997C322.166 37.8589 324.084 39.4835 327.928 39.4835H327.918Z" fill="#F1F1F1" style="fill:#F1F1F1;fill:color(display-p3 0.9451 0.9451 0.9451);fill-opacity:1;"/>
<path d="M346.504 16.6992L346.565 11.5632H355.263V10.8771L353.194 10.0598C352.195 9.64606 351.691 8.88928 351.691 7.80961V1.67468H359.763V11.5027L369.964 11.5632V16.6992H359.702V37.9798H370.721V43.2974H361.085C357.957 43.2974 355.797 42.702 354.607 41.5114C353.416 40.3207 352.821 38.3733 352.821 35.659V16.6891H346.494L346.504 16.6992Z" fill="#F1F1F1" style="fill:#F1F1F1;fill:color(display-p3 0.9451 0.9451 0.9451);fill-opacity:1;"/>
<path d="M386.221 12.169C388.037 11.2709 390.095 10.827 392.386 10.827C396.432 10.827 399.601 11.9268 401.901 14.1164C404.192 16.306 405.342 19.5147 405.342 23.7224V43.3179H398.329V24.9131C398.329 22.1181 397.603 19.9789 396.14 18.4956C394.676 17.0123 392.679 16.2757 390.136 16.2757C387.421 16.2757 385.252 17.1233 383.628 18.8084C382.003 20.4935 381.186 22.9455 381.186 26.1643V43.3179H374.173V2.008H381.186V15.9629H381.872C382.962 14.3384 384.404 13.0771 386.221 12.1791V12.169Z" fill="#F1F1F1" style="fill:#F1F1F1;fill:color(display-p3 0.9451 0.9451 0.9451);fill-opacity:1;"/>
<path d="M416.208 41.7742C413.594 40.3313 411.657 38.3737 410.386 35.8915C409.114 33.4093 408.479 30.6042 408.479 27.4762C408.479 24.3482 409.114 21.4623 410.386 18.9599C411.657 16.4575 413.594 14.4697 416.208 13.0167C418.811 11.5536 422.06 10.8271 425.945 10.8271C429.83 10.8271 433.059 11.5536 435.642 13.0167C438.225 14.4798 440.162 16.4676 441.434 18.9902C442.705 21.5128 443.341 24.3381 443.341 27.4762C443.341 30.6143 442.705 33.3487 441.434 35.831C440.162 38.3132 438.235 40.2808 435.642 41.7439C433.059 43.207 429.82 43.9335 425.945 43.9335C422.07 43.9335 418.821 43.2171 416.208 41.7742ZM418.175 35.7906C419.971 37.6674 422.555 38.6058 425.935 38.6058C429.315 38.6058 431.848 37.6674 433.664 35.7906C435.48 33.9138 436.388 31.139 436.388 27.4661C436.388 23.7932 435.48 20.9881 433.664 19.0507C431.848 17.1134 429.275 16.1447 425.935 16.1447C422.595 16.1447 419.971 17.1033 418.175 19.0204C416.379 20.9376 415.481 23.7528 415.481 27.4661C415.481 31.1793 416.379 33.9138 418.175 35.7906Z" fill="#F1F1F1" style="fill:#F1F1F1;fill:color(display-p3 0.9451 0.9451 0.9451);fill-opacity:1;"/>
<path d="M458.771 12.1691C460.546 11.2711 462.595 10.8271 464.936 10.8271C468.982 10.8271 472.13 11.9269 474.39 14.1165C476.641 16.3061 477.771 19.5149 477.771 23.7226V43.318H470.889V24.9132C470.889 22.1182 470.163 19.979 468.699 18.4957C467.236 17.0125 465.238 16.2759 462.686 16.2759C459.931 16.2759 457.751 17.1235 456.147 18.8085C454.543 20.4936 453.735 22.9456 453.735 26.1644V43.318H446.783V11.5839H453.735V15.9631H454.422C455.552 14.3385 456.995 13.0772 458.771 12.1792V12.1691Z" fill="#F1F1F1" style="fill:#F1F1F1;fill:color(display-p3 0.9451 0.9451 0.9451);fill-opacity:1;"/>
<path d="M527.032 40.3209C523.55 43.1563 518.525 44.579 511.977 44.579C507.093 44.579 503.006 43.6608 499.707 41.8244C496.407 39.9879 493.955 37.4552 492.351 34.2162C490.747 30.9873 489.939 27.2842 489.939 23.1068C489.939 18.9294 490.747 15.5088 492.351 12.3404C493.955 9.17201 496.417 6.65951 499.737 4.80288C503.057 2.94626 507.133 2.01794 511.977 2.01794C518.273 2.01794 523.157 3.34987 526.628 6.02381C530.089 8.69776 532.218 12.5321 533.015 17.5369H525.69C525.064 14.197 523.621 11.7148 521.371 10.0902C519.121 8.46568 516.033 7.64836 512.108 7.64836C507.355 7.64836 503.723 8.96011 501.22 11.5937C498.718 14.2273 497.467 18.0616 497.467 23.1068C497.467 28.152 498.688 32.2688 501.13 34.9327C503.572 37.6066 507.174 38.9385 511.926 38.9385C520.19 38.9385 524.842 35.306 525.881 28.051H533.267C532.601 33.3888 530.523 37.4855 527.042 40.3209H527.032Z" fill="#4C4C4C" style="fill:#4C4C4C;fill:color(display-p3 0.2980 0.2980 0.2980);fill-opacity:1;"/>
<path d="M544.439 42.4096C541.826 40.9667 539.888 39.0092 538.617 36.5269C537.346 34.0447 536.71 31.2396 536.71 28.1116C536.71 24.9836 537.346 22.0977 538.617 19.5953C539.888 17.0929 541.826 15.1051 544.439 13.6521C547.042 12.189 550.292 11.4625 554.176 11.4625C558.061 11.4625 561.29 12.189 563.873 13.6521C566.456 15.1152 568.394 17.103 569.665 19.6256C570.936 22.1482 571.572 24.9735 571.572 28.1116C571.572 31.2497 570.936 33.9842 569.665 36.4664C568.394 38.9486 566.466 40.9163 563.873 42.3794C561.29 43.8425 558.051 44.569 554.176 44.569C550.302 44.569 547.053 43.8525 544.439 42.4096ZM546.407 36.4361C548.203 38.3129 550.786 39.2514 554.166 39.2514C557.547 39.2514 560.079 38.3129 561.895 36.4361C563.712 34.5593 564.62 31.7845 564.62 28.1116C564.62 24.4387 563.712 21.6336 561.895 19.6963C560.079 17.7589 557.506 16.7902 554.166 16.7902C550.826 16.7902 548.203 17.7488 546.407 19.666C544.611 21.5831 543.713 24.3984 543.713 28.1116C543.713 31.8248 544.611 34.5593 546.407 36.4361Z" fill="#4C4C4C" style="fill:#4C4C4C;fill:color(display-p3 0.2980 0.2980 0.2980);fill-opacity:1;"/>
<path d="M575.011 12.2092H582.024V16.4068H582.71C583.799 14.8226 585.202 13.6017 586.938 12.744C588.673 11.8863 590.641 11.4625 592.85 11.4625C595.393 11.4625 597.674 11.9368 599.672 12.8752C601.669 13.8136 603.173 15.1758 604.182 16.9719H604.999C607.29 13.299 610.842 11.4625 615.645 11.4625C619.731 11.4625 622.98 12.5725 625.382 14.7823C627.783 16.992 628.984 20.1907 628.984 24.358V43.9534H621.971V25.1148C621.971 22.4913 621.214 20.4631 619.691 19.0404C618.167 17.6277 616.149 16.9113 613.647 16.9113C611.598 16.9113 609.853 17.4461 608.39 18.5056C606.927 19.5651 605.988 21.0584 605.574 22.9756V43.9434H598.693V24.7919C598.693 22.1684 597.986 20.1907 596.564 18.8789C595.141 17.5672 593.183 16.9113 590.681 16.9113C588.007 16.9113 585.898 17.7286 584.354 19.3532C582.811 20.9777 582.034 23.359 582.034 26.4871V43.9534H575.021V12.2193L575.011 12.2092Z" fill="#4C4C4C" style="fill:#4C4C4C;fill:color(display-p3 0.2980 0.2980 0.2980);fill-opacity:1;"/>
<path d="M632.406 12.2092H639.358V16.5279H640.176C642.597 13.1476 646.391 11.4625 651.568 11.4625C656.744 11.4625 660.246 12.966 662.839 15.9729C665.422 18.9798 666.724 22.9655 666.724 27.93C666.724 32.8944 665.422 36.9104 662.808 39.9779C660.195 43.0453 656.452 44.5791 651.568 44.5791C646.311 44.5791 642.497 42.8233 640.115 39.322H639.369V54.7804H632.416V12.2193L632.406 12.2092ZM642.174 36.2444C644.051 38.2423 646.573 39.2514 649.752 39.2514C652.93 39.2514 655.372 38.2928 657.107 36.3756C658.843 34.4584 659.701 31.6432 659.701 27.93C659.701 24.2167 658.823 21.4722 657.077 19.5752C655.321 17.6782 652.839 16.7297 649.63 16.7297C646.422 16.7297 644.01 17.7084 642.154 19.6761C640.297 21.6336 639.369 24.3681 639.369 27.8694C639.369 31.3708 640.307 34.2566 642.184 36.2545L642.174 36.2444Z" fill="#4C4C4C" style="fill:#4C4C4C;fill:color(display-p3 0.2980 0.2980 0.2980);fill-opacity:1;"/>
<path d="M687.579 43.2573C685.602 44.2562 683.15 44.7608 680.223 44.7608C677.095 44.7608 674.522 43.9737 672.524 42.4097C670.527 40.8457 669.518 38.6258 669.518 35.74C669.518 33.1569 670.335 31.0883 671.959 29.5445C673.584 28.0007 676.278 26.9109 680.032 26.2853L687.983 24.9736C689.739 24.681 690.939 24.2875 691.615 23.7829C692.291 23.2784 692.614 22.4914 692.614 21.4016C692.614 19.8174 692.039 18.5864 690.889 17.7085C689.739 16.8307 687.811 16.3968 685.097 16.3968C679.628 16.3968 676.894 18.5259 676.894 22.784H670.194C670.194 19.323 671.495 16.5885 674.109 14.5805C676.712 12.5725 680.355 11.5736 685.026 11.5736C689.698 11.5736 693.109 12.4716 695.389 14.2677C697.67 16.0638 698.82 18.5864 698.86 21.8456L699.234 43.9434H693.099L692.907 39.312H692.09C691.05 40.9365 689.537 42.2584 687.549 43.2573H687.579ZM682.231 40.1293C684.441 40.1293 686.338 39.6551 687.932 38.7166C689.517 37.7782 690.707 36.527 691.504 34.963C692.302 33.399 692.695 31.7442 692.695 29.9885V27.9906L682.494 29.8674C680.486 30.2408 678.992 30.8664 677.983 31.7442C676.984 32.6221 676.48 33.7926 676.48 35.2456C676.48 38.5047 678.397 40.1293 682.242 40.1293H682.231Z" fill="#4C4C4C" style="fill:#4C4C4C;fill:color(display-p3 0.2980 0.2980 0.2980);fill-opacity:1;"/>
<path d="M714.682 12.8045C716.458 11.9065 718.506 11.4625 720.847 11.4625C724.893 11.4625 728.041 12.5624 730.302 14.752C732.552 16.9416 733.682 20.1503 733.682 24.358V43.9534H726.8V25.5487C726.8 22.7536 726.074 20.6145 724.611 19.1312C723.147 17.6479 721.15 16.9113 718.597 16.9113C715.842 16.9113 713.663 17.7589 712.058 19.444C710.454 21.1291 709.647 23.581 709.647 26.7998V43.9534H702.694V12.2193H709.647V16.5985H710.333C711.463 14.974 712.906 13.7127 714.682 12.8146V12.8045Z" fill="#4C4C4C" style="fill:#4C4C4C;fill:color(display-p3 0.2980 0.2980 0.2980);fill-opacity:1;"/>
<path d="M739.313 48.0804L743.379 49.7654C743.924 49.9773 744.398 50.0782 744.822 50.0782C745.74 50.0782 746.406 49.6444 746.82 48.7665L749.141 43.57L734.934 12.2092H742.199L752.652 37.5561L763.61 12.2092H770.684L752.652 51.0166C751.855 52.6412 750.826 53.8823 749.554 54.74C748.283 55.5977 746.81 56.0215 745.145 56.0215C743.349 56.0215 741.412 55.5169 739.323 54.518L736.881 53.4484L739.323 48.0703L739.313 48.0804Z" fill="#4C4C4C" style="fill:#4C4C4C;fill:color(display-p3 0.2980 0.2980 0.2980);fill-opacity:1;"/>
<path d="M782.027 24.2514C780.977 23.6804 780.151 22.8952 779.55 21.8959C778.948 20.8966 778.632 19.7749 778.632 18.5104C778.632 17.246 778.938 16.1549 779.56 15.1555C780.182 14.1562 781.008 13.371 782.058 12.7898C783.108 12.2086 784.24 11.923 785.484 11.923C786.728 11.923 787.891 12.2086 788.941 12.7898C789.991 13.371 790.817 14.1562 791.439 15.1555C792.062 16.1549 792.367 17.2766 792.367 18.5104C792.367 19.7443 792.062 20.8966 791.439 21.8959C790.817 22.8952 789.991 23.6804 788.941 24.2514C787.891 24.8225 786.739 25.108 785.484 25.108C784.23 25.108 783.078 24.8225 782.027 24.2514ZM780.783 21.1821C781.273 21.9877 781.926 22.6301 782.751 23.0992C783.577 23.5682 784.495 23.8028 785.505 23.8028C786.514 23.8028 787.412 23.5682 788.248 23.0992C789.084 22.6301 789.747 21.9979 790.236 21.1821C790.726 20.3663 790.96 19.4792 790.96 18.5104C790.96 17.5417 790.715 16.6239 790.236 15.8184C789.747 15.0128 789.094 14.3704 788.248 13.9013C787.412 13.4322 786.494 13.1977 785.505 13.1977C784.516 13.1977 783.577 13.4322 782.751 13.9013C781.926 14.3704 781.263 15.0026 780.783 15.8184C780.294 16.6239 780.059 17.5213 780.059 18.5104C780.059 19.4995 780.304 20.3663 780.783 21.1821ZM782.823 15.0332H786.249C786.994 15.0332 787.554 15.1963 787.932 15.5328C788.309 15.8694 788.503 16.3384 788.503 16.94C788.503 17.3377 788.401 17.6743 788.207 17.9496C788.003 18.2249 787.728 18.4187 787.361 18.5308V18.6124C787.707 18.7042 787.952 18.8775 788.105 19.1121C788.258 19.3466 788.319 19.6831 788.309 20.1012V20.815C788.309 21.1821 788.37 21.6002 788.482 22.0692H787.197C787.116 21.7123 787.085 21.2942 787.085 20.815V20.1318C787.085 19.4486 786.698 19.1019 785.913 19.1019H784.118V22.0692H782.833V15.023L782.823 15.0332ZM785.964 18.0923C786.8 18.0923 787.218 17.7558 787.218 17.093C787.218 16.7361 787.126 16.4812 786.943 16.3384C786.759 16.1957 786.473 16.1243 786.076 16.1243H784.108V18.0923H785.964Z" fill="#4C4C4C" style="fill:#4C4C4C;fill:color(display-p3 0.2980 0.2980 0.2980);fill-opacity:1;"/>
</svg>
