<svg width="1108" height="364" viewBox="0 0 1108 364" fill="none" xmlns="http://www.w3.org/2000/svg">
<g clip-path="url(#clip0_2051_23)">
<path d="M983.701 58.5639V99.5775C983.701 137.239 961.942 155.882 931.085 155.882H880.29V2.22205H931.085C961.942 2.22205 983.701 20.9399 983.701 58.5639ZM958.758 58.5639C958.758 32.8786 949.925 25.4592 931.085 25.4592H905.46V132.682H931.085C950.039 132.682 958.758 125.15 958.758 99.5775V58.5639Z" fill="white"/>
<path d="M86.0502 66.5105H25.3222V2.37268H0V155.769H25.3222V91.6685H86.0502V155.769H111.372V2.37268H86.0502V66.5105Z" fill="white"/>
<path d="M218.954 2.37268H150.721V23.7269H129.227V155.769H154.549V91.7439H215.201V155.769H240.41V23.7269H218.916L218.954 2.37268ZM215.163 66.3975H154.511V27.5308H215.163V66.3975Z" fill="white"/>
<path d="M348.029 2.37268H279.682V23.7645H258.188V134.414H279.682V155.769H369.561V130.611H283.511V27.5307H344.239V48.9225H369.561V23.7645H348.029V2.37268Z" fill="white"/>
<path d="M455.611 70.2767V48.9225H477.142V27.5307H498.636V2.37268H473.314V23.7645H451.82V45.1187H430.289V66.5105H412.586V2.37268H387.264V155.769H412.586V91.6685H430.289V113.023H451.82V134.414H473.314V155.769H498.636V130.611H477.142V109.256H455.611V87.8647H434.117V70.2767H455.611Z" fill="white"/>
<path d="M541.661 25.497V66.9248H593.367V89.8984H541.661V132.494H611.487V155.693H516.49V2.03369H611.487V25.497H541.661Z" fill="white"/>
<path d="M708.265 112.42H664.254L653.83 155.882H626.839L667.438 2.22205H705.346L744.808 155.882H718.727L708.265 112.42ZM702.882 89.1828L687.719 25.4969H685.217L670.054 89.2205L702.882 89.1828Z" fill="white"/>
<path d="M760.236 2.22205H795.869L835.975 116.676H838.25V2.22205H862.511V155.882H827.143L786.999 41.4279H784.724V155.882H760.236V2.22205Z" fill="white"/>
<path d="M1001.4 101.799V56.3041C1001.4 18.6425 1023.16 0 1054.02 0H1055.38C1086.2 0 1108 18.8308 1108 56.3041V101.799C1108 139.461 1086.2 158.292 1055.38 158.292H1054.02C1023.16 158.141 1001.4 139.423 1001.4 101.799ZM1055.38 135.695C1074.34 135.695 1082.83 127.334 1082.83 101.799V56.3041C1082.83 30.8448 1074.19 22.4086 1055.38 22.4086H1054.02C1035.07 22.4086 1026.57 30.7319 1026.57 56.3041V101.799C1026.57 127.259 1035.18 135.695 1054.02 135.695H1055.38Z" fill="white"/>
<path d="M1108 173.583H386.96V293.158H1108V173.583Z" fill="#C64FBE"/>
<path d="M476.043 215.877V216.404C476.043 236.101 465.505 245.893 445.111 245.893H426.953V280.316H411.562V186.388H445.111C465.505 186.388 476.043 196.18 476.043 215.877ZM460.88 215.877C460.88 204.578 457.544 200.586 445.073 200.586H426.915V231.845H445.111C457.582 231.845 460.918 227.59 460.918 216.404L460.88 215.877Z" fill="white"/>
<path d="M514.443 245.893H504.587V280.316H489.197V186.388H520.926C541.32 186.388 551.858 196.18 551.858 215.877V216.404C551.858 232.523 544.77 241.901 531.199 244.914V246.157L552.123 280.316H535.065L514.443 245.893ZM521.077 200.699H504.587V231.958H520.926C533.397 231.958 536.733 227.703 536.733 216.517V215.99C536.885 204.578 533.549 200.586 520.926 200.586L521.077 200.699Z" fill="white"/>
<path d="M564.064 247.249V219.455C564.064 196.443 577.37 184.994 596.21 184.994H597.044C615.998 184.994 629.19 196.293 629.19 219.455V247.249C629.19 270.26 615.884 281.709 597.044 281.709H596.21C577.37 281.596 564.064 270.298 564.064 247.249ZM597.044 267.925C608.416 267.925 613.837 262.841 613.837 247.249V219.455C613.837 203.9 608.568 198.778 597.044 198.778H596.21C584.838 198.778 579.455 203.9 579.455 219.455V247.249C579.455 262.841 584.686 267.925 596.21 267.925H597.044Z" fill="white"/>
<path d="M710.463 220.81V245.893C710.463 268.904 697.158 280.316 678.28 280.316H647.234V186.388H678.28C697.006 186.388 710.463 197.837 710.463 220.81ZM695.3 220.81C695.3 205.105 689.917 200.586 678.394 200.586H662.738V266.155H678.394C689.766 266.155 695.3 261.447 695.3 245.893V220.81Z" fill="white"/>
<path d="M726.802 249.735V186.388H742.192V249.735C742.192 263.368 746.324 267.925 757.848 267.925H758.682C770.054 267.925 774.338 263.368 774.338 249.735V186.388H789.728V249.735C789.728 270.675 777.522 281.709 758.682 281.709H757.848C739.008 281.596 726.802 270.675 726.802 249.735Z" fill="white"/>
<path d="M806.218 247.249V219.455C806.218 196.443 819.524 184.994 838.401 184.994H839.198C858.151 184.994 871.381 196.293 871.381 219.455H855.991C855.991 203.75 850.722 198.778 839.198 198.778H838.401C827.029 198.778 821.608 203.75 821.608 219.455V247.249C821.608 262.954 826.878 267.925 838.401 267.925H839.198C850.57 267.925 855.991 262.954 855.991 247.249H871.381C871.381 270.26 858.076 281.709 839.198 281.709H838.401C819.524 281.596 806.218 270.298 806.218 247.249Z" fill="white"/>
<path d="M945.263 200.586H919.6V280.316H904.437V200.586H878.811V186.388H945.339L945.263 200.586Z" fill="white"/>
<path d="M952.617 247.249V219.455C952.617 196.443 965.922 184.994 984.762 184.994H985.596C1004.55 184.994 1017.78 196.293 1017.78 219.455V247.249C1017.78 270.26 1004.47 281.709 985.596 281.709H984.762C965.922 281.596 952.617 270.298 952.617 247.249ZM985.596 267.925C996.969 267.925 1002.39 262.841 1002.39 247.249V219.455C1002.39 203.9 997.12 198.778 985.596 198.778H984.762C973.39 198.778 968.007 203.9 968.007 219.455V247.249C968.007 262.841 973.276 267.925 984.762 267.925H985.596Z" fill="white"/>
<path d="M1029.53 251.467H1044.69C1044.69 264.422 1050.08 268 1062.13 268H1062.97C1074.34 268 1079.76 264.573 1079.76 255.195C1079.76 244.16 1066.57 241.712 1056.45 238.248C1040.11 232.749 1030.97 225.443 1031.09 210.416C1031.39 193.769 1043.97 185.069 1060.35 185.069H1061.18C1079.87 185.069 1092.8 194.447 1092.8 215.538H1077.64C1077.64 202.431 1072.67 198.854 1061.3 198.854H1060.46C1051.44 198.854 1046.74 202.431 1046.74 210.416C1046.74 219.944 1055.04 222.844 1064.48 225.706C1081.81 231.092 1095.11 237.683 1095.11 255.195C1095.11 272.708 1081.96 281.596 1063 281.596H1062.17C1042.84 281.596 1029.53 272.331 1029.53 251.467Z" fill="white"/>
<path d="M808.113 339.106V333.155L836.658 320.199V326.451L814.406 336.093L836.658 345.734V352.024L808.113 339.106Z" fill="white"/>
<path d="M877.446 337.561C877.446 347.316 871.305 354.17 862.851 354.17C860.662 354.214 858.497 353.708 856.556 352.701C854.615 351.694 852.96 350.218 851.745 348.408V363.962H844.163V321.744H851.745V326.79C852.96 324.98 854.615 323.504 856.556 322.497C858.497 321.49 860.662 320.985 862.851 321.028C871.305 320.99 877.446 327.845 877.446 337.561ZM869.865 337.561C869.646 335.823 868.928 334.185 867.797 332.842C866.665 331.499 865.168 330.508 863.485 329.988C861.802 329.468 860.003 329.441 858.305 329.91C856.606 330.38 855.08 331.325 853.908 332.633C852.736 333.942 851.969 335.558 851.697 337.289C851.426 339.019 851.662 340.791 852.378 342.391C853.093 343.992 854.258 345.354 855.732 346.314C857.207 347.274 858.928 347.792 860.691 347.805C861.996 347.796 863.286 347.516 864.476 346.984C865.667 346.453 866.733 345.68 867.607 344.717C868.48 343.753 869.142 342.619 869.551 341.387C869.959 340.155 870.105 338.852 869.978 337.561H869.865Z" fill="white"/>
<path d="M881.351 337.561C881.275 334.187 882.214 330.867 884.046 328.025C885.878 325.182 888.521 322.947 891.638 321.603C894.754 320.259 898.203 319.869 901.544 320.481C904.885 321.093 907.966 322.681 910.395 325.04C912.824 327.4 914.491 330.425 915.182 333.73C915.873 337.035 915.557 340.469 914.275 343.595C912.993 346.721 910.803 349.396 907.984 351.28C905.164 353.163 901.844 354.169 898.447 354.17C893.978 354.171 889.686 352.434 886.49 349.329C883.295 346.225 881.45 342.001 881.351 337.561V337.561ZM908.114 337.561C907.995 335.683 907.326 333.88 906.189 332.375C905.051 330.87 903.495 329.729 901.713 329.092C899.931 328.455 897.999 328.35 896.157 328.79C894.316 329.231 892.644 330.197 891.349 331.57C890.053 332.943 889.19 334.663 888.866 336.517C888.543 338.371 888.772 340.279 889.527 342.005C890.282 343.732 891.529 345.201 893.114 346.231C894.699 347.262 896.553 347.809 898.447 347.805C901.085 347.688 903.572 346.551 905.378 344.637C907.184 342.724 908.166 340.184 908.114 337.561V337.561Z" fill="white"/>
<path d="M952.617 310.558V353.417H945.036V348.521C943.812 350.297 942.163 351.742 940.237 352.728C938.312 353.714 936.17 354.21 934.004 354.17C925.551 354.17 919.372 347.316 919.372 337.561C919.372 327.807 925.551 320.99 934.004 320.99C936.171 320.944 938.315 321.436 940.242 322.423C942.169 323.41 943.816 324.859 945.036 326.64V310.558H952.617ZM945.036 337.561C945.172 336.295 945.043 335.014 944.657 333.8C944.271 332.585 943.636 331.463 942.792 330.505C941.948 329.546 940.913 328.771 939.753 328.229C938.593 327.687 937.333 327.39 936.051 327.355C933.956 327.071 931.823 327.43 929.938 328.383C928.053 329.336 926.506 330.838 925.503 332.689C924.501 334.539 924.09 336.649 924.328 338.737C924.565 340.825 925.438 342.792 926.83 344.373C928.223 345.955 930.068 347.077 932.119 347.589C934.17 348.1 936.33 347.978 938.31 347.237C940.289 346.496 941.993 345.173 943.195 343.444C944.397 341.715 945.039 339.663 945.036 337.561Z" fill="white"/>
<path d="M958.151 337.562C958.26 333.116 960.12 328.89 963.331 325.792C966.542 322.693 970.848 320.969 975.324 320.99C977.586 320.993 979.824 321.451 981.902 322.338C983.981 323.225 985.857 324.522 987.416 326.15L982.374 330.557C981.465 329.573 980.365 328.783 979.14 328.233C977.916 327.682 976.591 327.384 975.248 327.355C972.626 327.513 970.164 328.66 968.364 330.56C966.564 332.46 965.562 334.971 965.562 337.58C965.562 340.19 966.564 342.701 968.364 344.601C970.164 346.501 972.626 347.647 975.248 347.806C976.626 347.787 977.986 347.483 979.239 346.913C980.493 346.342 981.612 345.517 982.526 344.491L987.606 348.822C986.022 350.515 984.104 351.863 981.97 352.784C979.837 353.704 977.535 354.176 975.21 354.17C970.75 354.152 966.473 352.407 963.288 349.306C960.102 346.204 958.26 341.991 958.151 337.562Z" fill="white"/>
<path d="M1019.86 334.323V353.38H1012.51V349.613C1011.28 351.063 1009.74 352.223 1008 353.011C1006.27 353.799 1004.37 354.195 1002.47 354.17C995.68 354.17 990.562 350.178 990.562 344.039C990.562 337.901 996.438 333.494 1003.56 333.494C1006.63 333.537 1009.66 334.124 1012.51 335.227V334.323C1012.58 333.31 1012.41 332.296 1012.04 331.353C1011.66 330.41 1011.08 329.562 1010.33 328.87C1009.58 328.178 1008.69 327.66 1007.72 327.352C1006.74 327.045 1005.71 326.956 1004.7 327.092C1001.68 327.216 998.72 328.028 996.059 329.464L993.444 324.267C997.372 322.194 1001.73 321.059 1006.18 320.953C1007.99 320.809 1009.82 321.054 1011.53 321.672C1013.24 322.29 1014.8 323.266 1016.1 324.534C1017.39 325.802 1018.4 327.332 1019.05 329.021C1019.7 330.71 1019.98 332.518 1019.86 334.323V334.323ZM1012.51 343.474V339.897C1009.99 339.071 1007.35 338.664 1004.7 338.691C1000.91 338.691 997.916 340.763 997.916 343.776C997.916 346.789 1000.57 348.672 1004.13 348.672C1005.9 348.82 1007.67 348.398 1009.18 347.469C1010.69 346.539 1011.86 345.152 1012.51 343.512V343.474Z" fill="white"/>
<path d="M1024.6 349.387L1028.02 344.152C1031.08 346.514 1034.83 347.835 1038.71 347.918C1041.7 347.918 1043.82 346.638 1043.82 344.679C1043.82 342.721 1041.02 341.441 1037.38 340.461C1030.48 338.654 1026.01 336.695 1026.01 331.046C1026.01 325.397 1030.93 321.066 1038.02 321.066C1042.38 321.129 1046.63 322.436 1050.27 324.832L1047.12 330.293C1044.41 328.519 1041.27 327.517 1038.02 327.393C1035.37 327.393 1033.36 328.447 1033.36 330.217C1033.36 331.988 1035.03 332.854 1039.88 334.285C1044.73 335.716 1051.06 337.599 1051.06 344.19C1051.06 350.781 1045.98 354.208 1038.52 354.208C1033.47 354.157 1028.59 352.463 1024.6 349.387Z" fill="white"/>
<path d="M1074.38 351.647C1072.47 353.239 1070.08 354.13 1067.59 354.17C1066.38 354.208 1065.17 353.996 1064.05 353.547C1062.92 353.098 1061.91 352.422 1061.06 351.562C1060.21 350.702 1059.55 349.676 1059.12 348.55C1058.69 347.423 1058.5 346.221 1058.57 345.018V327.92H1053.94V321.744H1058.57V313.044H1065.92V321.744H1073.13V327.92H1065.92V344.115C1065.86 344.57 1065.9 345.032 1066.03 345.473C1066.16 345.913 1066.38 346.322 1066.67 346.676C1066.97 347.029 1067.33 347.318 1067.75 347.525C1068.16 347.732 1068.61 347.853 1069.07 347.881C1070.23 347.905 1071.36 347.487 1072.22 346.713L1074.38 351.647Z" fill="white"/>
<path d="M1079.42 345.621L1101.71 335.98L1079.42 326.338V320.086L1108 333.042V338.993L1079.42 351.911V345.621Z" fill="white"/>
</g>
<defs>
<clipPath id="clip0_2051_23">
<rect width="1108" height="364" fill="white"/>
</clipPath>
</defs>
</svg>
