<svg width="712" height="74" viewBox="0 0 712 74" fill="none" xmlns="http://www.w3.org/2000/svg">
<g clip-path="url(#clip0_139_5)">
<path d="M61.3309 8.70166L85.6571 73.9999H74.4657L68.9168 58.7008H31.9121L25.9009 73.9999H14.8032L40.3291 8.70166H50.8769L34.9677 49.747H65.8675L50.8769 8.70166H61.3309Z" fill="#F6F6F6" style="fill:#F6F6F6;fill:color(display-p3 0.9647 0.9647 0.9647);fill-opacity:1;"/>
<path d="M172.614 8.70166V73.9999H162.347V45.9222H118.5V73.9999H108.233V8.70166H118.5V36.2185H162.347V8.70166H172.614Z" fill="#F6F6F6" style="fill:#F6F6F6;fill:color(display-p3 0.9647 0.9647 0.9647);fill-opacity:1;"/>
<path d="M223.209 8.70166L247.536 73.9999H236.344L230.795 58.7008H193.797L187.786 73.9999H176.688L202.22 8.70166H212.768L196.859 49.747H227.758L212.774 8.70166H223.228H223.209Z" fill="#F6F6F6" style="fill:#F6F6F6;fill:color(display-p3 0.9647 0.9647 0.9647);fill-opacity:1;"/>
<path d="M277.604 73.9999C272.361 73.9999 267.675 73.269 263.544 71.8071C259.414 70.3453 255.915 68.2155 253.047 65.4178C250.178 62.6201 247.991 59.1986 246.479 55.1596C244.967 51.1143 244.211 46.5461 244.211 41.4485C244.211 36.3509 245.011 31.7763 246.617 27.7373C248.223 23.692 250.503 20.2579 253.465 17.4287C256.427 14.5995 259.989 12.4383 264.15 10.9449C268.312 9.45154 272.986 8.70801 278.166 8.70801C282.053 8.70801 285.827 9.13018 289.495 9.96823C293.163 10.8063 296.481 12.161 299.437 14.0261C302.399 15.8913 304.879 18.3046 306.885 21.2535C308.891 24.2087 310.172 27.7688 310.722 31.9338H300.268C299.837 29.9427 298.974 28.128 297.681 26.4771C296.387 24.8325 294.769 23.4148 292.826 22.2301C290.882 21.0518 288.633 20.1319 286.071 19.4766C283.509 18.8213 280.784 18.4999 277.885 18.4999C273.755 18.4999 270.224 19.1048 267.294 20.3209C264.363 21.5307 261.957 23.1816 260.076 25.2673C258.195 27.3529 256.821 29.7789 255.958 32.545C255.096 35.3112 254.665 38.2538 254.665 41.3603C254.665 44.4667 255.084 47.4093 255.915 50.1755C256.746 52.9417 258.071 55.3676 259.895 57.4532C261.714 59.5389 264.107 61.1835 267.062 62.3996C270.018 63.6157 273.63 64.2206 277.885 64.2206C280.353 64.2206 282.803 63.956 285.24 63.4267C287.677 62.8974 289.926 62.0908 291.995 61.0008C294.063 59.9107 295.85 58.5118 297.362 56.8042C298.874 55.0966 299.905 53.0236 300.462 50.604H310.822C310.141 54.769 308.772 58.3291 306.704 61.2843C304.636 64.2395 302.092 66.6654 299.074 68.5621C296.05 70.4587 292.694 71.8449 288.989 72.7145C285.29 73.584 281.497 74.0188 277.61 74.0188L277.604 73.9999Z" fill="#F6F6F6" style="fill:#F6F6F6;fill:color(display-p3 0.9647 0.9647 0.9647);fill-opacity:1;"/>
<path d="M329.587 44.4288V73.9999H319.32V8.70166H329.587V43.4963" fill="#F6F6F6" style="fill:#F6F6F6;fill:color(display-p3 0.9647 0.9647 0.9647);fill-opacity:1;"/>
<path d="M427.735 8.70166L452.061 73.9999H440.87L435.321 58.7008H398.322L392.311 73.9999H381.213L406.745 8.70166H417.293L401.384 49.747H432.284L417.3 8.70166H427.754H427.735Z" fill="#F6F6F6" style="fill:#F6F6F6;fill:color(display-p3 0.9647 0.9647 0.9647);fill-opacity:1;"/>
<path d="M501.926 8.70166V18.4053H476.762V73.9999H466.495V18.4053H441.332V8.70166H501.919H501.926Z" fill="#F6F6F6" style="fill:#F6F6F6;fill:color(display-p3 0.9647 0.9647 0.9647);fill-opacity:1;"/>
<path d="M570.93 8.70166V73.9999H560.663V45.9222H516.816V73.9999H506.55V8.70166H516.816V36.2185H560.663V8.70166H570.93Z" fill="#F6F6F6" style="fill:#F6F6F6;fill:color(display-p3 0.9647 0.9647 0.9647);fill-opacity:1;"/>
<path d="M645.027 41.354C645.027 51.9902 642.033 60.0871 636.053 65.651C630.073 71.2148 621.469 73.9999 610.246 73.9999C599.024 73.9999 590.282 71.2148 584.389 65.651C578.497 60.0871 575.554 51.9839 575.554 41.354C575.554 30.724 578.572 22.4633 584.621 16.9624C590.663 11.4616 599.236 8.70801 610.334 8.70801C621.432 8.70801 629.992 11.3986 636.003 16.7797C642.015 22.1608 645.02 30.3523 645.02 41.3603L645.027 41.354ZM634.573 41.1649C634.573 33.9502 632.535 28.3737 628.468 24.4229C624.4 20.4721 618.382 18.4999 610.428 18.4999C602.473 18.4999 596.337 20.491 592.206 24.467C588.076 28.4493 586.008 34.0762 586.008 41.3477C586.008 48.6191 588.089 54.4854 592.25 58.3732C596.412 62.261 602.473 64.2017 610.428 64.2017C618.382 64.2017 624.781 62.1475 628.699 58.0455C632.617 53.9435 634.573 48.3167 634.573 41.1649Z" fill="#F6F6F6" style="fill:#F6F6F6;fill:color(display-p3 0.9647 0.9647 0.9647);fill-opacity:1;"/>
<path d="M649.651 73.9999V8.70166H659.824V73.9999H649.651ZM712 8.70166V73.9999H691.28L659.83 8.70166H670.19L701.827 73.9999V8.70166H712Z" fill="#F6F6F6" style="fill:#F6F6F6;fill:color(display-p3 0.9647 0.9647 0.9647);fill-opacity:1;"/>
<path d="M329.587 43.4963L362.892 8.70166H376.952L348.92 37.6174L377.139 73.9999H364.555L341.522 44.4288H329.587" fill="#B91F2E" style="fill:#B91F2E;fill:color(display-p3 0.7255 0.1216 0.1804);fill-opacity:1;"/>
<path d="M10.2666 16.5591H0V73.9998H10.2666V16.5591Z" fill="#F6F6F6" style="fill:#F6F6F6;fill:color(display-p3 0.9647 0.9647 0.9647);fill-opacity:1;"/>
<path d="M21.3768 0H11.104V10.296H21.3768V0Z" fill="#B91F2E" style="fill:#B91F2E;fill:color(display-p3 0.7255 0.1216 0.1804);fill-opacity:1;"/>
</g>
<defs>
<clipPath id="clip0_139_5">
<rect width="712" height="74" fill="white" style="fill:white;fill-opacity:1;"/>
</clipPath>
</defs>
</svg>
