<svg width="1140" height="118" viewBox="0 0 1140 118" fill="none" xmlns="http://www.w3.org/2000/svg">
<path d="M98.1504 13.81L137.08 117.44H119.17L110.29 93.16H51.0704L41.4504 117.44H23.6904L64.5404 13.81H81.4204L55.9604 78.95H105.41L81.4204 13.81H98.1504Z" fill="#F6F6F6" style="fill:#F6F6F6;fill:color(display-p3 0.9647 0.9647 0.9647);fill-opacity:1;"/>
<path d="M276.24 13.81V117.44H259.81V72.88H189.64V117.44H173.21V13.81H189.64V57.48H259.81V13.81H276.24Z" fill="#F6F6F6" style="fill:#F6F6F6;fill:color(display-p3 0.9647 0.9647 0.9647);fill-opacity:1;"/>
<path d="M357.21 13.81L396.14 117.44H378.23L369.35 93.16H310.14L300.52 117.44H282.76L323.62 13.81H340.5L315.04 78.95H364.49L340.51 13.81H357.24H357.21Z" fill="#F6F6F6" style="fill:#F6F6F6;fill:color(display-p3 0.9647 0.9647 0.9647);fill-opacity:1;"/>
<path d="M444.26 117.44C435.87 117.44 428.37 116.28 421.76 113.96C415.15 111.64 409.55 108.26 404.96 103.82C400.37 99.38 396.87 93.95 394.45 87.54C392.03 81.12 390.82 73.87 390.82 65.78C390.82 57.69 392.1 50.43 394.67 44.02C397.24 37.6 400.89 32.15 405.63 27.66C410.37 23.17 416.07 19.74 422.73 17.37C429.39 15 436.87 13.82 445.16 13.82C451.38 13.82 457.42 14.49 463.29 15.82C469.16 17.15 474.47 19.3 479.2 22.26C483.94 25.22 487.91 29.05 491.12 33.73C494.33 38.42 496.38 44.07 497.26 50.68H480.53C479.84 47.52 478.46 44.64 476.39 42.02C474.32 39.41 471.73 37.16 468.62 35.28C465.51 33.41 461.91 31.95 457.81 30.91C453.71 29.87 449.35 29.36 444.71 29.36C438.1 29.36 432.45 30.32 427.76 32.25C423.07 34.17 419.22 36.79 416.21 40.1C413.2 43.41 411 47.26 409.62 51.65C408.24 56.04 407.55 60.71 407.55 65.64C407.55 70.57 408.22 75.24 409.55 79.63C410.88 84.02 413 87.87 415.92 91.18C418.83 94.49 422.66 97.1 427.39 99.03C432.12 100.96 437.9 101.92 444.71 101.92C448.66 101.92 452.58 101.5 456.48 100.66C460.38 99.82 463.98 98.54 467.29 96.81C470.6 95.08 473.46 92.86 475.88 90.15C478.3 87.44 479.95 84.15 480.84 80.31H497.42C496.33 86.92 494.14 92.57 490.83 97.26C487.52 101.95 483.45 105.8 478.62 108.81C473.78 111.82 468.41 114.02 462.48 115.4C456.56 116.78 450.49 117.47 444.27 117.47L444.26 117.44Z" fill="#F6F6F6" style="fill:#F6F6F6;fill:color(display-p3 0.9647 0.9647 0.9647);fill-opacity:1;"/>
<path d="M527.45 70.51V117.44H511.02V13.81H527.45V69.03" fill="#F6F6F6" style="fill:#F6F6F6;fill:color(display-p3 0.9647 0.9647 0.9647);fill-opacity:1;"/>
<path d="M684.52 13.81L723.45 117.44H705.54L696.66 93.16H637.45L627.83 117.44H610.07L650.93 13.81H667.81L642.35 78.95H691.8L667.82 13.81H684.55H684.52Z" fill="#F6F6F6" style="fill:#F6F6F6;fill:color(display-p3 0.9647 0.9647 0.9647);fill-opacity:1;"/>
<path d="M803.25 13.81V29.21H762.98V117.44H746.55V29.21H706.28V13.81H803.24H803.25Z" fill="#F6F6F6" style="fill:#F6F6F6;fill:color(display-p3 0.9647 0.9647 0.9647);fill-opacity:1;"/>
<path d="M913.68 13.81V117.44H897.25V72.88H827.08V117.44H810.65V13.81H827.08V57.48H897.25V13.81H913.68Z" fill="#F6F6F6" style="fill:#F6F6F6;fill:color(display-p3 0.9647 0.9647 0.9647);fill-opacity:1;"/>
<path d="M1032.26 65.63C1032.26 82.51 1027.47 95.36 1017.9 104.19C1008.33 113.02 994.56 117.44 976.6 117.44C958.64 117.44 944.65 113.02 935.22 104.19C925.79 95.36 921.08 82.5 921.08 65.63C921.08 48.76 925.91 35.65 935.59 26.92C945.26 18.19 958.98 13.82 976.74 13.82C994.5 13.82 1008.2 18.09 1017.82 26.63C1027.44 35.17 1032.25 48.17 1032.25 65.64L1032.26 65.63ZM1015.53 65.33C1015.53 53.88 1012.27 45.03 1005.76 38.76C999.25 32.49 989.62 29.36 976.89 29.36C964.16 29.36 954.34 32.52 947.73 38.83C941.12 45.15 937.81 54.08 937.81 65.62C937.81 77.16 941.14 86.47 947.8 92.64C954.46 98.81 964.16 101.89 976.89 101.89C989.62 101.89 999.86 98.63 1006.13 92.12C1012.4 85.61 1015.53 76.68 1015.53 65.33Z" fill="#F6F6F6" style="fill:#F6F6F6;fill:color(display-p3 0.9647 0.9647 0.9647);fill-opacity:1;"/>
<path d="M1039.66 117.44V13.81H1055.94V117.44H1039.66ZM1139.44 13.81V117.44H1106.28L1055.95 13.81H1072.53L1123.16 117.44V13.81H1139.44Z" fill="#F6F6F6" style="fill:#F6F6F6;fill:color(display-p3 0.9647 0.9647 0.9647);fill-opacity:1;"/>
<path d="M527.45 69.03L580.75 13.81H603.25L558.39 59.7L603.55 117.44H583.41L546.55 70.51H527.45" fill="#B91F2E" style="fill:#B91F2E;fill:color(display-p3 0.7255 0.1216 0.1804);fill-opacity:1;"/>
<path d="M16.43 26.28H0V117.44H16.43V26.28Z" fill="#F6F6F6" style="fill:#F6F6F6;fill:color(display-p3 0.9647 0.9647 0.9647);fill-opacity:1;"/>
<path d="M34.2095 0H17.7695V16.34H34.2095V0Z" fill="#B91F2E" style="fill:#B91F2E;fill:color(display-p3 0.7255 0.1216 0.1804);fill-opacity:1;"/>
</svg>
