<svg width="295" height="38" viewBox="0 0 295 38" fill="none" xmlns="http://www.w3.org/2000/svg">
<path d="M10.38 26H2.02V24.84H5.54V12.68H2.02V11.52H10.38V12.68H6.88V24.84H10.38V26ZM15.1023 26H13.8423V11.52H15.6623L22.0823 23.84H22.1223V11.52H23.3623V26H21.8623L15.1423 13.22H15.1023V26ZM40.427 26H39.107V11.52H43.787C45.507 11.52 46.7404 11.9133 47.487 12.7C48.2337 13.4733 48.607 14.5 48.607 15.78C48.607 18.9133 46.7804 20.48 43.127 20.48H40.427V26ZM40.427 12.68V19.3H43.087C43.5937 19.3 44.0337 19.28 44.407 19.24C44.7804 19.1867 45.147 19.0867 45.507 18.94C45.8804 18.7933 46.187 18.5933 46.427 18.34C46.667 18.0867 46.8537 17.7467 46.987 17.32C47.1337 16.8933 47.207 16.3933 47.207 15.82C47.207 14.5667 46.847 13.7333 46.127 13.32C45.4204 12.8933 44.207 12.68 42.487 12.68H40.427ZM61.4894 26H60.0094L58.4894 21.34H52.9894L51.4494 26H50.1294L54.9694 11.52H56.5694L61.4894 26ZM55.7494 12.96L53.3694 20.16H58.1094L55.7694 12.96H55.7494ZM65.2317 26H63.9117V11.52H68.3517C69.2051 11.52 69.9384 11.64 70.5517 11.88C71.1651 12.12 71.6317 12.4533 71.9517 12.88C72.2717 13.2933 72.4984 13.7267 72.6317 14.18C72.7651 14.6333 72.8317 15.12 72.8317 15.64C72.8317 17.9467 71.8851 19.3867 69.9917 19.96L73.3117 26H71.8517L68.6317 20.26H65.2317V26ZM65.2317 12.7V19.12H67.6117C68.8384 19.12 69.7784 18.8933 70.4317 18.44C71.0984 17.9733 71.4317 17.08 71.4317 15.76C71.4317 14.5333 71.0984 13.72 70.4317 13.32C69.7784 12.9067 68.6584 12.7 67.0717 12.7H65.2317ZM81.2941 26H79.9541V12.68H75.3341V11.52H85.8941V12.68H81.2941V26ZM89.5164 26H88.2564V11.52H90.0764L96.4964 23.84H96.5364V11.52H97.7764V26H96.2764L89.5564 13.22H89.5164V26ZM109.699 26H101.419V11.52H109.499V12.68H102.759V18H109.059V19.18H102.759V24.84H109.699V26ZM114.841 26H113.521V11.52H117.961C118.814 11.52 119.548 11.64 120.161 11.88C120.774 12.12 121.241 12.4533 121.561 12.88C121.881 13.2933 122.108 13.7267 122.241 14.18C122.374 14.6333 122.441 15.12 122.441 15.64C122.441 17.9467 121.494 19.3867 119.601 19.96L122.921 26H121.461L118.241 20.26H114.841V26ZM114.841 12.7V19.12H117.221C118.448 19.12 119.388 18.8933 120.041 18.44C120.708 17.9733 121.041 17.08 121.041 15.76C121.041 14.5333 120.708 13.72 120.041 13.32C119.388 12.9067 118.268 12.7 116.681 12.7H114.841ZM130.083 26.24C128.617 26.24 127.523 25.9267 126.803 25.3C126.083 24.66 125.61 23.6333 125.383 22.22L126.623 22C126.837 23.08 127.19 23.8667 127.683 24.36C128.19 24.84 129.003 25.08 130.123 25.08C132.257 25.08 133.323 24.16 133.323 22.32C133.323 21.8267 133.237 21.4067 133.063 21.06C132.903 20.7 132.637 20.4 132.263 20.16C131.903 19.92 131.57 19.7467 131.263 19.64C130.97 19.52 130.55 19.3733 130.003 19.2C129.563 19.0667 129.23 18.96 129.003 18.88C128.79 18.8 128.49 18.68 128.103 18.52C127.717 18.36 127.423 18.1867 127.223 18C127.023 17.8133 126.81 17.5867 126.583 17.32C126.37 17.0533 126.21 16.7333 126.103 16.36C126.01 15.9867 125.963 15.5667 125.963 15.1C125.963 13.9133 126.343 12.98 127.103 12.3C127.877 11.6067 128.957 11.26 130.343 11.26C131.637 11.26 132.623 11.5733 133.303 12.2C133.997 12.8133 134.423 13.84 134.583 15.28L133.363 15.44C133.27 14.9333 133.183 14.5467 133.103 14.28C133.023 14 132.877 13.7 132.663 13.38C132.463 13.0467 132.17 12.8133 131.783 12.68C131.41 12.5333 130.937 12.46 130.363 12.46C128.297 12.46 127.263 13.32 127.263 15.04C127.263 15.4133 127.33 15.7533 127.463 16.06C127.597 16.3667 127.75 16.6133 127.923 16.8C128.097 16.9733 128.35 17.1533 128.683 17.34C129.03 17.5133 129.323 17.64 129.563 17.72C129.803 17.8 130.143 17.9133 130.583 18.06C131.117 18.22 131.517 18.3533 131.783 18.46C132.063 18.5533 132.417 18.72 132.843 18.96C133.283 19.1867 133.61 19.4267 133.823 19.68C134.037 19.9333 134.23 20.2733 134.403 20.7C134.577 21.1267 134.663 21.6067 134.663 22.14C134.663 23.5 134.23 24.5267 133.363 25.22C132.51 25.9 131.417 26.24 130.083 26.24ZM139.506 26H138.166V11.52H139.506V17.92H145.746V11.52H147.086V26H145.746V19.08H139.506V26ZM159.208 26H150.848V24.84H154.368V12.68H150.848V11.52H159.208V12.68H155.708V24.84H159.208V26ZM164.45 26H163.13V11.52H167.81C169.53 11.52 170.764 11.9133 171.51 12.7C172.257 13.4733 172.63 14.5 172.63 15.78C172.63 18.9133 170.804 20.48 167.15 20.48H164.45V26ZM164.45 12.68V19.3H167.11C167.617 19.3 168.057 19.28 168.43 19.24C168.804 19.1867 169.17 19.0867 169.53 18.94C169.904 18.7933 170.21 18.5933 170.45 18.34C170.69 18.0867 170.877 17.7467 171.01 17.32C171.157 16.8933 171.23 16.3933 171.23 15.82C171.23 14.5667 170.87 13.7333 170.15 13.32C169.444 12.8933 168.23 12.68 166.51 12.68H164.45ZM188.315 26L186.675 11.52H187.995L189.215 24.1L189.275 24.12L191.615 15.32H192.755L195.195 24.14L195.255 24.12L196.475 11.52H197.795L196.155 26H194.575L192.195 17.34H192.135L189.855 26H188.315ZM208.818 26H200.458V24.84H203.978V12.68H200.458V11.52H208.818V12.68H205.318V24.84H208.818V26ZM217.72 26H216.38V12.68H211.76V11.52H222.32V12.68H217.72V26ZM226.322 26H224.982V11.52H226.322V17.92H232.562V11.52H233.902V26H232.562V19.08H226.322V26ZM243.085 18.44C242.791 18.7333 242.378 18.88 241.845 18.88C241.311 18.88 240.891 18.7333 240.585 18.44C240.291 18.1467 240.145 17.74 240.145 17.22C240.145 16.6867 240.291 16.2733 240.585 15.98C240.878 15.6867 241.298 15.54 241.845 15.54C242.378 15.54 242.791 15.6867 243.085 15.98C243.378 16.26 243.525 16.6733 243.525 17.22C243.525 17.74 243.378 18.1467 243.085 18.44ZM243.085 25.8C242.791 26.0933 242.378 26.24 241.845 26.24C241.311 26.24 240.891 26.0933 240.585 25.8C240.291 25.5067 240.145 25.1 240.145 24.58C240.145 24.0467 240.291 23.6333 240.585 23.34C240.878 23.0467 241.298 22.9 241.845 22.9C242.378 22.9 242.791 23.0467 243.085 23.34C243.378 23.62 243.525 24.0333 243.525 24.58C243.525 25.1 243.378 25.5067 243.085 25.8Z" fill="#4C4C4C" style="fill:#4C4C4C;fill:color(display-p3 0.2980 0.2980 0.2980);fill-opacity:1;"/>
<path d="M295 19.0006C295 29.4941 286.493 38.0013 276 38.0013C265.507 38.0013 257 29.4941 257 19.0006C257 8.5072 265.507 0 276 0C286.493 0 295 8.5072 295 19.0006ZM292.884 19.0019C292.884 9.6788 285.325 2.12011 276.003 2.12011C266.68 2.12011 259.12 9.6788 259.12 19.0019C259.12 28.325 266.678 35.8837 276.001 35.8837C285.324 35.8837 292.883 28.3263 292.883 19.0019H292.884Z" fill="#4C4C4C" style="fill:#4C4C4C;fill:color(display-p3 0.2980 0.2980 0.2980);fill-opacity:1;"/>
<path d="M266.1 11.4917C267.719 11.3145 268.214 12.5371 269.406 13.0815C270.528 13.594 271.688 13.5965 272.833 13.1401C273.977 12.6837 274.446 11.5147 275.867 11.4573C277.489 11.3923 277.982 12.7016 279.233 13.1771C280.779 13.7635 282.011 13.4716 283.345 12.5843C283.694 12.3523 283.921 11.9927 284.333 11.7913C286.868 10.5483 289.386 13.4129 287.861 15.7013C286.882 17.1713 286.156 17.402 286.351 19.5438C286.532 21.5326 288.606 22.1598 288.234 24.3424C287.682 27.5831 282.446 27.0056 282.933 23.3658C283.125 21.9316 284.66 21.2814 284.827 19.5374C285.336 14.2544 278.064 13.2982 276.852 17.9222C276.035 21.0392 278.573 21.6065 278.715 23.6285C278.93 26.6907 274.411 27.6621 273.446 24.6904C272.57 21.9915 276.156 21.2011 275.072 17.7207C273.698 13.3071 266.627 14.3742 267.148 19.5387C267.371 21.7468 270.352 22.9413 268.525 25.4974C266.721 28.0217 262.13 25.463 264.197 22.1866C265.144 20.6848 265.844 20.5854 265.62 18.3964C265.418 16.4255 263.577 16.0009 263.712 13.9458C263.795 12.6939 264.855 11.6281 266.101 11.4917H266.1Z" fill="#4C4C4C" style="fill:#4C4C4C;fill:color(display-p3 0.2980 0.2980 0.2980);fill-opacity:1;"/>
</svg>
