<svg width="344" height="147" viewBox="0 0 344 147" fill="none" xmlns="http://www.w3.org/2000/svg">
<path d="M40.8391 29.452L36.7509 29.2865L6.34543 28.0286C3.11785 27.8962 0.419922 29.932 0.419922 32.5968V39.8961C0.419922 42.5444 3.11785 44.5968 6.34543 44.4478L25.893 43.6037L8.49714 60.0561C6.27922 62.1581 6.27922 65.1043 8.49714 66.5774L14.3399 70.4505C16.3757 71.8078 19.6033 71.1788 21.5233 69.1264L36.7509 52.9058V67.8354C36.7509 70.0036 38.555 71.3774 40.7398 70.8974L46.4336 69.6561C48.4033 69.2257 49.9757 67.2726 49.9757 65.2699V33.4575C49.9757 31.4548 48.4198 29.7665 46.4336 29.6837L40.8722 29.452H40.8391Z" fill="#6934D2" style="fill:#6934D2;fill:color(display-p3 0.4118 0.2039 0.8235);fill-opacity:1;"/>
<path opacity="0.5" d="M45.0764 42.7096L48.933 42.5441L69.0433 41.7165C70.566 41.6503 71.7743 40.1772 71.7743 38.4227V33.5896C71.7743 31.8352 70.566 30.3455 69.0433 30.2793L57.6061 29.7827L67.984 19.0738C69.0764 17.9483 69.0764 15.8793 67.984 14.4393L64.8722 10.3511C63.6971 8.81175 61.7771 8.44761 60.5523 9.55658L48.9495 20.1497V5.98141C48.9495 3.91245 47.2778 1.87659 45.1757 1.4297L39.1013 0.105564C36.7675 -0.407538 34.8309 0.999355 34.8309 3.25039V39.0517C34.8309 41.3027 36.7675 43.0406 39.1013 42.9413L45.0599 42.6931L45.0764 42.7096Z" fill="#6934D2" style="fill:#6934D2;fill:color(display-p3 0.4118 0.2039 0.8235);fill-opacity:1;"/>
<path d="M58.2523 51.3164H75.4661C76.4426 51.3164 77.2371 52.1109 77.2371 53.0874V99.6804H85.0661L101.287 74.9026C101.485 74.5881 101.833 74.406 102.214 74.406H122.738C123.631 74.406 124.145 75.4157 123.648 76.1439L102.015 107.129L127.687 143.724C128.067 144.254 127.687 144.982 127.025 144.982H104.994C104.729 144.982 104.481 144.85 104.332 144.635L85.0661 116.365H77.2371V144.982H58.2523V51.3164Z" fill="white" style="fill:white;fill-opacity:1;"/>
<path d="M120.618 109.562C120.618 86.0752 133.446 73.1152 156.287 73.1152C177.589 73.1152 189.904 84.2711 190.682 103.521C190.814 108.006 190.549 111.73 190.301 114.428H140.133C141.291 125.336 146.936 130.732 157.33 130.732C164.894 130.732 169.512 127.785 171.316 122.257H189.788C186.577 138.048 175.421 146.257 157.065 146.257C133.578 146.257 120.618 133.165 120.618 109.562ZM172.591 103.024C172.21 94.0366 166.301 88.5249 156.552 88.5249C147.449 88.5249 141.92 93.4076 140.381 103.024H172.591Z" fill="white" style="fill:white;fill-opacity:1;"/>
<path d="M194.39 52.5908H213.375V80.0501C218.258 76.1935 224.795 73.1149 233.783 73.1149C255.217 73.1149 267.019 86.2073 267.019 109.562C267.019 132.916 255.731 146.257 234.561 146.257C224.68 146.257 217.496 143.046 211.587 137.666L209.154 144.982H194.407V52.5908H194.39ZM213.391 120.982C218.009 126.891 224.167 129.573 230.837 129.573C242.258 129.573 247.769 123.035 247.769 109.562C247.769 96.0887 241.744 89.799 230.191 89.799C223.521 89.799 218.258 92.2321 213.375 98.3893V120.966L213.391 120.982Z" fill="white" style="fill:white;fill-opacity:1;"/>
<path d="M306.925 73.1318C330.792 73.1318 344 86.0918 344 109.579C344 133.065 330.792 146.274 306.925 146.274C283.057 146.274 269.584 133.314 269.584 109.579C269.584 85.8435 282.792 73.1318 306.925 73.1318ZM306.792 129.457C318.858 129.457 324.635 123.035 324.635 109.562C324.635 96.089 318.726 89.667 306.792 89.667C294.858 89.667 288.834 96.2049 288.834 109.562C288.834 122.919 294.61 129.457 306.792 129.457Z" fill="white" style="fill:white;fill-opacity:1;"/>
</svg>
