<svg width="295" height="38" viewBox="0 0 295 38" fill="none" xmlns="http://www.w3.org/2000/svg">
<path d="M10.82 11.52V13.76H7.76V23.76H10.82V26H1.58V23.76H4.68V13.76H1.58V11.52H10.82ZM16.0623 26H13.4823V11.52H16.9023L21.0623 21.54H21.1623V11.52H23.7223V26H20.4823L16.1623 15.76H16.0623V26ZM41.627 26H38.547V11.52H44.127C45.367 11.52 46.3337 11.74 47.027 12.18C47.7337 12.6067 48.227 13.16 48.507 13.84C48.8004 14.52 48.947 15.2467 48.947 16.02C48.947 17.7533 48.487 19.0533 47.567 19.92C46.647 20.7733 45.3137 21.2 43.567 21.2H41.627V26ZM41.627 13.88V18.86H43.367C43.7537 18.86 44.1337 18.7933 44.507 18.66C44.8804 18.5133 45.187 18.2533 45.427 17.88C45.667 17.5067 45.787 16.96 45.787 16.24C45.787 15.5733 45.667 15.0733 45.427 14.74C45.187 14.3933 44.8737 14.1667 44.487 14.06C44.1004 13.94 43.6737 13.88 43.207 13.88H41.627ZM53.6094 11.52H57.6694L61.6294 26H58.2694L57.4494 22.42H53.9494L53.1894 26H50.0094L53.6094 11.52ZM56.9694 20.02L55.6494 14.14H55.5894L54.3494 20.02H56.9694ZM66.4117 26H63.3517V11.52H68.6517C69.5584 11.52 70.3117 11.6533 70.9117 11.92C71.5117 12.1733 71.9851 12.5133 72.3317 12.94C72.6784 13.3667 72.9184 13.84 73.0517 14.36C73.1984 14.88 73.2717 15.4067 73.2717 15.94C73.2717 16.9933 73.0784 17.9133 72.6917 18.7C72.3051 19.4867 71.6917 20.0733 70.8517 20.46L73.9717 26H70.6317L68.0917 21H66.4117V26ZM66.4117 13.88V18.68H67.9517C68.3117 18.68 68.6517 18.6133 68.9717 18.48C69.3051 18.3467 69.5717 18.1 69.7717 17.74C69.9851 17.3667 70.0917 16.84 70.0917 16.16C70.0917 15.5067 69.9851 15.02 69.7717 14.7C69.5717 14.38 69.2984 14.1667 68.9517 14.06C68.6051 13.94 68.2184 13.88 67.7917 13.88H66.4117ZM82.1741 26H79.0941V14.04H75.0341V11.52H86.1941V14.04H82.1741V26ZM90.4764 26H87.8964V11.52H91.3164L95.4764 21.54H95.5764V11.52H98.1364V26H94.8964L90.5764 15.76H90.4764V26ZM100.879 11.52H109.879V13.96H103.959V17.56H109.479V19.96H103.959V23.56H110.239V26H100.879V11.52ZM116.021 26H112.961V11.52H118.261C119.168 11.52 119.921 11.6533 120.521 11.92C121.121 12.1733 121.594 12.5133 121.941 12.94C122.288 13.3667 122.528 13.84 122.661 14.36C122.808 14.88 122.881 15.4067 122.881 15.94C122.881 16.9933 122.688 17.9133 122.301 18.7C121.914 19.4867 121.301 20.0733 120.461 20.46L123.581 26H120.241L117.701 21H116.021V26ZM116.021 13.88V18.68H117.561C117.921 18.68 118.261 18.6133 118.581 18.48C118.914 18.3467 119.181 18.1 119.381 17.74C119.594 17.3667 119.701 16.84 119.701 16.16C119.701 15.5067 119.594 15.02 119.381 14.7C119.181 14.38 118.908 14.1667 118.561 14.06C118.214 13.94 117.828 13.88 117.401 13.88H116.021ZM130.103 26.24C129.49 26.24 128.883 26.18 128.283 26.06C127.683 25.94 127.137 25.7267 126.643 25.42C126.163 25.1 125.763 24.6467 125.443 24.06C125.123 23.46 124.93 22.6933 124.863 21.76L127.543 21.36C127.623 21.8667 127.737 22.32 127.883 22.72C128.043 23.1067 128.297 23.4133 128.643 23.64C129.003 23.8533 129.517 23.96 130.183 23.96C130.81 23.96 131.337 23.8267 131.763 23.56C132.203 23.28 132.423 22.7933 132.423 22.1C132.423 21.6333 132.297 21.2667 132.043 21C131.79 20.7333 131.45 20.52 131.023 20.36C130.61 20.2 130.157 20.0533 129.663 19.92C129.17 19.7867 128.67 19.6333 128.163 19.46C127.657 19.2867 127.19 19.0533 126.763 18.76C126.35 18.4533 126.01 18.0467 125.743 17.54C125.49 17.0333 125.363 16.3867 125.363 15.6C125.363 14.6667 125.577 13.88 126.003 13.24C126.443 12.5867 127.037 12.0933 127.783 11.76C128.53 11.4267 129.383 11.26 130.343 11.26C131.183 11.26 131.957 11.3733 132.663 11.6C133.37 11.8267 133.95 12.24 134.403 12.84C134.87 13.44 135.137 14.3067 135.203 15.44L132.503 15.76C132.463 15.28 132.377 14.88 132.243 14.56C132.123 14.2267 131.917 13.9733 131.623 13.8C131.33 13.6267 130.897 13.54 130.323 13.54C129.617 13.54 129.09 13.6867 128.743 13.98C128.41 14.2733 128.243 14.6733 128.243 15.18C128.243 15.6333 128.37 15.9933 128.623 16.26C128.89 16.5133 129.237 16.72 129.663 16.88C130.09 17.04 130.55 17.1933 131.043 17.34C131.537 17.4867 132.037 17.6533 132.543 17.84C133.05 18.0267 133.51 18.2733 133.923 18.58C134.35 18.8867 134.69 19.2933 134.943 19.8C135.21 20.2933 135.343 20.92 135.343 21.68C135.343 22.76 135.097 23.64 134.603 24.32C134.123 24.9867 133.483 25.4733 132.683 25.78C131.897 26.0867 131.037 26.24 130.103 26.24ZM137.646 11.52H140.746V17.42H144.506V11.52H147.606V26H144.506V20H140.746V26H137.646V11.52ZM159.648 11.52V13.76H156.588V23.76H159.648V26H150.408V23.76H153.508V13.76H150.408V11.52H159.648ZM165.65 26H162.57V11.52H168.15C169.39 11.52 170.357 11.74 171.05 12.18C171.757 12.6067 172.25 13.16 172.53 13.84C172.824 14.52 172.97 15.2467 172.97 16.02C172.97 17.7533 172.51 19.0533 171.59 19.92C170.67 20.7733 169.337 21.2 167.59 21.2H165.65V26ZM165.65 13.88V18.86H167.39C167.777 18.86 168.157 18.7933 168.53 18.66C168.904 18.5133 169.21 18.2533 169.45 17.88C169.69 17.5067 169.81 16.96 169.81 16.24C169.81 15.5733 169.69 15.0733 169.45 14.74C169.21 14.3933 168.897 14.1667 168.51 14.06C168.124 13.94 167.697 13.88 167.23 13.88H165.65ZM187.515 26L186.255 11.52H188.915L189.515 21.72H189.595L191.475 14.9H192.915L194.915 21.72H194.995L195.595 11.52H198.215L196.955 26H194.235L192.215 19.4H192.095L190.295 26H187.515ZM209.258 11.52V13.76H206.198V23.76H209.258V26H200.018V23.76H203.118V13.76H200.018V11.52H209.258ZM218.6 26H215.52V14.04H211.46V11.52H222.62V14.04H218.6V26ZM224.462 11.52H227.562V17.42H231.322V11.52H234.422V26H231.322V20H227.562V26H224.462V11.52ZM241.845 19.58C241.165 19.58 240.631 19.3933 240.245 19.02C239.871 18.6333 239.685 18.1067 239.685 17.44C239.685 16.76 239.871 16.24 240.245 15.88C240.631 15.5067 241.165 15.32 241.845 15.32C242.538 15.32 243.071 15.5067 243.445 15.88C243.818 16.24 244.005 16.76 244.005 17.44C244.005 18.1067 243.818 18.6333 243.445 19.02C243.071 19.3933 242.538 19.58 241.845 19.58ZM241.845 26.24C241.165 26.24 240.631 26.0533 240.245 25.68C239.871 25.2933 239.685 24.7667 239.685 24.1C239.685 23.42 239.871 22.9 240.245 22.54C240.631 22.1667 241.165 21.98 241.845 21.98C242.538 21.98 243.071 22.1667 243.445 22.54C243.818 22.9 244.005 23.42 244.005 24.1C244.005 24.7667 243.818 25.2933 243.445 25.68C243.071 26.0533 242.538 26.24 241.845 26.24Z" fill="#F6F6F6" style="fill:#F6F6F6;fill:color(display-p3 0.9647 0.9647 0.9647);fill-opacity:1;"/>
<g clip-path="url(#clip0_133_42)">
<path d="M295 19.0006C295 29.4941 286.493 38.0013 276 38.0013C265.507 38.0013 257 29.4941 257 19.0006C257 8.5072 265.507 0 276 0C286.493 0 295 8.5072 295 19.0006ZM292.884 19.0019C292.884 9.6788 285.325 2.12011 276.003 2.12011C266.68 2.12011 259.12 9.6788 259.12 19.0019C259.12 28.325 266.678 35.8837 276.001 35.8837C285.324 35.8837 292.883 28.3263 292.883 19.0019H292.884Z" fill="#F6F6F6" style="fill:#F6F6F6;fill:color(display-p3 0.9647 0.9647 0.9647);fill-opacity:1;"/>
<path d="M266.1 11.4917C267.719 11.3145 268.213 12.5371 269.405 13.0815C270.527 13.594 271.687 13.5965 272.832 13.1401C273.977 12.6837 274.446 11.5147 275.866 11.4573C277.489 11.3923 277.981 12.7016 279.233 13.1771C280.778 13.7635 282.011 13.4716 283.344 12.5843C283.694 12.3523 283.92 11.9927 284.332 11.7913C286.868 10.5483 289.386 13.4129 287.861 15.7013C286.882 17.1713 286.155 17.402 286.35 19.5438C286.531 21.5326 288.605 22.1598 288.233 24.3424C287.681 27.5831 282.446 27.0056 282.933 23.3658C283.125 21.9316 284.66 21.2814 284.827 19.5374C285.336 14.2544 278.064 13.2982 276.852 17.9222C276.034 21.0392 278.573 21.6065 278.714 23.6285C278.93 26.6907 274.41 27.6621 273.445 24.6904C272.569 21.9915 276.156 21.2011 275.072 17.7207C273.698 13.3071 266.626 14.3742 267.148 19.5387C267.371 21.7468 270.351 22.9413 268.524 25.4974C266.721 28.0217 262.13 25.463 264.196 22.1866C265.144 20.6848 265.843 20.5854 265.619 18.3964C265.418 16.4255 263.577 16.0009 263.712 13.9458C263.795 12.6939 264.854 11.6281 266.101 11.4917H266.1Z" fill="#F6F6F6" style="fill:#F6F6F6;fill:color(display-p3 0.9647 0.9647 0.9647);fill-opacity:1;"/>
</g>
<defs>
<clipPath id="clip0_133_42">
<rect width="38" height="38" fill="white" style="fill:white;fill-opacity:1;" transform="translate(257)"/>
</clipPath>
</defs>
</svg>
