<svg width="793" height="57" viewBox="0 0 793 57" fill="none" xmlns="http://www.w3.org/2000/svg">
<path d="M5.7 29H1.84V14.52H6.2C7.8 14.52 8.92 14.8333 9.56 15.46C10.2133 16.0867 10.54 16.9533 10.54 18.06C10.54 19.0333 10.26 19.8 9.7 20.36C9.14 20.92 8.41333 21.2867 7.52 21.46V21.5C9.85333 21.8067 11.02 23.0067 11.02 25.1C11.02 26.5 10.5533 27.5 9.62 28.1C8.7 28.7 7.39333 29 5.7 29ZM3.16 15.68V21.02H5.24C5.69333 21.02 6.12667 20.98 6.54 20.9C6.96667 20.82 7.38 20.68 7.78 20.48C8.19333 20.28 8.52 19.9867 8.76 19.6C9.01333 19.2133 9.14 18.7467 9.14 18.2C9.14 17.7333 9.08 17.3467 8.96 17.04C8.84 16.72 8.68 16.4733 8.48 16.3C8.29333 16.1133 8 15.98 7.6 15.9C7.2 15.8067 6.80667 15.7467 6.42 15.72C6.03333 15.6933 5.50667 15.68 4.84 15.68H3.16ZM3.16 22.18V27.82H5.6C6.10667 27.82 6.54 27.8067 6.9 27.78C7.26 27.74 7.62 27.6667 7.98 27.56C8.34 27.44 8.63333 27.28 8.86 27.08C9.08667 26.88 9.26667 26.6133 9.4 26.28C9.54667 25.9333 9.62 25.5267 9.62 25.06C9.62 24.5533 9.53333 24.12 9.36 23.76C9.18667 23.4 8.96667 23.12 8.7 22.92C8.44667 22.72 8.1 22.5667 7.66 22.46C7.23333 22.34 6.81333 22.2667 6.4 22.24C6 22.2 5.51333 22.18 4.94 22.18H3.16ZM19.3623 29H18.0223V23.32L12.9023 14.52H14.3423L18.6223 21.98H18.7223L22.9423 14.52H24.3023L19.3623 23.26V29Z" fill="#F1F1F1" style="fill:#F1F1F1;fill:color(display-p3 0.9451 0.9451 0.9451);fill-opacity:1;"/>
<path d="M50.0003 5.50933V0H87.6777V5.50933H72.4715V41.3099H65.3376V5.50933H50.0003Z" fill="#F1F1F1" style="fill:#F1F1F1;fill:color(display-p3 0.9451 0.9451 0.9451);fill-opacity:1;"/>
<path d="M103.176 10.1711C104.992 9.27303 107.051 8.82905 109.341 8.82905C113.388 8.82905 116.556 9.9289 118.857 12.1185C121.147 14.3081 122.297 17.5168 122.297 21.7245V41.32H115.285V22.9152C115.285 20.1202 114.558 17.981 113.095 16.4977C111.632 15.0144 109.634 14.2778 107.091 14.2778C104.377 14.2778 102.208 15.1254 100.583 16.8105C98.9584 18.4956 98.1411 20.9476 98.1411 24.1664V41.32H91.1283V0H98.1411V13.955H98.8272C99.917 12.3304 101.36 11.0691 103.176 10.1711Z" fill="#F1F1F1" style="fill:#F1F1F1;fill:color(display-p3 0.9451 0.9451 0.9451);fill-opacity:1;"/>
<path d="M129.614 37.3039C126.819 34.2163 125.416 30.2507 125.416 25.4074C125.416 22.1986 126.042 19.3431 127.293 16.8609C128.544 14.3786 130.421 12.4211 132.923 10.9782C135.426 9.53526 138.513 8.81885 142.186 8.81885C147.443 8.81885 151.419 10.2517 154.113 13.1072C156.807 15.9628 158.149 19.7971 158.149 24.5901C158.149 25.6294 158.109 26.366 158.028 26.7797H132.237C132.53 33.7521 135.91 37.2333 142.378 37.2333C144.961 37.2333 146.999 36.6985 148.483 35.639C149.966 34.5795 150.955 33.0861 151.459 31.169H158.159C157.574 34.297 156 36.8801 153.437 38.8982C150.874 40.9263 147.12 41.9354 142.196 41.9354C136.606 41.9354 132.409 40.3915 129.614 37.3039ZM151.459 22.5922C151.338 19.5449 150.47 17.2645 148.866 15.7408C147.262 14.2172 145.082 13.4503 142.328 13.4503C139.573 13.4503 137.151 14.2273 135.446 15.761C133.731 17.3048 132.711 19.5752 132.378 22.5821H151.469L151.459 22.5922Z" fill="#F1F1F1" style="fill:#F1F1F1;fill:color(display-p3 0.9451 0.9451 0.9451);fill-opacity:1;"/>
<path d="M177.887 1.99805V19.4644H201.236V1.99805H208.561V43.3079H201.236V24.9637H177.887V43.3079H170.561V1.99805H177.887Z" fill="#F1F1F1" style="fill:#F1F1F1;fill:color(display-p3 0.9451 0.9451 0.9451);fill-opacity:1;"/>
<path d="M230.055 42.6117C228.077 43.6106 225.625 44.1151 222.699 44.1151C219.571 44.1151 216.998 43.3281 215 41.7641C213.002 40.2001 211.993 37.9802 211.993 35.0944C211.993 32.5112 212.81 30.4427 214.435 28.8989C216.059 27.3551 218.753 26.2653 222.507 25.6397L230.458 24.328C232.214 24.0353 233.415 23.6418 234.091 23.1373C234.767 22.6328 235.09 21.8457 235.09 20.756C235.09 19.1718 234.515 17.9408 233.364 17.0629C232.214 16.1851 230.287 15.7512 227.572 15.7512C222.103 15.7512 219.369 17.8802 219.369 22.1384H212.669C212.669 18.6774 213.971 15.9429 216.584 13.9349C219.187 11.9269 222.83 10.928 227.502 10.928C232.174 10.928 235.584 11.826 237.865 13.6221C240.145 15.4182 241.295 17.9408 241.336 21.2L241.709 43.2978H235.574L235.382 38.6663H234.565C233.526 40.2909 232.012 41.6127 230.024 42.6117H230.055ZM224.707 39.4837C226.916 39.4837 228.813 39.0094 230.408 38.071C231.992 37.1326 233.183 35.8814 233.98 34.3174C234.777 32.7534 235.17 31.0986 235.17 29.3429V27.345L224.969 29.2218C222.961 29.5951 221.468 30.2207 220.459 31.0986C219.46 31.9764 218.955 33.1469 218.955 34.5999C218.955 37.8591 220.872 39.4837 224.717 39.4837H224.707Z" fill="#F1F1F1" style="fill:#F1F1F1;fill:color(display-p3 0.9451 0.9451 0.9451);fill-opacity:1;"/>
<path d="M247.114 18.96C248.406 16.4576 250.343 14.4698 252.936 13.0168C255.52 11.5537 258.698 10.8271 262.452 10.8271C267.456 10.8271 271.341 12.0279 274.096 14.4294C276.85 16.8309 278.374 19.9892 278.667 23.9143H271.906C271.533 21.2908 270.554 19.3333 268.96 18.0619C267.376 16.7905 265.267 16.1549 262.633 16.1549C259.293 16.1549 256.72 17.0731 254.904 18.9095C253.088 20.746 252.18 23.6015 252.18 27.4863C252.18 31.3711 253.057 34.0955 254.813 35.9319C256.569 37.7684 259.071 38.6866 262.32 38.6866C265.196 38.6866 267.466 37.9803 269.111 36.5575C270.756 35.1348 271.735 33.1167 272.017 30.4831H278.778C278.657 33.0663 277.95 35.377 276.679 37.395C275.408 39.4232 273.571 41.0175 271.17 42.1779C268.768 43.3483 265.862 43.9336 262.441 43.9336C258.688 43.9336 255.499 43.2172 252.896 41.7742C250.283 40.3313 248.345 38.3738 247.074 35.8916C245.803 33.4093 245.167 30.6042 245.167 27.4762C245.167 24.3482 245.813 21.4624 247.104 18.96H247.114Z" fill="#F1F1F1" style="fill:#F1F1F1;fill:color(display-p3 0.9451 0.9451 0.9451);fill-opacity:1;"/>
<path d="M289.172 35.2254V43.2977H282.219V1.98779H289.172V27.2742L305.76 11.5635H314.216L299.444 25.5891L314.902 43.2977H306.577L295.064 29.6555L289.182 35.2254H289.172Z" fill="#F1F1F1" style="fill:#F1F1F1;fill:color(display-p3 0.9451 0.9451 0.9451);fill-opacity:1;"/>
<path d="M333.266 42.6117C331.288 43.6106 328.836 44.1151 325.91 44.1151C322.782 44.1151 320.209 43.3281 318.211 41.7641C316.213 40.2001 315.204 37.9802 315.204 35.0944C315.204 32.5112 316.022 30.4427 317.646 28.8989C319.271 27.3551 321.965 26.2653 325.719 25.6397L333.67 24.328C335.425 24.0353 336.626 23.6418 337.302 23.1373C337.978 22.6328 338.301 21.8457 338.301 20.756C338.301 19.1718 337.726 17.9408 336.576 17.0629C335.425 16.1851 333.498 15.7512 330.784 15.7512C325.315 15.7512 322.58 17.8802 322.58 22.1384H315.88C315.88 18.6774 317.182 15.9429 319.796 13.9349C322.399 11.9269 326.041 10.928 330.713 10.928C335.385 10.928 338.796 11.826 341.076 13.6221C343.357 15.4182 344.507 17.9408 344.547 21.2L344.921 43.2978H338.786L338.594 38.6663H337.777C336.737 40.2909 335.224 41.6127 333.236 42.6117H333.266ZM327.918 39.4837C330.128 39.4837 332.025 39.0094 333.619 38.071C335.204 37.1326 336.394 35.8814 337.191 34.3174C337.988 32.7534 338.382 31.0986 338.382 29.3429V27.345L328.181 29.2218C326.173 29.5951 324.679 30.2207 323.67 31.0986C322.671 31.9764 322.167 33.1469 322.167 34.5999C322.167 37.8591 324.084 39.4837 327.928 39.4837H327.918Z" fill="#F1F1F1" style="fill:#F1F1F1;fill:color(display-p3 0.9451 0.9451 0.9451);fill-opacity:1;"/>
<path d="M346.505 16.6993L346.565 11.5633H355.263V10.8772L353.195 10.0599C352.196 9.64618 351.691 8.8894 351.691 7.80973V1.6748H359.764V11.5028L369.965 11.5633V16.6993H359.703V37.9799H370.722V43.2975H361.085C357.957 43.2975 355.798 42.7022 354.607 41.5115C353.417 40.3208 352.821 38.3734 352.821 35.6591V16.6892H346.495L346.505 16.6993Z" fill="#F1F1F1" style="fill:#F1F1F1;fill:color(display-p3 0.9451 0.9451 0.9451);fill-opacity:1;"/>
<path d="M386.221 12.169C388.037 11.271 390.095 10.827 392.386 10.827C396.432 10.827 399.601 11.9269 401.901 14.1165C404.192 16.3061 405.342 19.5148 405.342 23.7225V43.3179H398.329V24.9131C398.329 22.1181 397.603 19.979 396.14 18.4957C394.676 17.0124 392.679 16.2758 390.136 16.2758C387.421 16.2758 385.252 17.1234 383.628 18.8085C382.003 20.4936 381.186 22.9455 381.186 26.1643V43.3179H374.173V2.00806H381.186V15.963H381.872C382.962 14.3385 384.404 13.0772 386.221 12.1791V12.169Z" fill="#F1F1F1" style="fill:#F1F1F1;fill:color(display-p3 0.9451 0.9451 0.9451);fill-opacity:1;"/>
<path d="M416.208 41.7742C413.595 40.3313 411.657 38.3738 410.386 35.8916C409.115 33.4093 408.479 30.6042 408.479 27.4762C408.479 24.3482 409.115 21.4624 410.386 18.96C411.657 16.4576 413.595 14.4698 416.208 13.0168C418.811 11.5537 422.06 10.8271 425.945 10.8271C429.83 10.8271 433.059 11.5537 435.642 13.0168C438.225 14.4799 440.163 16.4676 441.434 18.9902C442.705 21.5128 443.341 24.3381 443.341 27.4762C443.341 30.6143 442.705 33.3488 441.434 35.831C440.163 38.3133 438.235 40.2809 435.642 41.744C433.059 43.2071 429.82 43.9336 425.945 43.9336C422.071 43.9336 418.821 43.2172 416.208 41.7742ZM418.176 35.7907C419.972 37.6675 422.555 38.6059 425.935 38.6059C429.315 38.6059 431.848 37.6675 433.664 35.7907C435.481 33.9139 436.389 31.139 436.389 27.4661C436.389 23.7932 435.481 20.9881 433.664 19.0508C431.848 17.1134 429.275 16.1448 425.935 16.1448C422.595 16.1448 419.972 17.1033 418.176 19.0205C416.38 20.9377 415.482 23.7529 415.482 27.4661C415.482 31.1794 416.38 33.9139 418.176 35.7907Z" fill="#F1F1F1" style="fill:#F1F1F1;fill:color(display-p3 0.9451 0.9451 0.9451);fill-opacity:1;"/>
<path d="M458.771 12.1692C460.547 11.2711 462.595 10.8271 464.936 10.8271C468.982 10.8271 472.131 11.927 474.391 14.1166C476.641 16.3062 477.771 19.5149 477.771 23.7226V43.3181H470.89V24.9133C470.89 22.1182 470.163 19.9791 468.7 18.4958C467.237 17.0125 465.239 16.2759 462.686 16.2759C459.931 16.2759 457.752 17.1235 456.148 18.8086C454.543 20.4937 453.736 22.9457 453.736 26.1645V43.3181H446.784V11.5839H453.736V15.9631H454.422C455.552 14.3386 456.995 13.0773 458.771 12.1793V12.1692Z" fill="#F1F1F1" style="fill:#F1F1F1;fill:color(display-p3 0.9451 0.9451 0.9451);fill-opacity:1;"/>
<path d="M527.032 40.321C523.551 43.1564 518.526 44.5792 511.978 44.5792C507.094 44.5792 503.007 43.6609 499.708 41.8245C496.408 39.988 493.956 37.4554 492.352 34.2164C490.748 30.9875 489.94 27.2843 489.94 23.1069C489.94 18.9295 490.748 15.5089 492.352 12.3405C493.956 9.17213 496.418 6.65963 499.738 4.803C503.058 2.94638 507.134 2.01807 511.978 2.01807C518.274 2.01807 523.158 3.34999 526.629 6.02394C530.09 8.69788 532.219 12.5322 533.016 17.537H525.69C525.065 14.1971 523.622 11.7149 521.372 10.0903C519.122 8.4658 516.034 7.64848 512.109 7.64848C507.356 7.64848 503.724 8.96023 501.221 11.5938C498.719 14.2274 497.468 18.0617 497.468 23.1069C497.468 28.1521 498.689 32.2689 501.131 34.9328C503.572 37.6067 507.175 38.9386 511.927 38.9386C520.191 38.9386 524.843 35.3061 525.882 28.0512H533.268C532.602 33.389 530.524 37.4856 527.043 40.321H527.032Z" fill="#F1F1F1" style="fill:#F1F1F1;fill:color(display-p3 0.9451 0.9451 0.9451);fill-opacity:1;"/>
<path d="M544.439 42.4097C541.826 40.9668 539.889 39.0093 538.617 36.5271C537.346 34.0448 536.71 31.2397 536.71 28.1117C536.71 24.9837 537.346 22.0979 538.617 19.5955C539.889 17.0931 541.826 15.1053 544.439 13.6523C547.043 12.1891 550.292 11.4626 554.177 11.4626C558.061 11.4626 561.29 12.1891 563.873 13.6523C566.456 15.1154 568.394 17.1031 569.665 19.6257C570.937 22.1483 571.572 24.9736 571.572 28.1117C571.572 31.2498 570.937 33.9843 569.665 36.4665C568.394 38.9488 566.467 40.9164 563.873 42.3795C561.29 43.8426 558.051 44.5691 554.177 44.5691C550.302 44.5691 547.053 43.8527 544.439 42.4097ZM546.407 36.4363C548.203 38.3131 550.786 39.2515 554.166 39.2515C557.547 39.2515 560.079 38.3131 561.896 36.4363C563.712 34.5595 564.62 31.7846 564.62 28.1117C564.62 24.4388 563.712 21.6337 561.896 19.6964C560.079 17.759 557.506 16.7903 554.166 16.7903C550.827 16.7903 548.203 17.7489 546.407 19.6661C544.611 21.5833 543.713 24.3985 543.713 28.1117C543.713 31.825 544.611 34.5595 546.407 36.4363Z" fill="#F1F1F1" style="fill:#F1F1F1;fill:color(display-p3 0.9451 0.9451 0.9451);fill-opacity:1;"/>
<path d="M575.011 12.2093H582.024V16.4069H582.71C583.8 14.8227 585.202 13.6018 586.938 12.7441C588.673 11.8864 590.641 11.4626 592.851 11.4626C595.394 11.4626 597.674 11.9369 599.672 12.8753C601.67 13.8137 603.173 15.1759 604.182 16.972H605C607.29 13.2991 610.842 11.4626 615.645 11.4626C619.732 11.4626 622.981 12.5726 625.382 14.7824C627.784 16.9922 628.984 20.1908 628.984 24.3581V43.9536H621.972V25.1149C621.972 22.4914 621.215 20.4632 619.691 19.0405C618.168 17.6279 616.149 16.9114 613.647 16.9114C611.599 16.9114 609.853 17.4462 608.39 18.5057C606.927 19.5652 605.988 21.0586 605.575 22.9757V43.9435H598.693V24.792C598.693 22.1685 597.987 20.1908 596.564 18.8791C595.141 17.5673 593.184 16.9114 590.681 16.9114C588.007 16.9114 585.899 17.7288 584.355 19.3533C582.811 20.9779 582.034 23.3592 582.034 26.4872V43.9536H575.021V12.2194L575.011 12.2093Z" fill="#F1F1F1" style="fill:#F1F1F1;fill:color(display-p3 0.9451 0.9451 0.9451);fill-opacity:1;"/>
<path d="M632.406 12.2093H639.359V16.528H640.176C642.598 13.1477 646.392 11.4626 651.568 11.4626C656.744 11.4626 660.246 12.9661 662.839 15.973C665.422 18.98 666.724 22.9656 666.724 27.9301C666.724 32.8946 665.422 36.9105 662.809 39.978C660.195 43.0454 656.452 44.5792 651.568 44.5792C646.311 44.5792 642.497 42.8234 640.115 39.3221H639.369V54.7805H632.416V12.2194L632.406 12.2093ZM642.174 36.2445C644.051 38.2424 646.573 39.2515 649.752 39.2515C652.93 39.2515 655.372 38.2929 657.108 36.3757C658.843 34.4586 659.701 31.6433 659.701 27.9301C659.701 24.2169 658.823 21.4723 657.077 19.5753C655.322 17.6783 652.839 16.7298 649.631 16.7298C646.422 16.7298 644.01 17.7086 642.154 19.6762C640.297 21.6337 639.369 24.3682 639.369 27.8696C639.369 31.3709 640.307 34.2567 642.184 36.2546L642.174 36.2445Z" fill="#F1F1F1" style="fill:#F1F1F1;fill:color(display-p3 0.9451 0.9451 0.9451);fill-opacity:1;"/>
<path d="M687.58 43.2574C685.602 44.2564 683.151 44.7609 680.224 44.7609C677.096 44.7609 674.523 43.9738 672.525 42.4098C670.527 40.8458 669.518 38.6259 669.518 35.7401C669.518 33.157 670.336 31.0885 671.96 29.5446C673.585 28.0008 676.279 26.9111 680.033 26.2855L687.984 24.9737C689.74 24.6811 690.94 24.2876 691.616 23.7831C692.292 23.2785 692.615 22.4915 692.615 21.4017C692.615 19.8175 692.04 18.5865 690.89 17.7087C689.739 16.8308 687.812 16.3969 685.098 16.3969C679.629 16.3969 676.894 18.526 676.894 22.7841H670.194C670.194 19.3231 671.496 16.5886 674.11 14.5806C676.713 12.5727 680.355 11.5737 685.027 11.5737C689.699 11.5737 693.11 12.4718 695.39 14.2679C697.671 16.0639 698.821 18.5865 698.861 21.8457L699.235 43.9436H693.1L692.908 39.3121H692.091C691.051 40.9366 689.538 42.2585 687.55 43.2574H687.58ZM682.232 40.1294C684.442 40.1294 686.339 39.6552 687.933 38.7168C689.518 37.7784 690.708 36.5272 691.505 34.9632C692.302 33.3992 692.696 31.7443 692.696 29.9886V27.9907L682.495 29.8675C680.487 30.2409 678.993 30.8665 677.984 31.7443C676.985 32.6222 676.481 33.7927 676.481 35.2457C676.481 38.5049 678.398 40.1294 682.242 40.1294H682.232Z" fill="#F1F1F1" style="fill:#F1F1F1;fill:color(display-p3 0.9451 0.9451 0.9451);fill-opacity:1;"/>
<path d="M714.682 12.8047C716.458 11.9066 718.507 11.4626 720.848 11.4626C724.894 11.4626 728.042 12.5625 730.302 14.7521C732.552 16.9417 733.682 20.1504 733.682 24.3581V43.9536H726.801V25.5488C726.801 22.7538 726.074 20.6146 724.611 19.1313C723.148 17.648 721.15 16.9114 718.597 16.9114C715.843 16.9114 713.663 17.759 712.059 19.4441C710.454 21.1292 709.647 23.5812 709.647 26.8V43.9536H702.695V12.2194H709.647V16.5986H710.333C711.463 14.9741 712.906 13.7128 714.682 12.8147V12.8047Z" fill="#F1F1F1" style="fill:#F1F1F1;fill:color(display-p3 0.9451 0.9451 0.9451);fill-opacity:1;"/>
<path d="M739.313 48.0804L743.379 49.7655C743.924 49.9774 744.398 50.0783 744.822 50.0783C745.74 50.0783 746.406 49.6444 746.82 48.7666L749.141 43.57L734.934 12.2092H742.199L752.652 37.5562L763.61 12.2092H770.684L752.652 51.0167C751.855 52.6412 750.826 53.8824 749.554 54.74C748.283 55.5977 746.81 56.0215 745.145 56.0215C743.349 56.0215 741.412 55.517 739.323 54.518L736.881 53.4485L739.323 48.0703L739.313 48.0804Z" fill="#F1F1F1" style="fill:#F1F1F1;fill:color(display-p3 0.9451 0.9451 0.9451);fill-opacity:1;"/>
<path d="M782.027 24.2515C780.977 23.6805 780.151 22.8953 779.549 21.8959C778.948 20.8966 778.632 19.7749 778.632 18.5105C778.632 17.246 778.937 16.1549 779.56 15.1556C780.182 14.1563 781.008 13.3711 782.058 12.7899C783.108 12.2086 784.24 11.9231 785.484 11.9231C786.728 11.9231 787.891 12.2086 788.941 12.7899C789.991 13.3711 790.817 14.1563 791.439 15.1556C792.061 16.1549 792.367 17.2766 792.367 18.5105C792.367 19.7443 792.061 20.8966 791.439 21.8959C790.817 22.8953 789.991 23.6805 788.941 24.2515C787.891 24.8225 786.738 25.1081 785.484 25.1081C784.23 25.1081 783.078 24.8225 782.027 24.2515ZM780.783 21.1821C781.273 21.9877 781.925 22.6301 782.751 23.0992C783.577 23.5683 784.495 23.8028 785.504 23.8028C786.514 23.8028 787.411 23.5683 788.248 23.0992C789.084 22.6301 789.746 21.9979 790.236 21.1821C790.725 20.3664 790.96 19.4792 790.96 18.5105C790.96 17.5418 790.715 16.624 790.236 15.8184C789.746 15.0128 789.094 14.3704 788.248 13.9014C787.411 13.4323 786.494 13.1977 785.504 13.1977C784.515 13.1977 783.577 13.4323 782.751 13.9014C781.925 14.3704 781.262 15.0027 780.783 15.8184C780.294 16.624 780.059 17.5214 780.059 18.5105C780.059 19.4996 780.304 20.3664 780.783 21.1821ZM782.823 15.0332H786.249C786.993 15.0332 787.554 15.1964 787.931 15.5329C788.309 15.8694 788.502 16.3385 788.502 16.9401C788.502 17.3378 788.4 17.6743 788.207 17.9496C788.003 18.225 787.727 18.4187 787.36 18.5309V18.6124C787.707 18.7042 787.952 18.8776 788.105 19.1121C788.258 19.3466 788.319 19.6832 788.309 20.1012V20.815C788.309 21.1821 788.37 21.6002 788.482 22.0693H787.197C787.116 21.7124 787.085 21.2943 787.085 20.815V20.1318C787.085 19.4486 786.698 19.1019 785.912 19.1019H784.118V22.0693H782.833V15.023L782.823 15.0332ZM785.963 18.0924C786.8 18.0924 787.218 17.7559 787.218 17.0931C787.218 16.7362 787.126 16.4812 786.942 16.3385C786.759 16.1957 786.473 16.1243 786.076 16.1243H784.107V18.0924H785.963Z" fill="#F1F1F1" style="fill:#F1F1F1;fill:color(display-p3 0.9451 0.9451 0.9451);fill-opacity:1;"/>
</svg>
