<svg width="374" height="29" viewBox="0 0 374 29" fill="none" xmlns="http://www.w3.org/2000/svg">
<path d="M0 2.77211V0H18.958V2.77211H11.3068V20.7857H7.71723V2.77211H0Z" fill="#4C4C4C" style="fill:#4C4C4C;fill:color(display-p3 0.2980 0.2980 0.2980);fill-opacity:1;"/>
<path d="M26.7559 5.11774C27.6698 4.66588 28.7055 4.44248 29.8581 4.44248C31.894 4.44248 33.4882 4.99589 34.6458 6.09762C35.7983 7.19936 36.3771 8.81389 36.3771 10.931V20.7908H32.8485V11.5301C32.8485 10.1238 32.4829 9.04743 31.7467 8.3011C31.0106 7.55476 30.0053 7.18413 28.7259 7.18413C27.3601 7.18413 26.2685 7.61061 25.4511 8.45849C24.6337 9.30637 24.2224 10.5401 24.2224 12.1597V20.7908H20.6938V0H24.2224V7.02166H24.5677C25.116 6.20424 25.8421 5.5696 26.7559 5.11774Z" fill="#4C4C4C" style="fill:#4C4C4C;fill:color(display-p3 0.2980 0.2980 0.2980);fill-opacity:1;"/>
<path d="M40.0589 18.7702C38.6525 17.2166 37.9468 15.2213 37.9468 12.7843C37.9468 11.1698 38.2616 9.73294 38.8911 8.48397C39.5207 7.23499 40.465 6.25003 41.7242 5.524C42.9833 4.79798 44.5369 4.4375 46.385 4.4375C49.0301 4.4375 51.0305 5.15845 52.3861 6.59528C53.7417 8.0321 54.417 9.96141 54.417 12.373C54.417 12.896 54.3967 13.2666 54.356 13.4748H41.3789C41.5262 16.9831 43.227 18.7347 46.4814 18.7347C47.7812 18.7347 48.8067 18.4656 49.5531 17.9325C50.2994 17.3994 50.797 16.648 51.0508 15.6833H54.422C54.1276 17.2572 53.3355 18.557 52.0459 19.5724C50.7564 20.5929 48.8677 21.1006 46.39 21.1006C43.5773 21.1006 41.4652 20.3238 40.0589 18.7702ZM51.0508 11.3678C50.9899 9.83448 50.5533 8.68705 49.746 7.92041C48.9388 7.15376 47.8421 6.7679 46.456 6.7679C45.07 6.7679 43.8515 7.15884 42.9934 7.93056C42.1303 8.70736 41.6175 9.84971 41.45 11.3627H51.0559L51.0508 11.3678Z" fill="#4C4C4C" style="fill:#4C4C4C;fill:color(display-p3 0.2980 0.2980 0.2980);fill-opacity:1;"/>
<path d="M64.3486 1.00586V9.79436H76.0971V1.00586H79.783V21.7916H76.0971V12.5614H64.3486V21.7916H60.6626V1.00586H64.3486Z" fill="#F1F1F1" style="fill:#F1F1F1;fill:color(display-p3 0.9451 0.9451 0.9451);fill-opacity:1;"/>
<path d="M90.5978 21.4402C89.6027 21.9428 88.369 22.1967 86.8966 22.1967C85.3227 22.1967 84.028 21.8007 83.0227 21.0137C82.0175 20.2268 81.5098 19.1098 81.5098 17.6578C81.5098 16.358 81.921 15.3172 82.7384 14.5404C83.5558 13.7636 84.9114 13.2153 86.8001 12.9005L90.8009 12.2405C91.6843 12.0932 92.2885 11.8952 92.6287 11.6414C92.9688 11.3875 93.1313 10.9915 93.1313 10.4432C93.1313 9.64605 92.8419 9.02665 92.2631 8.58494C91.6843 8.14323 90.7146 7.92491 89.3488 7.92491C86.597 7.92491 85.2211 8.99618 85.2211 11.1387H81.8499C81.8499 9.39728 82.5049 8.02137 83.8199 7.01103C85.1298 6.00068 86.9626 5.49805 89.3133 5.49805C91.664 5.49805 93.3801 5.94991 94.5275 6.85364C95.6749 7.75737 96.2537 9.02665 96.274 10.6666L96.4619 21.7855H93.375L93.2785 19.4551H92.8673C92.3443 20.2725 91.5828 20.9376 90.5826 21.4402H90.5978ZM87.9069 19.8663C89.0188 19.8663 89.9733 19.6277 90.7755 19.1555C91.5726 18.6833 92.1717 18.0538 92.5728 17.2668C92.9739 16.4799 93.1719 15.6472 93.1719 14.7638V13.7585L88.0389 14.7029C87.0286 14.8907 86.2772 15.2055 85.7695 15.6472C85.2668 16.0889 85.013 16.6779 85.013 17.409C85.013 19.0489 85.9776 19.8663 87.912 19.8663H87.9069Z" fill="#F1F1F1" style="fill:#F1F1F1;fill:color(display-p3 0.9451 0.9451 0.9451);fill-opacity:1;"/>
<path d="M99.1815 9.53943C99.8314 8.2803 100.806 7.28011 102.111 6.549C103.411 5.81282 105.01 5.44727 106.899 5.44727C109.417 5.44727 111.372 6.05144 112.758 7.2598C114.144 8.46815 114.91 10.0573 115.058 12.0323H111.656C111.468 10.7122 110.976 9.72728 110.174 9.08756C109.376 8.44785 108.315 8.12799 106.99 8.12799C105.31 8.12799 104.015 8.59 103.101 9.51404C102.187 10.4381 101.73 11.8749 101.73 13.8296C101.73 15.7843 102.172 17.1551 103.055 18.0791C103.939 19.0032 105.198 19.4652 106.833 19.4652C108.28 19.4652 109.422 19.1098 110.25 18.3939C111.077 17.6781 111.57 16.6626 111.712 15.3375H115.114C115.053 16.6372 114.697 17.7999 114.058 18.8153C113.418 19.8358 112.494 20.638 111.285 21.2219C110.077 21.8108 108.615 22.1053 106.894 22.1053C105.005 22.1053 103.401 21.7448 102.091 21.0188C100.776 20.2928 99.801 19.3078 99.1612 18.0588C98.5215 16.8099 98.2017 15.3984 98.2017 13.8245C98.2017 12.2506 98.5266 10.7986 99.1765 9.53943H99.1815Z" fill="#F1F1F1" style="fill:#F1F1F1;fill:color(display-p3 0.9451 0.9451 0.9451);fill-opacity:1;"/>
<path d="M120.343 17.724V21.7857H116.845V1H120.343V13.7233L128.69 5.81819H132.945L125.512 12.8754L133.29 21.7857H129.101L123.308 14.9215L120.348 17.724H120.343Z" fill="#F1F1F1" style="fill:#F1F1F1;fill:color(display-p3 0.9451 0.9451 0.9451);fill-opacity:1;"/>
<path d="M142.53 21.4402C141.535 21.9428 140.302 22.1967 138.829 22.1967C137.255 22.1967 135.961 21.8007 134.955 21.0137C133.95 20.2268 133.442 19.1098 133.442 17.6578C133.442 16.358 133.854 15.3172 134.671 14.5404C135.488 13.7636 136.844 13.2153 138.733 12.9005L142.734 12.2405C143.617 12.0932 144.221 11.8952 144.561 11.6414C144.901 11.3875 145.064 10.9915 145.064 10.4432C145.064 9.64605 144.775 9.02665 144.196 8.58494C143.617 8.14323 142.647 7.92491 141.281 7.92491C138.53 7.92491 137.154 8.99618 137.154 11.1387H133.783C133.783 9.39728 134.438 8.02137 135.752 7.01103C137.062 6.00068 138.895 5.49805 141.246 5.49805C143.597 5.49805 145.313 5.94991 146.46 6.85364C147.608 7.75737 148.186 9.02665 148.207 10.6666L148.395 21.7855H145.308L145.211 19.4551H144.8C144.277 20.2725 143.515 20.9376 142.515 21.4402H142.53ZM139.84 19.8663C140.951 19.8663 141.906 19.6277 142.708 19.1555C143.505 18.6833 144.104 18.0538 144.505 17.2668C144.907 16.4799 145.105 15.6472 145.105 14.7638V13.7585L139.972 14.7029C138.961 14.8907 138.21 15.2055 137.702 15.6472C137.199 16.0889 136.946 16.6779 136.946 17.409C136.946 19.0489 137.91 19.8663 139.845 19.8663H139.84Z" fill="#F1F1F1" style="fill:#F1F1F1;fill:color(display-p3 0.9451 0.9451 0.9451);fill-opacity:1;"/>
<path d="M149.192 8.40164L149.222 5.81738H153.599V5.47213L152.558 5.06089C152.055 4.85273 151.801 4.47194 151.801 3.92869V0.841797H155.863V5.78692L160.996 5.81738V8.40164H155.832V19.1093H161.377V21.7849H156.528C154.954 21.7849 153.868 21.4854 153.269 20.8863C152.669 20.2872 152.37 19.3073 152.37 17.9415V8.39656H149.187L149.192 8.40164Z" fill="#F1F1F1" style="fill:#F1F1F1;fill:color(display-p3 0.9451 0.9451 0.9451);fill-opacity:1;"/>
<path d="M169.175 6.12243C170.089 5.67056 171.125 5.44717 172.277 5.44717C174.313 5.44717 175.908 6.00058 177.065 7.10231C178.218 8.20405 178.797 9.81857 178.797 11.9357V21.7955H175.268V12.5348C175.268 11.1285 174.902 10.0521 174.166 9.30579C173.43 8.55945 172.425 8.18882 171.145 8.18882C169.78 8.18882 168.688 8.6153 167.871 9.46318C167.053 10.3111 166.642 11.5448 166.642 13.1644V21.7955H163.113V1.00977H166.642V8.03143H166.987C167.535 7.21401 168.261 6.57937 169.175 6.12751V6.12243Z" fill="#F1F1F1" style="fill:#F1F1F1;fill:color(display-p3 0.9451 0.9451 0.9451);fill-opacity:1;"/>
<path d="M184.264 21.0188C182.949 20.2928 181.974 19.3078 181.334 18.0588C180.694 16.8099 180.375 15.3984 180.375 13.8245C180.375 12.2506 180.694 10.7986 181.334 9.53943C181.974 8.2803 182.949 7.28011 184.264 6.549C185.573 5.81282 187.208 5.44727 189.163 5.44727C191.118 5.44727 192.742 5.81282 194.042 6.549C195.342 7.28518 196.317 8.28538 196.956 9.55466C197.596 10.8239 197.916 12.2455 197.916 13.8245C197.916 15.4035 197.596 16.7794 196.956 18.0284C196.317 19.2774 195.347 20.2674 194.042 21.0036C192.742 21.7398 191.113 22.1053 189.163 22.1053C187.213 22.1053 185.579 21.7448 184.264 21.0188ZM185.254 18.0081C186.157 18.9524 187.457 19.4246 189.158 19.4246C190.859 19.4246 192.133 18.9524 193.047 18.0081C193.961 17.0637 194.418 15.6675 194.418 13.8194C194.418 11.9714 193.961 10.5599 193.047 9.58512C192.133 8.61031 190.838 8.12291 189.158 8.12291C187.477 8.12291 186.157 8.60523 185.254 9.56989C184.35 10.5345 183.898 11.9511 183.898 13.8194C183.898 15.6878 184.35 17.0637 185.254 18.0081Z" fill="#F1F1F1" style="fill:#F1F1F1;fill:color(display-p3 0.9451 0.9451 0.9451);fill-opacity:1;"/>
<path d="M205.68 6.12252C206.574 5.67066 207.604 5.44727 208.782 5.44727C210.818 5.44727 212.402 6.00067 213.539 7.1024C214.672 8.20414 215.24 9.81867 215.24 11.9358V21.7956H211.778V12.5349C211.778 11.1286 211.412 10.0522 210.676 9.30588C209.94 8.55954 208.934 8.18891 207.65 8.18891C206.264 8.18891 205.167 8.61539 204.36 9.46327C203.553 10.3111 203.147 11.5449 203.147 13.1645V21.7956H199.648V5.82805H203.147V8.03152H203.492C204.06 7.2141 204.786 6.57946 205.68 6.1276V6.12252Z" fill="#F1F1F1" style="fill:#F1F1F1;fill:color(display-p3 0.9451 0.9451 0.9451);fill-opacity:1;"/>
<path d="M240.027 20.2864C238.275 21.7131 235.747 22.429 232.452 22.429C229.994 22.429 227.938 21.967 226.278 21.0429C224.618 20.1189 223.384 18.8445 222.577 17.2148C221.769 15.5901 221.363 13.7268 221.363 11.6249C221.363 9.52294 221.769 7.80179 222.577 6.20757C223.384 4.61336 224.623 3.34915 226.293 2.41496C227.964 1.48077 230.015 1.01367 232.452 1.01367C235.62 1.01367 238.077 1.68385 239.824 3.02929C241.565 4.37473 242.636 6.30404 243.038 8.82229H239.352C239.037 7.14176 238.311 5.89279 237.179 5.07537C236.046 4.25795 234.493 3.84671 232.518 3.84671C230.126 3.84671 228.299 4.50674 227.04 5.83186C225.78 7.15699 225.151 9.0863 225.151 11.6249C225.151 14.1634 225.765 16.2349 226.994 17.5753C228.222 18.9207 230.035 19.5909 232.426 19.5909C236.584 19.5909 238.925 17.7631 239.448 14.1127H243.164C242.829 16.7985 241.783 18.8598 240.032 20.2864H240.027Z" fill="#4C4C4C" style="fill:#4C4C4C;fill:color(display-p3 0.2980 0.2980 0.2980);fill-opacity:1;"/>
<path d="M248.785 21.3372C247.47 20.6111 246.495 19.6262 245.856 18.3772C245.216 17.1282 244.896 15.7168 244.896 14.1429C244.896 12.569 245.216 11.1169 245.856 9.85779C246.495 8.59866 247.47 7.59847 248.785 6.86736C250.095 6.13118 251.73 5.76562 253.684 5.76562C255.639 5.76562 257.264 6.13118 258.564 6.86736C259.863 7.60354 260.838 8.60374 261.478 9.87302C262.118 11.1423 262.437 12.5639 262.437 14.1429C262.437 15.7219 262.118 17.0978 261.478 18.3467C260.838 19.5957 259.868 20.5858 258.564 21.3219C257.264 22.0581 255.634 22.4237 253.684 22.4237C251.735 22.4237 250.1 22.0632 248.785 21.3372ZM249.775 18.3315C250.679 19.2759 251.979 19.748 253.679 19.748C255.38 19.748 256.655 19.2759 257.568 18.3315C258.482 17.3872 258.939 15.991 258.939 14.1429C258.939 12.2948 258.482 10.8834 257.568 9.90856C256.655 8.93375 255.36 8.44635 253.679 8.44635C251.999 8.44635 250.679 8.92868 249.775 9.89333C248.871 10.858 248.42 12.2745 248.42 14.1429C248.42 16.0113 248.871 17.3872 249.775 18.3315Z" fill="#4C4C4C" style="fill:#4C4C4C;fill:color(display-p3 0.2980 0.2980 0.2980);fill-opacity:1;"/>
<path d="M264.168 6.14133H267.697V8.25342H268.042C268.591 7.45631 269.296 6.84198 270.17 6.41042C271.043 5.97887 272.033 5.76562 273.145 5.76562C274.424 5.76562 275.572 6.00425 276.577 6.47643C277.582 6.9486 278.339 7.63401 278.846 8.53774H279.258C280.41 6.68966 282.197 5.76562 284.614 5.76562C286.67 5.76562 288.305 6.32411 289.513 7.436C290.722 8.54789 291.326 10.1573 291.326 12.2542V22.114H287.797V12.635C287.797 11.3149 287.417 10.2944 286.65 9.57855C285.883 8.86775 284.868 8.50728 283.609 8.50728C282.578 8.50728 281.7 8.77636 280.964 9.30945C280.227 9.84255 279.755 10.594 279.547 11.5586V22.1089H276.084V12.4725C276.084 11.1525 275.729 10.1573 275.013 9.49731C274.297 8.83729 273.312 8.50728 272.053 8.50728C270.708 8.50728 269.647 8.91852 268.87 9.73594C268.093 10.5534 267.702 11.7516 267.702 13.3255V22.114H264.174V6.14641L264.168 6.14133Z" fill="#4C4C4C" style="fill:#4C4C4C;fill:color(display-p3 0.2980 0.2980 0.2980);fill-opacity:1;"/>
<path d="M293.048 6.14133H296.546V8.31434H296.957C298.176 6.61351 300.085 5.76562 302.689 5.76562C305.294 5.76562 307.056 6.52212 308.36 8.0351C309.66 9.54808 310.315 11.5535 310.315 14.0515C310.315 16.5494 309.66 18.5701 308.345 20.1136C307.03 21.657 305.147 22.4287 302.689 22.4287C300.044 22.4287 298.125 21.5453 296.927 19.7836H296.551V27.5617H293.053V6.14641L293.048 6.14133ZM297.963 18.235C298.907 19.2403 300.176 19.748 301.775 19.748C303.375 19.748 304.603 19.2657 305.477 18.301C306.35 17.3364 306.781 15.9199 306.781 14.0515C306.781 12.1831 306.34 10.8021 305.461 9.84764C304.578 8.89314 303.329 8.41588 301.714 8.41588C300.1 8.41588 298.887 8.90836 297.952 9.8984C297.018 10.8834 296.551 12.2593 296.551 14.021C296.551 15.7828 297.023 17.2348 297.968 18.2401L297.963 18.235Z" fill="#4C4C4C" style="fill:#4C4C4C;fill:color(display-p3 0.2980 0.2980 0.2980);fill-opacity:1;"/>
<path d="M320.809 21.7644C319.814 22.2671 318.58 22.5209 317.108 22.5209C315.534 22.5209 314.239 22.1249 313.234 21.338C312.229 20.551 311.721 19.434 311.721 17.982C311.721 16.6822 312.132 15.6414 312.95 14.8646C313.767 14.0878 315.123 13.5395 317.012 13.2247L321.012 12.5647C321.896 12.4174 322.5 12.2194 322.84 11.9656C323.18 11.7117 323.343 11.3157 323.343 10.7674C323.343 9.97028 323.053 9.35087 322.475 8.90916C321.896 8.46745 320.926 8.24913 319.56 8.24913C316.808 8.24913 315.433 9.3204 315.433 11.4629H312.061C312.061 9.7215 312.716 8.34559 314.031 7.33525C315.341 6.3249 317.174 5.82227 319.525 5.82227C321.875 5.82227 323.592 6.27413 324.739 7.17786C325.886 8.08158 326.465 9.35087 326.485 10.9908L326.673 22.1097H323.586L323.49 19.7793H323.079C322.556 20.5967 321.794 21.2618 320.794 21.7644H320.809ZM318.118 20.1905C319.23 20.1905 320.185 19.9519 320.987 19.4797C321.784 19.0076 322.383 18.378 322.784 17.591C323.185 16.8041 323.383 15.9714 323.383 15.088V14.0827L318.25 15.0271C317.24 15.2149 316.489 15.5297 315.981 15.9714C315.478 16.4131 315.224 17.0021 315.224 17.7332C315.224 19.3731 316.189 20.1905 318.123 20.1905H318.118Z" fill="#4C4C4C" style="fill:#4C4C4C;fill:color(display-p3 0.2980 0.2980 0.2980);fill-opacity:1;"/>
<path d="M334.446 6.44088C335.34 5.98902 336.37 5.76562 337.548 5.76562C339.584 5.76562 341.168 6.31904 342.306 7.42077C343.438 8.52251 344.006 10.137 344.006 12.2542V22.114H340.544V12.8533C340.544 11.4469 340.178 10.3706 339.442 9.62424C338.706 8.8779 337.701 8.50728 336.416 8.50728C335.03 8.50728 333.933 8.93375 333.126 9.78163C332.319 10.6295 331.913 11.8632 331.913 13.4829V22.114H328.415V6.14641H331.913V8.34988H332.258C332.827 7.53246 333.553 6.89782 334.446 6.44596V6.44088Z" fill="#4C4C4C" style="fill:#4C4C4C;fill:color(display-p3 0.2980 0.2980 0.2980);fill-opacity:1;"/>
<path d="M346.839 24.1898L348.885 25.0377C349.159 25.1443 349.398 25.1951 349.611 25.1951C350.073 25.1951 350.408 24.9767 350.616 24.535L351.784 21.9203L344.635 6.14062H348.291L353.551 18.8944L359.064 6.14062H362.623L353.551 25.6672C353.15 26.4847 352.632 27.1091 351.992 27.5407C351.352 27.9723 350.611 28.1855 349.773 28.1855C348.87 28.1855 347.895 27.9316 346.844 27.429L345.615 26.8908L346.844 24.1847L346.839 24.1898Z" fill="#4C4C4C" style="fill:#4C4C4C;fill:color(display-p3 0.2980 0.2980 0.2980);fill-opacity:1;"/>
<path d="M368.332 12.2032C367.803 11.9159 367.388 11.5208 367.085 11.018C366.782 10.5152 366.623 9.95078 366.623 9.31455C366.623 8.67832 366.777 8.12931 367.09 7.62649C367.403 7.12366 367.819 6.72859 368.347 6.43613C368.875 6.14367 369.445 6 370.071 6C370.697 6 371.282 6.14367 371.81 6.43613C372.339 6.72859 372.754 7.12366 373.067 7.62649C373.38 8.12931 373.534 8.69372 373.534 9.31455C373.534 9.93539 373.38 10.5152 373.067 11.018C372.754 11.5208 372.339 11.9159 371.81 12.2032C371.282 12.4906 370.702 12.6342 370.071 12.6342C369.44 12.6342 368.86 12.4906 368.332 12.2032ZM367.706 10.6588C367.952 11.0642 368.28 11.3874 368.696 11.6234C369.112 11.8595 369.573 11.9775 370.081 11.9775C370.589 11.9775 371.041 11.8595 371.461 11.6234C371.882 11.3874 372.216 11.0693 372.462 10.6588C372.708 10.2484 372.826 9.80199 372.826 9.31455C372.826 8.82712 372.703 8.36534 372.462 7.96C372.216 7.55466 371.887 7.23141 371.461 6.99539C371.041 6.75937 370.579 6.64136 370.081 6.64136C369.584 6.64136 369.112 6.75937 368.696 6.99539C368.28 7.23141 367.947 7.54953 367.706 7.96C367.459 8.36534 367.341 8.81686 367.341 9.31455C367.341 9.81225 367.465 10.2484 367.706 10.6588ZM368.732 7.56492H370.456C370.83 7.56492 371.113 7.64702 371.302 7.81634C371.492 7.98565 371.59 8.22167 371.59 8.52439C371.59 8.7245 371.538 8.89382 371.441 9.03235C371.338 9.17089 371.2 9.26838 371.015 9.32482V9.36586C371.19 9.41203 371.313 9.49926 371.39 9.61727C371.467 9.73528 371.497 9.9046 371.492 10.115V10.4741C371.492 10.6588 371.523 10.8692 371.579 11.1052H370.933C370.892 10.9256 370.877 10.7153 370.877 10.4741V10.1304C370.877 9.78659 370.682 9.61214 370.286 9.61214H369.383V11.1052H368.737V7.55979L368.732 7.56492ZM370.312 9.10418C370.733 9.10418 370.943 8.93487 370.943 8.60136C370.943 8.42178 370.897 8.2935 370.805 8.22167C370.712 8.14984 370.569 8.11393 370.369 8.11393H369.378V9.10418H370.312Z" fill="#4C4C4C" style="fill:#4C4C4C;fill:color(display-p3 0.2980 0.2980 0.2980);fill-opacity:1;"/>
</svg>
