<svg width="1080" height="1440" viewBox="0 0 1080 1440" fill="none" xmlns="http://www.w3.org/2000/svg">
<g clip-path="url(#clip0_371_5211)">
<rect width="1080" height="1440" fill="#0C0C0E" style="fill:#0C0C0E;fill:color(display-p3 0.0471 0.0471 0.0549);fill-opacity:1;"/>
<g opacity="0.14" clip-path="url(#clip1_371_5211)">
<g opacity="0.22">
<path d="M624.281 1197.31V1219.84C624.918 1219.84 625.554 1219.84 626.191 1219.84V1198.07C625.554 1197.82 624.918 1197.56 624.281 1197.31Z" fill="white" style="fill:white;fill-opacity:1;"/>
</g>
<g opacity="0.32">
<path d="M493.529 1176.24V1205.99C494.166 1206.06 494.802 1206.12 495.439 1206.15V1176.05C494.802 1176.11 494.166 1176.18 493.529 1176.24Z" fill="white" style="fill:white;fill-opacity:1;"/>
</g>
<g opacity="0.16">
<path d="M232.09 1136.02V1141.02C232.726 1140.76 233.362 1140.51 233.999 1140.22V1135.99H244.309C245.9 1135.35 247.459 1134.72 249.05 1134.08H233.999V1118.96C233.362 1119.03 232.726 1119.09 232.09 1119.16V1134.08H108.307C104.138 1134.72 100.002 1135.35 95.833 1135.99H101.338V1197.53C101.974 1197.24 102.611 1196.96 103.247 1196.67V1135.99H232.058L232.09 1136.02Z" fill="white" style="fill:white;fill-opacity:1;"/>
</g>
<g opacity="0.1">
<path d="M232.09 1160.65V1215.22C232.726 1215.22 233.363 1215.25 233.999 1215.29V1159.89C233.363 1160.14 232.726 1160.4 232.09 1160.68V1160.65Z" fill="white" style="fill:white;fill-opacity:1;"/>
</g>
<g opacity="0.29">
<path d="M364.719 236.415V226.359C364.369 226.678 363.987 226.964 363.573 227.219C363.319 227.378 363.064 227.505 362.81 227.632V234.315C363.446 235.015 364.082 235.715 364.719 236.447V236.415Z" fill="white" style="fill:white;fill-opacity:1;"/>
</g>
<g opacity="0.09">
<path d="M419.292 905.32H391.544C392.18 905.957 392.849 906.593 393.485 907.23H420.278C419.96 906.593 419.61 905.957 419.292 905.32Z" fill="white" style="fill:white;fill-opacity:1;"/>
</g>
<g opacity="0.32">
<path d="M944.558 676.53H887.63V645.792C886.994 645.442 886.358 645.123 885.721 644.773V676.53H756.911V579.668C756.274 580.209 755.638 580.686 755.001 581.195V676.53H706.252C706.888 677.167 707.493 677.803 708.098 678.44H755.001V708.16C755.638 708.16 756.274 708.097 756.911 708.065V678.408H885.721V723.943C886.358 724.166 886.994 724.389 887.63 724.612V678.408H948.026C946.881 677.771 945.735 677.135 944.558 676.499V676.53Z" fill="white" style="fill:white;fill-opacity:1;"/>
</g>
<g opacity="0.26">
<path d="M1018.38 424.889V401.501C1017.87 397.905 1017.24 394.341 1016.47 390.777V425.876C1017.08 425.462 1017.71 425.144 1018.38 424.889Z" fill="white" style="fill:white;fill-opacity:1;"/>
</g>
<g opacity="0.19">
<path d="M1071.55 676.53H1018.38V564.043H1043.39C1043.11 563.407 1042.82 562.77 1042.57 562.134H1018.38V460.658C1017.75 457.889 1017.11 455.121 1016.47 452.352V562.134H887.662V449.648H1015.87C1015.71 449.011 1015.58 448.375 1015.42 447.738H888.139C887.343 449.298 886.516 450.857 885.752 452.448V562.134H785.39C786.535 562.77 787.713 563.407 788.858 564.043H885.752V615.307C886.389 615.657 887.025 615.975 887.662 616.325V564.043H1016.47V676.53H988.438C989.361 677.166 990.316 677.803 991.238 678.439H1016.47V696.736C1017.11 697.213 1017.75 697.691 1018.38 698.168V678.439H1072C1071.84 677.803 1071.71 677.166 1071.55 676.53Z" fill="white" style="fill:white;fill-opacity:1;"/>
</g>
<g opacity="0.28">
<path d="M1018.38 714.172C1017.81 714.586 1017.14 714.904 1016.47 715.127V790.892H1007.18C1008.01 791.529 1008.87 792.165 1009.69 792.802H1016.47V798.147C1016.98 798.561 1017.52 798.975 1018.03 799.389C1018.16 799.484 1018.25 799.579 1018.38 799.675V792.802H1086.92C1086.92 792.165 1086.96 791.529 1086.99 790.892H1018.38V714.141V714.172Z" fill="white" style="fill:white;fill-opacity:1;"/>
</g>
<g opacity="0.2">
<path d="M987.897 220.886H993.37C993.72 220.249 994.102 219.613 994.452 218.977H986.179C986.751 219.613 987.324 220.249 987.897 220.886Z" fill="white" style="fill:white;fill-opacity:1;"/>
</g>
<g opacity="0.16">
<path d="M787.49 106.493H885.752V198.582C886.389 198.932 887.025 199.282 887.661 199.6V106.461H992.225C992.479 105.825 992.702 105.188 992.925 104.552H887.661V89.755C887.025 89.755 886.389 89.7232 885.752 89.6914V104.552H785.294C786.153 105.061 786.885 105.729 787.49 106.461V106.493Z" fill="white" style="fill:white;fill-opacity:1;"/>
</g>
<g opacity="0.15">
<path d="M401.822 790.926H371.656C371.656 791.562 371.656 792.199 371.656 792.835H402.872C402.522 792.199 402.172 791.562 401.822 790.926Z" fill="white" style="fill:white;fill-opacity:1;"/>
</g>
<g opacity="0.24">
<path d="M76.836 218.977H63.8213C64.6486 219.645 65.5396 220.281 66.4306 220.886H75.2768C75.7859 220.249 76.3268 219.613 76.836 218.977Z" fill="white" style="fill:white;fill-opacity:1;"/>
</g>
<g opacity="0.24">
<path d="M1077.95 335.284C1078.01 334.648 1078.08 334.011 1078.14 333.375H1018.41C1018.44 334.011 1018.51 334.648 1018.54 335.284H1077.95Z" fill="white" style="fill:white;fill-opacity:1;"/>
</g>
<g opacity="0.27">
<path d="M196.196 218.977C194.891 219.614 193.555 220.25 192.25 220.887H232.09V244.275C232.726 243.861 233.362 243.416 233.999 243.002V220.887H273.648C274.507 220.505 275.334 220.123 276.193 219.773C276.861 219.487 277.53 219.232 278.198 218.977H233.999V199.98C233.362 200.299 232.726 200.617 232.09 200.935V218.977H196.196Z" fill="white" style="fill:white;fill-opacity:1;"/>
</g>
<g opacity="0.22">
<path d="M103.247 184.07V159.504C102.611 159.504 101.974 159.504 101.338 159.504V186.583C101.974 185.724 102.611 184.897 103.247 184.038V184.07Z" fill="white" style="fill:white;fill-opacity:1;"/>
</g>
<g opacity="0.15">
<path d="M624.281 158.011V217.389C624.44 217.389 624.631 217.357 624.79 217.325C625.268 217.294 625.713 217.23 626.191 217.198V157.375C625.554 157.598 624.918 157.789 624.281 158.011Z" fill="white" style="fill:white;fill-opacity:1;"/>
</g>
<g opacity="0.18">
<path d="M885.721 1150.25V1197.85C886.357 1197.85 886.994 1197.91 887.63 1197.95V1151.61C886.994 1151.17 886.357 1150.72 885.721 1150.28V1150.25Z" fill="white" style="fill:white;fill-opacity:1;"/>
</g>
<g opacity="0.13">
<path d="M756.91 329.396V256.049C756.306 255.254 755.637 254.49 755.001 253.727V330.574C755.637 330.192 756.274 329.778 756.91 329.365V329.396Z" fill="white" style="fill:white;fill-opacity:1;"/>
</g>
<g opacity="0.05">
<path d="M750.578 333.375H673.858C671.821 334.043 669.753 334.68 667.685 335.284H747.523C748.541 334.648 749.559 334.011 750.578 333.375Z" fill="white" style="fill:white;fill-opacity:1;"/>
</g>
<g opacity="0.1">
<path d="M755.001 352.181V443.475C755.701 443.698 756.337 443.984 756.91 444.366V351.004C756.274 351.386 755.637 351.799 755.001 352.181Z" fill="white" style="fill:white;fill-opacity:1;"/>
</g>
<g opacity="0.32">
<path d="M756.91 461.676C756.306 462.471 755.669 463.203 755.001 463.935V504.729C755.637 504.92 756.274 505.143 756.91 505.334V461.676Z" fill="white" style="fill:white;fill-opacity:1;"/>
</g>
<g opacity="0.09">
<path d="M624.281 327.393C624.918 327.266 625.554 327.139 626.191 327.012V279.885C625.554 279.853 624.918 279.821 624.281 279.758V327.393Z" fill="white" style="fill:white;fill-opacity:1;"/>
</g>
<g opacity="0.06">
<path d="M803.528 335.284H814.252C814.379 334.648 814.506 334.011 814.602 333.375H802.892C803.114 334.011 803.305 334.648 803.528 335.284Z" fill="white" style="fill:white;fill-opacity:1;"/>
</g>
<g opacity="0.09">
<path d="M872.865 220.886C871.274 220.249 869.714 219.613 868.123 218.977H826.184C826.279 219.613 826.343 220.249 826.438 220.886H872.865Z" fill="white" style="fill:white;fill-opacity:1;"/>
</g>
<g opacity="0.05">
<path d="M756.91 546.224V526.909C756.719 526.049 756.497 525.19 756.274 524.363C755.86 524.236 755.415 524.108 755.001 523.949V545.11C755.637 545.46 756.274 545.842 756.91 546.192V546.224Z" fill="white" style="fill:white;fill-opacity:1;"/>
</g>
<g opacity="0.09">
<path d="M936.475 1136.02H952.258C952.735 1135.39 953.181 1134.75 953.626 1134.11H934.82C935.361 1134.75 935.902 1135.39 936.475 1136.02Z" fill="white" style="fill:white;fill-opacity:1;"/>
</g>
<g opacity="0.07">
<path d="M278.548 907.23H334.743C334.616 906.593 334.521 905.957 334.393 905.32H282.939C281.475 905.957 280.012 906.593 278.548 907.23Z" fill="white" style="fill:white;fill-opacity:1;"/>
</g>
<g opacity="0.29">
<path d="M1016.47 280.488V323.192C1017.17 325.515 1017.71 327.901 1018.1 330.32C1018.22 331.115 1018.29 331.942 1018.38 332.77V281.316C1017.75 281.061 1017.11 280.775 1016.47 280.52V280.488Z" fill="white" style="fill:white;fill-opacity:1;"/>
</g>
<g opacity="0.22">
<path d="M364.719 51.3474V-0.552313C364.082 -0.679596 363.446 -0.775061 362.81 -0.902344V52.7793C363.446 52.302 364.082 51.8247 364.719 51.3474Z" fill="white" style="fill:white;fill-opacity:1;"/>
</g>
<g opacity="0.08">
<path d="M495.439 40.2091V31.4584C494.802 31.2993 494.166 31.1083 493.529 30.9492V38.9044C494.166 39.3499 494.802 39.7954 495.439 40.2409V40.2091Z" fill="white" style="fill:white;fill-opacity:1;"/>
</g>
<g opacity="0.2">
<path d="M626.191 21.0229V-2.68359C625.554 -2.58813 624.918 -2.55629 624.281 -2.58811V20.6092C624.918 20.7365 625.554 20.8956 626.191 21.0229Z" fill="white" style="fill:white;fill-opacity:1;"/>
</g>
<g opacity="0.32">
<path d="M101.338 2.18322V30.2173C101.974 30.8856 102.611 31.5856 103.247 32.2539V1.76953C102.611 1.89681 101.974 2.05593 101.338 2.18322Z" fill="white" style="fill:white;fill-opacity:1;"/>
</g>
<g opacity="0.31">
<path d="M150.024 104.583H103.279V58.8563C102.643 58.188 102.006 57.5198 101.37 56.8516V104.583H-5.16602C-4.81599 105.219 -4.49776 105.856 -4.14773 106.492H101.37V140.636C102.006 140.636 102.643 140.636 103.279 140.636V106.524H152.22C151.488 105.887 150.788 105.251 150.056 104.615L150.024 104.583Z" fill="white" style="fill:white;fill-opacity:1;"/>
</g>
<g opacity="0.13">
<path d="M495.439 66.7148C494.802 66.7785 494.166 66.8421 493.529 66.9058V75.7519C494.166 75.1155 494.802 74.5109 495.439 73.8745V66.7466V66.7148Z" fill="white" style="fill:white;fill-opacity:1;"/>
</g>
<g opacity="0.23">
<path d="M600.957 106.494H624.281V121.831C624.918 121.831 625.554 121.768 626.19 121.736V106.494H678.599C678.472 105.857 678.377 105.221 678.377 104.585H626.19V66.8769C625.554 66.7178 624.918 66.5269 624.281 66.3359V104.585H598.093C599.047 105.221 600.002 105.857 600.957 106.494Z" fill="white" style="fill:white;fill-opacity:1;"/>
</g>
<g opacity="0.22">
<path d="M493.529 117.98V131.632C494.166 131.536 494.802 131.441 495.439 131.345V116.676C494.802 117.121 494.166 117.567 493.529 118.012V117.98Z" fill="white" style="fill:white;fill-opacity:1;"/>
</g>
<g opacity="0.17">
<path d="M511.922 104.582C511.095 105.218 510.236 105.855 509.408 106.491H566.654C565.572 105.855 564.49 105.218 563.44 104.582H511.954H511.922Z" fill="white" style="fill:white;fill-opacity:1;"/>
</g>
<g opacity="0.12">
<path d="M364.719 86.634V75.2422C364.082 75.2422 363.446 75.274 362.81 75.3058V85.8385C363.446 86.0931 364.082 86.3476 364.719 86.634Z" fill="white" style="fill:white;fill-opacity:1;"/>
</g>
<g opacity="0.18">
<path d="M408.154 106.491H468.073C467.978 105.855 467.882 105.218 467.755 104.582H404.336C405.609 105.218 406.882 105.855 408.123 106.491H408.154Z" fill="white" style="fill:white;fill-opacity:1;"/>
</g>
<g opacity="0.06">
<path d="M232.09 135.099C232.727 135.385 233.363 135.671 233.999 135.99V106.524H296.718C297.418 105.887 298.118 105.251 298.818 104.614H233.999V14.9752C233.363 14.2751 232.727 13.5751 232.09 12.875V104.583H195.655C195.846 105.219 196.005 105.855 196.196 106.492H232.09V135.067V135.099Z" fill="white" style="fill:white;fill-opacity:1;"/>
</g>
<g opacity="0.16">
<path d="M326.025 104.582C325.261 105.218 324.529 105.855 323.766 106.491H362.81V188.589C363.446 188.812 364.083 189.034 364.719 189.257V106.491H364.878C363.414 105.855 361.951 105.218 360.487 104.582H326.025Z" fill="white" style="fill:white;fill-opacity:1;"/>
</g>
<g opacity="0.25">
<path d="M4.66699 220.886H38.1743C37.8879 220.249 37.6015 219.613 37.3469 218.977H6.57621C5.93979 219.613 5.30341 220.249 4.66699 220.886Z" fill="white" style="fill:white;fill-opacity:1;"/>
</g>
<g opacity="0.3">
<path d="M756.91 59.2067V28.6587C756.274 28.4678 755.637 28.2769 755.001 28.0859V58.4111C755.637 58.6657 756.274 58.9521 756.91 59.2067Z" fill="white" style="fill:white;fill-opacity:1;"/>
</g>
<g opacity="0.24">
<path d="M760.347 1249.37C761.651 1249.72 762.956 1250.07 764.261 1250.42H843.717C845.34 1249.78 846.963 1249.14 848.586 1248.51H762.097C761.524 1248.79 760.919 1249.08 760.347 1249.37Z" fill="white" style="fill:white;fill-opacity:1;"/>
</g>
<g opacity="0.09">
<path d="M668.767 1250.39H695.432C693.078 1249.75 690.755 1249.11 688.4 1248.48H668.83C668.83 1249.11 668.798 1249.75 668.767 1250.39Z" fill="white" style="fill:white;fill-opacity:1;"/>
</g>
<g opacity="0.07">
<path d="M650.438 1250.38C650.438 1249.75 650.469 1249.11 650.501 1248.48H626.158V1238.1C625.522 1238.1 624.885 1238.1 624.249 1238.1V1248.44H597.138C597.583 1249.08 598.029 1249.72 598.474 1250.35H624.249V1284.43C624.885 1284.24 625.522 1284.02 626.158 1283.83V1250.35H650.438V1250.38Z" fill="white" style="fill:white;fill-opacity:1;"/>
</g>
<g opacity="0.08">
<path d="M624.281 1440.96V1456.01C624.918 1456.74 625.554 1457.44 626.191 1458.18V1439.82C625.554 1440.2 624.918 1440.58 624.281 1440.96Z" fill="white" style="fill:white;fill-opacity:1;"/>
</g>
<g opacity="0.25">
<path d="M1016.47 1364.78V1401.79C1017.11 1401.47 1017.75 1401.19 1018.38 1400.87V1364.78H1077.03C1077.86 1364.15 1078.68 1363.51 1079.51 1362.87H1018.38V1350.53C1017.75 1351.51 1017.14 1352.5 1016.47 1353.45V1362.87H1009.38C1008.84 1363.51 1008.29 1364.15 1007.75 1364.78H1016.44H1016.47Z" fill="white" style="fill:white;fill-opacity:1;"/>
</g>
<g opacity="0.29">
<path d="M493.53 1403.51C493.975 1403.73 494.453 1403.95 494.898 1404.17C495.089 1404.21 495.248 1404.27 495.439 1404.3V1364.78H514.977C514.468 1364.14 513.959 1363.51 513.45 1362.87H495.439V1340.09C494.803 1339.26 494.166 1338.46 493.53 1337.64V1362.84H440.071C439.753 1363.48 439.434 1364.11 439.116 1364.75H493.53V1403.47V1403.51Z" fill="white" style="fill:white;fill-opacity:1;"/>
</g>
<g opacity="0.23">
<path d="M1130.2 1134.11H1063.31C1063.15 1134.75 1062.99 1135.39 1062.83 1136.02H1134.34C1132.97 1135.39 1131.6 1134.75 1130.23 1134.11H1130.2Z" fill="white" style="fill:white;fill-opacity:1;"/>
</g>
<g opacity="0.13">
<path d="M1018.38 1421.01C1017.75 1421.29 1017.11 1421.61 1016.47 1421.93V1462.66C1017.11 1462.95 1017.75 1463.27 1018.38 1463.55V1421.04V1421.01Z" fill="white" style="fill:white;fill-opacity:1;"/>
</g>
<g opacity="0.26">
<path d="M402.14 1364.78H407.964C407.232 1364.14 406.5 1363.51 405.768 1362.87H400.899C401.313 1363.51 401.727 1364.14 402.14 1364.78Z" fill="white" style="fill:white;fill-opacity:1;"/>
</g>
<g opacity="0.11">
<path d="M516.218 1250.39H576.518C576.072 1249.75 575.627 1249.11 575.181 1248.48H514.977C515.39 1249.11 515.804 1249.75 516.218 1250.39Z" fill="white" style="fill:white;fill-opacity:1;"/>
</g>
<g opacity="0.19">
<path d="M493.244 1248.48H426.738C425.943 1249.11 425.147 1249.75 424.352 1250.39H493.53V1308.3C494.166 1309.1 494.803 1309.89 495.439 1310.69V1251.88C494.707 1250.74 493.975 1249.62 493.244 1248.48Z" fill="white" style="fill:white;fill-opacity:1;"/>
</g>
<g opacity="0.06">
<path d="M1042.88 1250.39H1083.9C1083.65 1249.75 1083.45 1249.11 1083.3 1248.48H1040.62C1041.39 1249.11 1042.15 1249.75 1042.88 1250.39Z" fill="white" style="fill:white;fill-opacity:1;"/>
</g>
<g opacity="0.18">
<path d="M1016.47 1226.36C1017.11 1226.96 1017.75 1227.6 1018.38 1228.21V1136.02H1022.65C1022.46 1135.38 1022.3 1134.75 1022.11 1134.11H1018.35V1120.21C1017.71 1117.85 1017.08 1115.46 1016.44 1113.11V1134.11H989.775C989.171 1134.75 988.598 1135.38 987.993 1136.02H1016.44V1226.36H1016.47Z" fill="white" style="fill:white;fill-opacity:1;"/>
</g>
<g opacity="0.27">
<path d="M1013.35 1248.48H972.4C974.373 1249.08 976.346 1249.72 978.319 1250.39H1015.42C1014.72 1249.75 1014.05 1249.11 1013.35 1248.48Z" fill="white" style="fill:white;fill-opacity:1;"/>
</g>
<g opacity="0.1">
<path d="M1016.47 1251.34V1271.58C1017.11 1272.18 1017.78 1272.82 1018.38 1273.46V1253.06C1017.75 1252.49 1017.11 1251.91 1016.47 1251.34Z" fill="white" style="fill:white;fill-opacity:1;"/>
</g>
<g opacity="0.09">
<path d="M626.191 1358.73V1319.31C625.554 1318.51 624.918 1317.72 624.281 1316.92V1359.63C624.918 1359.34 625.554 1359.05 626.191 1358.73Z" fill="white" style="fill:white;fill-opacity:1;"/>
</g>
<g opacity="0.16">
<path d="M576.9 1362.87H536.965C537.506 1363.51 538.015 1364.14 538.556 1364.78H578.618C578.046 1364.14 577.441 1363.51 576.868 1362.87H576.9Z" fill="white" style="fill:white;fill-opacity:1;"/>
</g>
<g opacity="0.24">
<path d="M603.724 1364.78H614.766C615.403 1364.05 616.262 1363.41 617.312 1362.87H601.879C602.484 1363.51 603.088 1364.14 603.693 1364.78H603.724Z" fill="white" style="fill:white;fill-opacity:1;"/>
</g>
<g opacity="0.05">
<path d="M657.692 1362.87C656.547 1363.51 655.401 1364.14 654.256 1364.78H663.388C662.879 1364.14 662.37 1363.51 661.829 1362.87H657.661H657.692Z" fill="white" style="fill:white;fill-opacity:1;"/>
</g>
<g opacity="0.14">
<path d="M626.191 1386.45V1378.81C625.554 1379.04 624.918 1379.19 624.281 1379.26V1384.7C624.918 1385.27 625.554 1385.84 626.191 1386.42V1386.45Z" fill="white" style="fill:white;fill-opacity:1;"/>
</g>
<g opacity="0.18">
<path d="M885.721 1277.27V1298.82C886.357 1299.33 886.994 1299.83 887.63 1300.34V1275.94C886.994 1276.38 886.357 1276.83 885.721 1277.27Z" fill="white" style="fill:white;fill-opacity:1;"/>
</g>
<g opacity="0.15">
<path d="M887.63 1413.98V1399.43C886.994 1399.69 886.357 1399.91 885.721 1400.17V1414.26C886.357 1414.17 886.994 1414.07 887.63 1414.01V1413.98Z" fill="white" style="fill:white;fill-opacity:1;"/>
</g>
<g opacity="0.22">
<path d="M685.313 1362.87C685.823 1363.51 686.364 1364.14 686.873 1364.78H713.793C715.384 1364.14 716.975 1363.51 718.566 1362.87H685.313Z" fill="white" style="fill:white;fill-opacity:1;"/>
</g>
<g opacity="0.24">
<path d="M756.91 1339.77V1307.86C756.274 1308.17 755.637 1308.49 755.001 1308.81V1340.98C755.637 1340.6 756.274 1340.19 756.91 1339.8V1339.77Z" fill="white" style="fill:white;fill-opacity:1;"/>
</g>
<g opacity="0.05">
<path d="M755.606 1288.13C756.051 1287.94 756.465 1287.71 756.91 1287.52V1267.44C756.274 1267.28 755.637 1267.09 755.001 1266.93V1288.41C755.192 1288.32 755.415 1288.22 755.606 1288.13Z" fill="white" style="fill:white;fill-opacity:1;"/>
</g>
<g opacity="0.17">
<path d="M887.63 1232.41V1218.85C886.994 1218.88 886.357 1218.95 885.721 1218.98V1232.06C886.357 1232.18 886.994 1232.28 887.63 1232.41Z" fill="white" style="fill:white;fill-opacity:1;"/>
</g>
<g opacity="0.17">
<path d="M755.001 1433.74C755.637 1433.64 756.274 1433.51 756.91 1433.42V1367.14C756.274 1367.39 755.637 1367.65 755.001 1367.9V1433.74Z" fill="white" style="fill:white;fill-opacity:1;"/>
</g>
<path d="M-421 1593V-238H1410V49.0554C1409.75 48.6735 1409.49 48.2598 1409.24 47.878V-8.47664H1342.48L1342.54 -9.24034H1409.24V-122.872H1385.69V-123.636H1409.24V-237.236H1279.28V-183.364L1278.52 -183.014V-237.236H1148.56V-199.02H1147.8V-237.236H1017.84V-156.475C1017.84 -156.475 1017.27 -155.902 1017.08 -155.711V-237.236H887.121V-212.002H886.357V-237.236H756.401V-182.186H755.637V-237.236H625.681V-194.724H624.918V-237.236H494.961V-168.408L494.198 -168.949V-237.236H364.242V-123.604H400.326L400.676 -122.841H364.242V-122.745C363.892 -123 363.096 -123.604 363.096 -123.604H363.478V-237.236H233.522V-211.843L232.758 -212.321V-237.236H102.802V-138.083L102.038 -138.687V-237.236H-27.9178V-178.336L-28.6815 -178.527V-237.236H-158.638V-123.604H-152.846L-152.687 -122.841H-158.638V-84.4647L-159.401 -84.2738V-122.841H-281.116C-281.116 -123.063 -281.148 -123.604 -281.148 -123.604H-159.401V-237.236H-289.357V-165.194C-289.612 -165.799 -289.867 -166.403 -290.121 -166.976V-237.236H-420.236V-123.604H-374.446C-374.478 -123.35 -374.542 -123.095 -374.573 -122.841H-420.236V-9.20851H-346.508L-346.157 -8.44482H-420.236V105.187H-335.275L-335.338 105.951H-420.236V219.583H-350.326C-350.199 219.838 -350.04 220.092 -349.912 220.347H-420.236V333.979H-342.784L-343.166 334.742H-420.236V448.374H-355.513L-355.704 449.138H-420.236V562.77H-370.946C-370.755 563.025 -370.564 563.279 -370.373 563.534H-420.236V677.166H-337.948L-338.393 677.93H-420.236V791.562H-307.463L-306.795 792.262L-420.236 792.325V905.957H-345.33C-345.012 906.212 -344.662 906.467 -344.344 906.721H-420.236V1020.35H-354.24C-354.495 1020.61 -354.749 1020.86 -354.972 1021.12H-420.236V1134.75H-384.533L-384.406 1135.51H-420.236V1249.14H-365.6L-365.536 1249.91H-420.236V1363.54H-361.527V1364.3H-420.236V1477.94H-354.813C-354.717 1478.19 -354.654 1478.45 -354.558 1478.7H-420.236V1592.33H-290.28V1515.9L-289.516 1515.71V1551.03C-290.503 1553.22 -290.503 1555.93 -289.516 1558.51V1592.33H-159.56V1541.74C-159.306 1541.58 -159.051 1541.42 -158.797 1541.26V1592.36H-28.8406V1478.73H-47.0102L-46.8193 1477.97H-28.8406V1364.34H-59.6113L-59.4204 1363.57H-28.8406V1258.95C-28.586 1258.95 -28.3314 1258.95 -28.0769 1258.95V1363.6H34.6419L35.0237 1364.37H-28.1087V1478H36.8376L35.2147 1478.76H-28.1405V1592.4H101.816V1478.76H83.9323L84.9824 1478H101.816V1468.71L102.579 1468.36V1478H109.994L110.534 1478.76H102.579V1592.4H232.535V1501.29L233.299 1500.85V1592.4H363.255V1559.05C363.51 1558.38 363.764 1557.68 364.019 1557.01V1592.4H493.975V1513.61L494.739 1513.35V1592.4H624.695V1514.69L625.458 1514.5V1592.36H755.415V1546.22L756.178 1546.45V1592.36H886.134V1553.86L886.898 1553.67V1592.33H1016.85V1517.9H1017.62V1592.33H1147.57V1527.77L1148.34 1527.93V1592.33H1278.29V1576.93C1278.48 1576.93 1278.71 1576.93 1278.9 1576.93C1278.96 1576.93 1278.99 1576.93 1279.06 1576.93V1592.3H1409.01V1478.67H1355.55V1477.9H1409.01V1364.27H1354.22C1353.9 1364.02 1353.58 1363.76 1353.23 1363.51H1408.98V1249.88H1366.21L1366.28 1249.11H1408.98V1135.48H1365.2L1365.13 1134.72H1408.95V1021.09H1355.62L1355.55 1020.32H1408.95V906.689H1346.99L1346.9 905.926H1408.95V792.294H1297.2L1296.81 791.53H1408.95V677.898H1350.05C1349.64 677.643 1349.22 677.389 1348.81 677.134H1408.98V563.502H1353.23V562.738H1408.98V449.106H1357.88V448.343H1408.98V334.711H1353.17L1353.07 333.947H1408.95V263.305C1409.14 263.018 1409.36 262.7 1409.52 262.35C1409.59 262.223 1409.65 262.096 1409.71 261.968V1592.97H-421V1593Z" fill="white" style="fill:white;fill-opacity:1;"/>
<g opacity="0.05">
<path d="M885.721 20.2252V71.4248C886.357 71.4248 886.994 71.4248 887.63 71.4567V18.125C886.994 18.8251 886.357 19.5251 885.721 20.2252Z" fill="white" style="fill:white;fill-opacity:1;"/>
</g>
<g opacity="0.33">
<path d="M1016.47 -7.87038V49.7571C1017.11 50.648 1017.74 51.5708 1018.38 52.4618V-7.90221H1046.64C1046.51 -8.53863 1046.42 -9.17504 1046.29 -9.81145H1018.38V-20.7578C1017.78 -18.8804 1017.14 -16.9711 1016.47 -15.0937V-9.81145H1014.56C1014.34 -9.17504 1014.09 -8.53863 1013.83 -7.90221H1016.44L1016.47 -7.87038Z" fill="white" style="fill:white;fill-opacity:1;"/>
</g>
<g opacity="0.09">
<path d="M1018.38 138.885V106.523H1033.88C1033.43 105.887 1032.99 105.251 1032.51 104.614H1018.35V84.4397C1017.71 83.5169 1017.08 82.6259 1016.44 81.7031V104.614H1012.05C1011.89 105.251 1011.73 105.887 1011.54 106.523H1016.44V137.835C1017.11 138.153 1017.71 138.535 1018.35 138.885H1018.38Z" fill="white" style="fill:white;fill-opacity:1;"/>
</g>
<g opacity="0.31">
<path d="M756.91 -9.78052V-122.267H794.363C793.822 -122.903 793.25 -123.54 792.709 -124.176H756.91V-163.284C756.91 -163.284 756.624 -163.284 756.465 -163.284C755.987 -163.284 755.478 -163.316 755.001 -163.348V-124.176H710.897C710.293 -123.794 709.625 -123.444 708.861 -123.19C708.034 -122.903 707.206 -122.585 706.379 -122.267H755.033V-9.78052H722.862C723.721 -9.14411 724.58 -8.5077 725.44 -7.87128H755.033V5.30252C755.669 5.14342 756.306 4.98431 756.942 4.82521V-7.87128H798.246C798.5 -8.5077 798.755 -9.14411 799.041 -9.78052H756.974H756.91Z" fill="white" style="fill:white;fill-opacity:1;"/>
</g>
<g opacity="0.32">
<path d="M1138.63 105.25C1138.57 105.027 1138.54 104.804 1138.47 104.613H1068.09C1067.86 105.25 1067.58 105.854 1067.26 106.395C1067.26 106.459 1067.26 106.491 1067.26 106.554H1139.05C1138.89 106.141 1138.73 105.727 1138.6 105.282L1138.63 105.25Z" fill="white" style="fill:white;fill-opacity:1;"/>
</g>
<g opacity="0.12">
<path d="M885.721 1380.63C886.357 1380.4 886.994 1380.15 887.63 1379.93V1364.78H932.338C934.407 1364.14 936.507 1363.51 938.607 1362.87H887.662V1314.34C887.057 1314.88 886.421 1315.33 885.753 1315.74V1362.87H767.729C766.107 1363.51 764.515 1364.14 762.893 1364.78H885.753V1380.63H885.721Z" fill="white" style="fill:white;fill-opacity:1;"/>
</g>
<g opacity="0.22">
<path d="M101.338 1326.98C101.975 1326.24 102.611 1325.51 103.247 1324.78V1250.38H172.235C173.03 1249.75 173.858 1249.11 174.653 1248.47H103.247V1233.49C102.611 1233.42 101.975 1233.39 101.338 1233.33V1248.47H20.7998C18.6041 1249.14 16.4085 1249.78 14.2129 1250.38H101.338V1326.98Z" fill="white" style="fill:white;fill-opacity:1;"/>
</g>
<g opacity="0.06">
<path d="M316.638 1248.48C316.161 1249.11 315.683 1249.75 315.206 1250.39H328.603C328.38 1249.75 328.125 1249.11 327.903 1248.48H316.638Z" fill="white" style="fill:white;fill-opacity:1;"/>
</g>
<g opacity="0.22">
<path d="M292.2 1250.39C292.677 1249.75 293.154 1249.11 293.664 1248.48H283.513C284.372 1249.11 285.231 1249.75 286.122 1250.39H292.2Z" fill="white" style="fill:white;fill-opacity:1;"/>
</g>
<g opacity="0.19">
<path d="M347.758 1250.39H362.809V1277.91C363.446 1277.37 364.082 1276.8 364.719 1276.26V1250.39H395.457C396.221 1249.75 396.985 1249.11 397.78 1248.48H364.75V1238.04C364.114 1238.04 363.478 1238.04 362.841 1238.04V1248.51H347.09C347.313 1249.14 347.567 1249.78 347.79 1250.42L347.758 1250.39Z" fill="white" style="fill:white;fill-opacity:1;"/>
</g>
<g opacity="0.25">
<path d="M254.141 1248.48H237.945C237.849 1249.11 237.754 1249.75 237.658 1250.39H256.623C255.796 1249.75 254.969 1249.11 254.141 1248.48Z" fill="white" style="fill:white;fill-opacity:1;"/>
</g>
<g opacity="0.33">
<path d="M104.329 1362.87H103.279V1362.24C102.643 1361.85 102.006 1361.47 101.37 1361.06V1362.87H94.0191C93.4464 1363.51 92.8736 1364.15 92.3008 1364.78H101.37V1409.43C102.006 1409.36 102.643 1409.3 103.279 1409.24V1364.78H107.479C106.429 1364.15 105.379 1363.51 104.361 1362.87H104.329Z" fill="white" style="fill:white;fill-opacity:1;"/>
</g>
<g opacity="0.06">
<path d="M143.31 1364.78H178.09C178.281 1364.14 178.472 1363.51 178.695 1362.87H139.905C141.051 1363.51 142.165 1364.14 143.31 1364.78Z" fill="white" style="fill:white;fill-opacity:1;"/>
</g>
<g opacity="0.27">
<path d="M207.524 1250.39H219.203C219.33 1249.75 219.425 1249.11 219.521 1248.48H212.87C211.056 1249.02 209.306 1249.65 207.556 1250.39H207.524Z" fill="white" style="fill:white;fill-opacity:1;"/>
</g>
<g opacity="0.24">
<path d="M233.999 1296.3V1264.86C233.394 1266.77 232.758 1268.68 232.09 1270.56V1296.24C232.694 1296.17 233.331 1296.17 233.999 1296.3Z" fill="white" style="fill:white;fill-opacity:1;"/>
</g>
<g opacity="0.05">
<path d="M232.09 1410.19C232.726 1410.51 233.363 1410.79 233.999 1411.11V1364.78H308.873C307.537 1364.18 306.2 1363.54 304.864 1362.87H233.967V1346.29C233.331 1346.96 232.694 1347.63 232.058 1348.3V1362.87H217.802C217.166 1363.51 216.561 1364.14 215.925 1364.78H232.09V1410.19Z" fill="white" style="fill:white;fill-opacity:1;"/>
</g>
<g opacity="0.24">
<path d="M101.338 1427.6V1433.32C101.974 1434.22 102.611 1435.11 103.247 1436V1427.41C102.611 1427.47 101.974 1427.53 101.338 1427.6Z" fill="white" style="fill:white;fill-opacity:1;"/>
</g>
<g opacity="0.15">
<path d="M364.719 1419.9V1382.83C364.082 1382.57 363.446 1382.35 362.81 1382.09V1420.76C363.446 1420.47 364.082 1420.18 364.719 1419.9Z" fill="white" style="fill:white;fill-opacity:1;"/>
</g>
<g opacity="0.28">
<path d="M364.719 1439.85C364.083 1440.13 363.446 1440.42 362.81 1440.71V1477.27H337.003C334.458 1479.05 331.085 1479.59 327.584 1477.75C327.266 1477.59 326.98 1477.43 326.661 1477.27H287.554C287.999 1477.91 288.445 1478.54 288.858 1479.18H362.81V1502.22C363.446 1500.24 364.083 1498.27 364.719 1496.3V1479.15H370.288C370.511 1478.51 370.701 1477.87 370.924 1477.24H364.719V1439.82V1439.85Z" fill="white" style="fill:white;fill-opacity:1;"/>
</g>
<g opacity="0.32">
<path d="M69.3587 1362.87H55.6758C55.8349 1363.19 55.994 1363.48 56.1531 1363.79C56.344 1364.11 56.5349 1364.46 56.694 1364.78H67.5449C68.1495 1364.14 68.7223 1363.51 69.3269 1362.87H69.3587Z" fill="white" style="fill:white;fill-opacity:1;"/>
</g>
<g opacity="0.06">
<path d="M-29.3819 -7.87371V29.4203C-28.7455 29.0702 -28.1091 28.752 -27.4727 28.4338V-7.87371H39.701C39.0646 -8.51013 38.3964 -9.14654 37.76 -9.78295H-27.4727V-67.8241C-28.1091 -68.3969 -28.7455 -68.9696 -29.3819 -69.5742V-9.78295H-75.8721C-75.4266 -9.14654 -75.0129 -8.51013 -74.5674 -7.87371H-29.3819Z" fill="white" style="fill:white;fill-opacity:1;"/>
</g>
<g opacity="0.19">
<path d="M1073.18 218.978H1018.35V214.523C1017.71 215.669 1017.08 216.814 1016.44 217.96V218.978H1015.87C1015.52 219.615 1015.14 220.251 1014.79 220.888H1016.47V260.759C1017.11 261.014 1017.75 261.3 1018.38 261.555V220.888H1073.24C1073.24 220.251 1073.24 219.615 1073.24 218.978H1073.18Z" fill="white" style="fill:white;fill-opacity:1;"/>
</g>
<g opacity="0.28">
<path d="M626.191 408.661V345.465C625.554 345.592 624.918 345.751 624.281 345.879V409.806C624.918 409.425 625.554 409.043 626.191 408.661Z" fill="white" style="fill:white;fill-opacity:1;"/>
</g>
<g opacity="0.06">
<path d="M755.001 145.695V155.082C755.637 155.337 756.274 155.56 756.91 155.814V146.427C756.274 146.173 755.637 145.918 755.001 145.695Z" fill="white" style="fill:white;fill-opacity:1;"/>
</g>
<g opacity="0.07">
<path d="M101.338 923.301V955.662C101.974 954.612 102.611 953.594 103.247 952.544V924.637C102.611 924.192 101.974 923.746 101.338 923.301Z" fill="white" style="fill:white;fill-opacity:1;"/>
</g>
<g opacity="0.14">
<path d="M103.247 902.139V884.797C102.611 885.083 101.974 885.338 101.338 885.624V900.771C101.974 901.216 102.611 901.694 103.247 902.139Z" fill="white" style="fill:white;fill-opacity:1;"/>
</g>
<g opacity="0.19">
<path d="M110.471 907.23H126.127C126.381 906.593 126.668 905.957 126.89 905.32H107.734C108.625 905.957 109.548 906.593 110.471 907.23Z" fill="white" style="fill:white;fill-opacity:1;"/>
</g>
<g opacity="0.25">
<path d="M76.932 905.32H69.7723C68.8495 905.957 67.9267 906.593 67.0039 907.23H79.3822C78.5549 906.593 77.7593 905.957 76.932 905.32Z" fill="white" style="fill:white;fill-opacity:1;"/>
</g>
<g opacity="0.11">
<path d="M755.001 227.221C755.637 227.731 756.274 228.271 756.91 228.812V220.889H808.11C808.014 220.253 807.951 219.616 807.855 218.98H756.91V175.322C756.274 175.067 755.637 174.844 755.001 174.59V218.98H744.659C745.487 219.616 746.282 220.253 747.077 220.889H755.001V227.221Z" fill="white" style="fill:white;fill-opacity:1;"/>
</g>
<g opacity="0.09">
<path d="M624.281 261.492C624.918 261.492 625.554 261.555 626.191 261.587V236.035C625.554 236.099 624.918 236.162 624.281 236.226V261.492Z" fill="white" style="fill:white;fill-opacity:1;"/>
</g>
<g opacity="0.32">
<path d="M562.771 220.886H588.482C595.26 220.345 602.07 219.677 608.816 218.977H564.044C563.567 219.581 563.121 220.218 562.739 220.886H562.771Z" fill="white" style="fill:white;fill-opacity:1;"/>
</g>
<g opacity="0.23">
<path d="M495.439 861.25C494.802 861.505 494.166 861.759 493.529 862.046V884.097C494.166 885.052 494.802 886.006 495.439 886.929V861.25Z" fill="white" style="fill:white;fill-opacity:1;"/>
</g>
<g opacity="0.28">
<path d="M625.618 902.776C625.395 903.858 625.14 904.94 624.886 906.054C625.331 906.627 625.745 907.199 626.19 907.772V907.231H639.205C639.555 906.595 639.937 905.958 640.287 905.322H626.19V899.785C625.999 900.772 625.809 901.79 625.618 902.776Z" fill="white" style="fill:white;fill-opacity:1;"/>
</g>
<g opacity="0.34">
<path d="M1020.26 1021.62C1020.16 1020.99 1020.07 1020.35 1019.97 1019.71H1018.38V1008.86C1018.29 1008.35 1018.22 1007.81 1018.16 1007.3C1017.62 1003.93 1017.08 1000.5 1016.47 997.059V1019.71H1001.64C1002.41 1020.35 1003.14 1020.99 1003.9 1021.62H1016.47V1032.63C1017.01 1033.14 1017.55 1033.59 1018.09 1034.1C1018.19 1034.19 1018.29 1034.29 1018.38 1034.38V1021.62H1020.26Z" fill="white" style="fill:white;fill-opacity:1;"/>
</g>
<g opacity="0.12">
<path d="M1038.56 1021.63H1068.05C1068.15 1020.99 1068.25 1020.36 1068.34 1019.72H1038.3C1038.4 1020.36 1038.46 1020.99 1038.56 1021.63Z" fill="white" style="fill:white;fill-opacity:1;"/>
</g>
<g opacity="0.24">
<path d="M1063.76 447.77H1041.42C1041.48 448.406 1041.55 449.042 1041.61 449.679H1063.47C1063.57 449.042 1063.66 448.406 1063.76 447.77Z" fill="white" style="fill:white;fill-opacity:1;"/>
</g>
<g opacity="0.08">
<path d="M755.001 1110.18C755.637 1109.48 756.274 1108.78 756.91 1108.05V1065.16C756.274 1065.44 755.637 1065.73 755.001 1066.05V1110.18Z" fill="white" style="fill:white;fill-opacity:1;"/>
</g>
<g opacity="0.11">
<path d="M649.006 676.531C648.465 677.168 647.924 677.804 647.415 678.441H682.291C681.654 677.804 681.018 677.168 680.381 676.531H649.038H649.006Z" fill="white" style="fill:white;fill-opacity:1;"/>
</g>
<g opacity="0.17">
<path d="M624.281 760.76C624.822 766.488 625.522 772.184 626.191 777.911V744.086C625.554 744.213 624.918 744.341 624.281 744.5V760.76Z" fill="white" style="fill:white;fill-opacity:1;"/>
</g>
<g opacity="0.08">
<path d="M493.529 392.879V401.502C494.166 401.534 494.802 401.598 495.439 401.63V394.597C494.802 394.024 494.166 393.452 493.529 392.879Z" fill="white" style="fill:white;fill-opacity:1;"/>
</g>
<g opacity="0.12">
<path d="M730.467 562.167H626.19V501.262C625.554 501.389 624.917 501.548 624.281 501.675V562.167H583.041C583.773 562.803 584.473 563.44 585.205 564.076H624.313V598.951C624.949 599.524 625.585 600.097 626.222 600.67V564.076H733.935C732.79 563.44 731.644 562.803 730.499 562.167H730.467Z" fill="white" style="fill:white;fill-opacity:1;"/>
</g>
<g opacity="0.17">
<path d="M661.543 905.32C661.161 905.957 660.779 906.593 660.397 907.23H705.392C704.788 906.593 704.183 905.957 703.546 905.32H661.575H661.543Z" fill="white" style="fill:white;fill-opacity:1;"/>
</g>
<g opacity="0.3">
<path d="M690.182 1134.11H638.76C638.855 1134.75 638.951 1135.39 639.078 1136.02H693.014C692.06 1135.39 691.137 1134.75 690.214 1134.11H690.182Z" fill="white" style="fill:white;fill-opacity:1;"/>
</g>
<g opacity="0.28">
<path d="M756.91 905.322V898.417C756.369 898.067 755.796 897.717 755.255 897.335C755.16 897.272 755.096 897.208 755.001 897.145V905.322H728.78C729.353 905.959 729.926 906.595 730.499 907.232H755.032V936.38C755.669 937.175 756.305 938.002 756.942 938.798V907.232H770.816C769.797 906.595 768.779 905.959 767.729 905.322H756.942H756.91Z" fill="white" style="fill:white;fill-opacity:1;"/>
</g>
<g opacity="0.28">
<path d="M756.91 1019.71V969.438C756.274 968.547 755.637 967.688 755.001 966.797V1008.77C756.974 1020.96 756.592 1033.3 755.001 1045.74V1046C755.637 1045.71 756.274 1045.46 756.91 1045.2V1021.62H791.309C790.927 1020.99 790.545 1020.35 790.163 1019.71H756.91Z" fill="white" style="fill:white;fill-opacity:1;"/>
</g>
<g opacity="0.17">
<path d="M158.839 449.679H214.971C216.18 449.042 217.357 448.406 218.567 447.77H159.38C159.221 448.406 159.03 449.042 158.871 449.679H158.839Z" fill="white" style="fill:white;fill-opacity:1;"/>
</g>
<g opacity="0.14">
<path d="M20.9903 564.073H71.0762C73.4946 563.437 75.9448 562.8 78.3632 562.164H20.3857C20.5767 562.8 20.7676 563.437 20.9903 564.073Z" fill="white" style="fill:white;fill-opacity:1;"/>
</g>
<g opacity="0.33">
<path d="M103.247 335.284H152.888C152.824 334.647 152.729 334.011 152.697 333.374H103.279V248.477C102.643 248.477 102.006 248.508 101.37 248.54V333.374H9.3441C9.28046 334.011 9.18499 334.647 9.08953 335.284H101.37V447.77H-27.4407V434.628C-28.0772 435.933 -28.7136 437.206 -29.35 438.51V447.77H-33.964C-34.2822 448.407 -34.6004 449.043 -34.9186 449.679H-29.35V562.166H-66.6758C-66.6758 562.802 -66.6121 563.439 -66.5803 564.075H-29.35V588.609C-28.7136 588.482 -28.0772 588.323 -27.4407 588.195V564.043H2.02531C1.83439 563.407 1.64344 562.77 1.45251 562.134H-27.4407V449.648H101.37V528.022C101.974 527.29 102.643 526.558 103.279 525.827V449.648H139.873C140.032 449.011 140.223 448.375 140.382 447.738H103.279V335.252L103.247 335.284Z" fill="white" style="fill:white;fill-opacity:1;"/>
</g>
<g opacity="0.3">
<path d="M755.001 1141.66C755.637 1141.85 756.274 1142.01 756.91 1142.16V1135.99H798.373C799.518 1135.35 800.696 1134.72 801.841 1134.08H758.056C757.037 1135.2 756.019 1136.28 755.001 1137.36V1141.62V1141.66Z" fill="white" style="fill:white;fill-opacity:1;"/>
</g>
<g opacity="0.13">
<path d="M495.439 1087.31V1077.82C494.802 1077.7 494.166 1077.57 493.529 1077.47V1087.69C494.166 1087.56 494.802 1087.43 495.439 1087.31Z" fill="white" style="fill:white;fill-opacity:1;"/>
</g>
<g opacity="0.09">
<path d="M538.333 1134.11H524.332C523.378 1134.75 522.423 1135.39 521.437 1136.02H538.97C538.747 1135.39 538.524 1134.75 538.302 1134.11H538.333Z" fill="white" style="fill:white;fill-opacity:1;"/>
</g>
<g opacity="0.23">
<path d="M495.439 1131.12V1111.07C494.802 1111.04 494.166 1110.98 493.529 1110.95V1132.27C494.166 1131.88 494.802 1131.5 495.439 1131.12Z" fill="white" style="fill:white;fill-opacity:1;"/>
</g>
<g opacity="0.27">
<path d="M976.06 790.927H887.662V743.736C887.026 743.514 886.389 743.259 885.753 743.004V790.927H756.942V726.426C756.306 726.426 755.669 726.458 755.033 726.489V790.927H627.654C627.718 791.563 627.782 792.199 627.845 792.836H755.033V878.625C755.638 877.925 756.274 877.288 756.942 876.652V792.836H885.753V862.492C886.389 862.555 887.026 862.619 887.662 862.651V792.836H976.124C976.124 792.199 976.092 791.563 976.092 790.927H976.06Z" fill="white" style="fill:white;fill-opacity:1;"/>
</g>
<g opacity="0.21">
<path d="M887.63 234.889V226.838C886.994 226.583 886.357 226.329 885.721 226.074V236.352C886.357 235.875 886.994 235.366 887.63 234.889Z" fill="white" style="fill:white;fill-opacity:1;"/>
</g>
<g opacity="0.09">
<path d="M887.63 257.832C886.993 258.341 886.357 258.818 885.72 259.328V333.375H833.63C833.534 334.011 833.407 334.647 833.312 335.284H885.72V407.167C886.357 405.926 886.993 404.717 887.63 403.476V335.284H926.865C927.278 334.647 927.692 334.011 928.138 333.375H887.63V257.832Z" fill="white" style="fill:white;fill-opacity:1;"/>
</g>
<g opacity="0.05">
<path d="M760.983 449.679H865.164C865.451 449.042 865.769 448.406 866.055 447.77H760.188C760.506 448.374 760.792 449.011 760.983 449.679Z" fill="white" style="fill:white;fill-opacity:1;"/>
</g>
<g opacity="0.16">
<path d="M101.338 220.887V230.083C101.975 230.083 102.611 230.083 103.248 230.019V220.887H145.251C147.033 220.282 148.815 219.614 150.597 218.977H103.248V213.918C102.611 214.809 101.975 215.668 101.338 216.527V218.977H99.5564C99.0791 219.614 98.6336 220.25 98.1562 220.887H101.37H101.338Z" fill="white" style="fill:white;fill-opacity:1;"/>
</g>
<g opacity="0.3">
<path d="M495.439 205.898C494.802 206.153 494.166 206.408 493.529 206.694V218.977H463.968C462.472 219.613 460.945 220.25 459.449 220.886H493.561V263.653C494.198 263.621 494.834 263.59 495.47 263.558V220.886H543.138C543.265 220.25 543.424 219.613 543.583 218.977H495.439V205.898Z" fill="white" style="fill:white;fill-opacity:1;"/>
</g>
<g opacity="0.08">
<path d="M591.474 449.681H624.249V473.642C624.695 473.96 625.14 474.278 625.586 474.597C625.777 474.597 625.967 474.628 626.158 474.66V449.681H705.997C703.197 449.044 700.428 448.408 697.628 447.772H626.158V434.439C625.522 434.343 624.886 434.248 624.249 434.152V447.772H588.96C589.787 448.408 590.646 449.044 591.474 449.681Z" fill="white" style="fill:white;fill-opacity:1;"/>
</g>
<g opacity="0.32">
<path d="M232.09 290.035V315.587C232.726 315.142 233.363 314.728 233.999 314.283V290.449C233.363 290.322 232.726 290.194 232.09 290.035Z" fill="white" style="fill:white;fill-opacity:1;"/>
</g>
<g opacity="0.26">
<path d="M197.979 335.284H206.156C206.92 334.648 207.652 334.011 208.416 333.375H198.965C198.647 334.011 198.329 334.648 198.01 335.284H197.979Z" fill="white" style="fill:white;fill-opacity:1;"/>
</g>
<g opacity="0.2">
<path d="M177.963 335.284C178.249 334.648 178.567 334.011 178.886 333.375H171.217C171.28 334.011 171.376 334.648 171.471 335.284H177.995H177.963Z" fill="white" style="fill:white;fill-opacity:1;"/>
</g>
<g opacity="0.2">
<path d="M364.719 292.642V282.777C364.082 282.777 363.446 282.777 362.81 282.777V292.387C363.446 292.483 364.082 292.578 364.719 292.674V292.642Z" fill="white" style="fill:white;fill-opacity:1;"/>
</g>
<g opacity="0.17">
<path d="M520.227 447.768H495.438V437.554C494.802 437.299 494.166 437.044 493.529 436.79V447.768H364.719V335.282H433.038C432.783 335.027 432.529 334.772 432.306 334.55C431.447 334.295 430.619 333.913 429.792 333.372H364.719V311.13C364.082 311.034 363.446 310.97 362.809 310.875V333.372H238.645C237.754 334.009 236.863 334.645 235.972 335.282H362.777V447.768H353.518C353.74 448.404 353.963 449.041 354.154 449.677H362.777V480.289C363.446 483.185 364.082 486.08 364.687 489.008V449.677H493.497V506.382C494.134 506.286 494.77 506.191 495.407 506.064V449.677H524.714C523.218 449.041 521.691 448.404 520.195 447.768H520.227Z" fill="white" style="fill:white;fill-opacity:1;"/>
</g>
<g opacity="0.22">
<path d="M232.09 338.147V407.834C232.726 408.343 233.363 408.853 233.999 409.394V336.715C233.363 337.192 232.726 337.669 232.09 338.147Z" fill="white" style="fill:white;fill-opacity:1;"/>
</g>
<g opacity="0.15">
<path d="M458.94 335.282H493.561V347.66C494.197 347.597 494.834 347.501 495.47 347.438V335.282H579.605C583.455 334.646 587.337 334.009 591.219 333.373H495.47V281.887C494.834 281.919 494.197 281.95 493.561 281.982V333.373H456.999C457.635 334.009 458.304 334.646 458.94 335.282Z" fill="white" style="fill:white;fill-opacity:1;"/>
</g>
<g opacity="0.19">
<path d="M1062.93 564.073H1089.63C1089.63 563.437 1089.6 562.8 1089.57 562.164H1062.42C1062.58 562.8 1062.74 563.437 1062.9 564.073H1062.93Z" fill="white" style="fill:white;fill-opacity:1;"/>
</g>
<g opacity="0.25">
<path d="M590.265 1134.11H579.636C579.477 1134.75 579.318 1135.39 579.159 1136.02H587.178C588.228 1135.42 589.278 1134.78 590.265 1134.11Z" fill="white" style="fill:white;fill-opacity:1;"/>
</g>
<g opacity="0.18">
<path d="M948.98 335.284H1000.37C1000.31 334.648 1000.21 334.011 1000.12 333.375H950.285C949.84 334.011 949.426 334.648 948.98 335.284Z" fill="white" style="fill:white;fill-opacity:1;"/>
</g>
<g opacity="0.18">
<path d="M613.716 1136.02H621.067C620.972 1135.39 620.876 1134.75 620.781 1134.11H614.926C614.512 1134.75 614.13 1135.39 613.685 1136.02H613.716Z" fill="white" style="fill:white;fill-opacity:1;"/>
</g>
<g opacity="0.3">
<path d="M558.571 792.835H609.485C609.421 792.199 609.357 791.562 609.294 790.926H558.794C558.794 791.562 558.699 792.199 558.571 792.835Z" fill="white" style="fill:white;fill-opacity:1;"/>
</g>
<g opacity="0.25">
<path d="M495.439 823.543C494.802 823.798 494.166 824.052 493.529 824.275V842.317C494.166 842.094 494.802 841.935 495.439 841.713V823.543Z" fill="white" style="fill:white;fill-opacity:1;"/>
</g>
<g opacity="0.27">
<path d="M441.63 562.96C442.489 562.674 443.38 562.419 444.239 562.133H402.14C401.408 562.387 400.708 562.674 399.976 562.928C398.958 563.31 397.908 563.66 396.89 564.042H438.32C439.434 563.692 440.516 563.31 441.63 562.96Z" fill="white" style="fill:white;fill-opacity:1;"/>
</g>
<g opacity="0.3">
<path d="M543.647 562.164C543.711 562.8 543.679 563.437 543.647 564.073H557.617C556.917 563.437 556.185 562.8 555.485 562.164H543.679H543.647Z" fill="white" style="fill:white;fill-opacity:1;"/>
</g>
<g opacity="0.27">
<path d="M493.529 549.725C494.166 549.629 494.802 549.534 495.439 549.438V525C494.802 525.095 494.166 525.191 493.529 525.318V549.725Z" fill="white" style="fill:white;fill-opacity:1;"/>
</g>
<g opacity="0.11">
<path d="M501.357 677.072C502.217 677.55 503.108 677.995 503.999 678.441H513.895C513.768 677.963 513.672 677.518 513.545 677.04C513.068 676.881 512.59 676.69 512.113 676.531H502.789C502.312 676.722 501.803 676.881 501.357 677.072Z" fill="white" style="fill:white;fill-opacity:1;"/>
</g>
<g opacity="0.12">
<path d="M624.281 676.528H578.141C578.141 677.164 578.141 677.801 578.014 678.437H623.995C624.727 677.355 625.458 676.273 626.19 675.191V625.328C625.554 624.755 624.917 624.183 624.281 623.578V676.496V676.528Z" fill="white" style="fill:white;fill-opacity:1;"/>
</g>
<g opacity="0.34">
<path d="M495.439 620.555C494.834 619.346 494.166 618.201 493.529 617.023V650.69C494.166 650.913 494.802 651.135 495.439 651.358V620.555Z" fill="white" style="fill:white;fill-opacity:1;"/>
</g>
<g opacity="0.27">
<path d="M440.739 907.23H488.343C487.834 906.593 487.324 905.957 486.815 905.32H439.784C440.102 905.957 440.421 906.593 440.739 907.23Z" fill="white" style="fill:white;fill-opacity:1;"/>
</g>
<g opacity="0.21">
<path d="M624.44 726.106C625.013 725.978 625.586 725.883 626.159 725.756V718.755C626.159 718.755 626.031 718.723 625.968 718.691C625.363 721.11 624.854 723.592 624.44 726.106Z" fill="white" style="fill:white;fill-opacity:1;"/>
</g>
<g opacity="0.23">
<path d="M495.439 694.635C494.802 694.317 494.166 693.967 493.529 693.648V742.016C494.166 742.302 494.802 742.589 495.439 742.875V694.635Z" fill="white" style="fill:white;fill-opacity:1;"/>
</g>
<g opacity="0.09">
<path d="M513.736 907.23H601.434C600.861 906.593 600.289 905.957 599.716 905.32H511.954C512.559 905.957 513.163 906.593 513.768 907.23H513.736Z" fill="white" style="fill:white;fill-opacity:1;"/>
</g>
<g opacity="0.12">
<path d="M624.281 1055.17C624.917 1054.97 625.554 1054.82 626.19 1054.62V1021.63H737.659C737.659 1020.99 737.659 1020.35 737.595 1019.72H626.19V989.424C625.554 989.169 624.917 988.915 624.281 988.66V1019.72H610.853C610.63 1020.35 610.439 1020.99 610.248 1021.63H624.281V1055.17Z" fill="white" style="fill:white;fill-opacity:1;"/>
</g>
<g opacity="0.19">
<path d="M624.281 1074.16V1076.48C624.949 1077.63 625.586 1078.81 626.191 1080.02V1073.62C625.554 1073.81 624.918 1073.97 624.281 1074.16Z" fill="white" style="fill:white;fill-opacity:1;"/>
</g>
<g opacity="0.31">
<path d="M940.007 220.886H962.568C961.931 220.249 961.295 219.613 960.627 218.977H943.125C942.075 219.613 941.057 220.249 940.007 220.886Z" fill="white" style="fill:white;fill-opacity:1;"/>
</g>
<g opacity="0.29">
<path d="M233.776 493.463C233.776 493.463 233.935 493.336 233.999 493.304V460.465C233.363 460.783 232.726 461.101 232.09 461.419V494.704C232.663 494.29 233.235 493.909 233.776 493.495V493.463Z" fill="white" style="fill:white;fill-opacity:1;"/>
</g>
<g opacity="0.34">
<path d="M234 562.164V515.578C233.363 515.992 232.727 516.405 232.09 516.787V562.132H166.476C165.871 562.768 165.267 563.405 164.662 564.041H232.09V596.562C232.727 596.339 233.363 596.116 234 595.862V564.041H342.254C344.1 563.405 345.913 562.768 347.727 562.132H234V562.164Z" fill="white" style="fill:white;fill-opacity:1;"/>
</g>
<g opacity="0.26">
<path d="M364.719 1184.2C364.082 1184.2 363.446 1184.26 362.81 1184.29V1197.6C363.446 1197.66 364.082 1197.69 364.719 1197.75V1184.2Z" fill="white" style="fill:white;fill-opacity:1;"/>
</g>
<g opacity="0.32">
<path d="M345.913 676.659C346.772 677.263 347.631 677.836 348.458 678.441H353.741C353.741 677.804 353.741 677.168 353.741 676.531H345.722C345.722 676.531 345.849 676.627 345.881 676.659H345.913Z" fill="white" style="fill:white;fill-opacity:1;"/>
</g>
<g opacity="0.13">
<path d="M314.664 676.529H233.999V632.68C233.362 632.807 232.726 632.934 232.089 633.03V676.529H166.889C167.461 677.165 168.034 677.802 168.607 678.438H232.121V744.625C232.439 744.943 232.758 745.262 233.076 745.58C233.394 745.484 233.712 745.389 234.031 745.294V678.438H316.542C316.542 678.438 316.701 678.183 316.765 678.088C316.065 677.579 315.396 677.07 314.696 676.529H314.664Z" fill="white" style="fill:white;fill-opacity:1;"/>
</g>
<g opacity="0.34">
<path d="M362.81 1136.02V1165.96C363.446 1165.93 364.083 1165.9 364.719 1165.87V1136.02H487.006C488.152 1135.38 489.266 1134.75 490.411 1134.11H364.751V1109.64C364.337 1109.64 363.892 1109.64 363.478 1109.67C363.255 1109.74 363.064 1109.83 362.842 1109.9V1134.08H298.341C296.718 1134.72 295.063 1135.35 293.44 1135.99H362.842L362.81 1136.02Z" fill="white" style="fill:white;fill-opacity:1;"/>
</g>
<g opacity="0.14">
<path d="M894.821 1134.11C895.68 1134.78 896.54 1135.42 897.399 1136.02H911.877C911.177 1135.39 910.477 1134.72 909.777 1134.11H894.821Z" fill="white" style="fill:white;fill-opacity:1;"/>
</g>
<g opacity="0.3">
<path d="M970.618 905.323H887.662V880.948C887.025 880.885 886.389 880.853 885.752 880.789V905.323H803.527C804.641 905.959 805.787 906.596 806.9 907.232H885.752V948.79C886.389 949.108 887.025 949.426 887.662 949.777V907.232H970.396C970.459 906.596 970.555 905.959 970.618 905.323Z" fill="white" style="fill:white;fill-opacity:1;"/>
</g>
<g opacity="0.16">
<path d="M626.191 1159.12C625.459 1157.02 624.854 1154.92 624.281 1152.76V1171.47C624.918 1171.4 625.554 1171.37 626.191 1171.31V1159.12Z" fill="white" style="fill:white;fill-opacity:1;"/>
</g>
<g opacity="0.32">
<path d="M837.958 1136.02H869.237C868.601 1135.39 867.996 1134.75 867.36 1134.11H842.317C840.853 1134.75 839.39 1135.35 837.926 1136.02H837.958Z" fill="white" style="fill:white;fill-opacity:1;"/>
</g>
<g opacity="0.2">
<path d="M63.5036 678.441H78.3639C78.3639 677.804 78.3639 677.168 78.3639 676.531H62.8672C63.0899 677.168 63.3127 677.804 63.5354 678.441H63.5036Z" fill="white" style="fill:white;fill-opacity:1;"/>
</g>
<g opacity="0.19">
<path d="M43.3926 676.531H20.0997C18.9542 677.168 17.8086 677.804 16.6631 678.441H44.0926C43.8699 677.804 43.6153 677.168 43.3926 676.531Z" fill="white" style="fill:white;fill-opacity:1;"/>
</g>
<g opacity="0.22">
<path d="M2.69336 792.835H79.3497C79.1906 792.199 78.9996 791.562 78.8405 790.926H1.92969C2.18425 791.562 2.43879 792.199 2.69336 792.835Z" fill="white" style="fill:white;fill-opacity:1;"/>
</g>
<g opacity="0.19">
<path d="M101.338 792.833V801.425C101.975 801.17 102.611 800.916 103.247 800.661V792.833H122.531C124.09 792.197 125.617 791.56 127.177 790.924H103.279V736.288C102.643 735.588 102.006 734.888 101.37 734.188V790.924H97.8379C97.997 791.56 98.1879 792.197 98.347 792.833H101.37H101.338Z" fill="white" style="fill:white;fill-opacity:1;"/>
</g>
<g opacity="0.19">
<path d="M249.496 792.07C247.491 791.688 245.454 791.306 243.45 790.924H233.999V789.174C233.363 789.047 232.726 788.952 232.09 788.824V790.956H174.526C172.999 791.593 171.503 792.229 169.976 792.865H232.09V828.25C232.726 828.218 233.363 828.186 233.999 828.155V792.865H253.569C252.201 792.611 250.832 792.356 249.496 792.102V792.07Z" fill="white" style="fill:white;fill-opacity:1;"/>
</g>
<g opacity="0.1">
<path d="M232.09 935.74V980.957C232.822 981.403 233.458 981.912 233.999 982.421V933.035C233.363 933.926 232.726 934.817 232.09 935.74Z" fill="white" style="fill:white;fill-opacity:1;"/>
</g>
<g opacity="0.18">
<path d="M495.439 1019.72V915.186C494.803 914.517 494.166 913.817 493.53 913.117V1019.72H364.719V987.991C364.115 988.469 363.478 988.851 362.81 989.169V1019.75H233.999V994.419C233.427 995.119 232.79 995.724 232.09 996.233V1019.75H103.28V995.024C102.643 995.501 102.007 995.979 101.37 996.456V1019.75H-8.72949C-7.67941 1020.39 -6.6293 1021.02 -5.57922 1021.66H101.402V1116.74C102.039 1116.64 102.675 1116.55 103.312 1116.45V1021.66H232.122V1100.57C232.758 1100.51 233.395 1100.45 234.031 1100.38V1021.66H362.842V1090.84C363.478 1090.61 364.115 1090.39 364.751 1090.17V1021.66H493.562V1058.73C494.198 1058.82 494.835 1058.92 495.471 1059.05V1021.66H591.061C591.251 1021.02 591.442 1020.39 591.665 1019.75H495.503L495.439 1019.72Z" fill="white" style="fill:white;fill-opacity:1;"/>
</g>
<g opacity="0.28">
<path d="M950.985 1019.72H887.63V970.522C886.994 970.172 886.357 969.854 885.721 969.504V1019.69H811.292C811.674 1020.32 812.056 1020.96 812.437 1021.59H885.721V1105.09C886.357 1105.12 886.994 1105.19 887.63 1105.25V1021.59H950.54C950.699 1020.96 950.826 1020.32 950.953 1019.69L950.985 1019.72Z" fill="white" style="fill:white;fill-opacity:1;"/>
</g>
<g opacity="0.24">
<path d="M267.156 447.77C267.443 448.406 267.729 449.042 268.015 449.679H334.998C334.775 449.042 334.585 448.406 334.33 447.77H267.156Z" fill="white" style="fill:white;fill-opacity:1;"/>
</g>
<g opacity="0.07">
<path d="M466.896 676.531H383.08C383.716 677.168 384.321 677.804 384.957 678.441H464.891C465.56 677.804 466.196 677.168 466.896 676.531Z" fill="white" style="fill:white;fill-opacity:1;"/>
</g>
<g opacity="0.11">
<path d="M1018.38 905.321V822.396C1017.75 821.855 1017.11 821.314 1016.47 820.773V905.353H1002.92C1003.36 905.989 1003.81 906.626 1004.25 907.262H1016.44V929.187C1017.11 930.651 1017.75 932.114 1018.35 933.578V907.262H1081.04C1081.1 906.626 1081.13 905.989 1081.16 905.353H1018.35L1018.38 905.321Z" fill="white" style="fill:white;fill-opacity:1;"/>
</g>
<g opacity="0.19">
<path d="M233.999 434.501C233.363 433.897 232.726 433.26 232.09 432.688V441.12C232.726 440.834 233.363 440.547 233.999 440.261V434.501Z" fill="white" style="fill:white;fill-opacity:1;"/>
</g>
<g opacity="0.16">
<path d="M103.248 704.849V678.47H144.265C143.724 677.833 143.183 677.197 142.61 676.56H103.248V645.535C102.548 647.19 101.943 648.876 101.339 650.531V676.529H96.7246C96.7246 677.165 96.7246 677.801 96.7565 678.438H101.339V700.299C101.943 701.826 102.548 703.354 103.248 704.817V704.849Z" fill="white" style="fill:white;fill-opacity:1;"/>
</g>
<g opacity="0.19">
<path d="M345.945 792.835H353.232C353.232 792.199 353.232 791.562 353.232 790.926H347.727C347.122 791.562 346.518 792.199 345.913 792.835H345.945Z" fill="white" style="fill:white;fill-opacity:1;"/>
</g>
<g opacity="0.22">
<path d="M233.999 901.596V846.355C233.363 846.387 232.726 846.451 232.09 846.483V904.237C232.726 903.347 233.363 902.487 233.999 901.596Z" fill="white" style="fill:white;fill-opacity:1;"/>
</g>
<g opacity="0.09">
<path d="M231.294 905.32H146.556C146.333 905.957 146.078 906.593 145.855 907.23H229.926C230.371 906.593 230.849 905.957 231.294 905.32Z" fill="white" style="fill:white;fill-opacity:1;"/>
</g>
</g>
<rect x="73" y="391" width="684" height="577" fill="#0C0C0E" style="fill:#0C0C0E;fill:color(display-p3 0.0471 0.0471 0.0549);fill-opacity:1;"/>
<path d="M900.24 180.217L987.6 180.217L987.6 204.377L904.24 204.377C898.48 204.377 894 203.524 890.8 201.817C887.707 200.11 885.467 197.23 884.08 193.177C882.693 189.23 882 183.577 882 176.217L882 142.777L900.24 142.777L900.24 180.217ZM987.6 341.596L924.88 341.596C915.067 341.596 908.133 343.622 904.08 347.676C900.133 351.729 898.16 358.342 898.16 367.516C898.16 376.689 900.133 383.302 904.08 387.356C908.133 391.409 915.067 393.436 924.88 393.436L987.6 393.436L987.6 417.436L922 417.436C908.133 417.436 897.573 413.276 890.32 404.956C883.067 396.636 879.44 384.156 879.44 367.516C879.44 350.769 883.013 338.236 890.16 329.916C897.413 321.702 908.027 317.596 922 317.596L987.6 317.596L987.6 341.596ZM987.6 530.696L987.6 588.776C987.6 600.509 984.987 609.362 979.76 615.336C974.64 621.416 967.707 624.456 958.96 624.456C952.453 624.456 946.853 622.696 942.16 619.176C937.573 615.762 934.267 611.176 932.24 605.416L930.16 605.416C926.427 617.576 918.853 623.069 907.44 621.896C903.813 621.576 900.4 621.416 897.2 621.416C891.76 621.416 886.693 621.842 882 622.696L882 598.696C885.627 597.949 890 597.576 895.12 597.576C899.067 597.576 902.693 597.789 906 598.216C911.44 598.749 915.6 597.202 918.48 593.576C921.36 589.949 922.8 585.149 922.8 579.176L922.8 554.856L882 554.856L882 530.696L987.6 530.696ZM939.76 582.216C939.76 588.296 940.987 592.669 943.44 595.336C946 598.109 949.893 599.496 955.12 599.496C960.24 599.496 963.92 598.162 966.16 595.496C968.507 592.829 969.68 588.562 969.68 582.696L969.68 554.856L939.76 554.856L939.76 582.216ZM905.68 819.153L905.68 770.193L882 760.913L882 737.233L987.6 776.913L987.6 812.273L882 851.953L882 828.113L905.68 819.153ZM923.44 812.913L968.24 795.793L968.24 793.233L923.6 776.273L923.44 812.913ZM987.6 1017.98C987.6 1029.6 985.2 1039.26 980.4 1046.94C975.707 1054.62 969.413 1060.27 961.52 1063.9C953.627 1067.63 944.827 1069.5 935.12 1069.5C925.307 1069.5 916.4 1067.63 908.4 1063.9C900.4 1060.27 894 1054.56 889.2 1046.78C884.4 1039.1 882 1029.5 882 1017.98L882 965.177L987.6 965.177L987.6 1017.98ZM900.08 1012.54C900.08 1023.95 903.013 1032.11 908.88 1037.02C914.747 1041.92 923.493 1044.38 935.12 1044.38C946.747 1044.38 955.387 1041.87 961.04 1036.86C966.693 1031.95 969.52 1023.84 969.52 1012.54L969.52 989.017L900.08 989.017L900.08 1012.54ZM880.4 1241.05C880.4 1227.71 882.8 1216.67 887.6 1207.93C892.4 1199.29 898.853 1192.94 906.96 1188.89C915.067 1184.83 924.293 1182.81 934.64 1182.81C944.773 1182.81 953.947 1184.83 962.16 1188.89C970.373 1192.94 976.933 1199.29 981.84 1207.93C986.747 1216.67 989.2 1227.71 989.2 1241.05C989.2 1254.38 986.693 1265.42 981.68 1274.17C976.773 1282.91 970.213 1289.31 962 1293.37C953.787 1297.42 944.667 1299.45 934.64 1299.45C924.4 1299.45 915.173 1297.42 906.96 1293.37C898.853 1289.31 892.4 1282.91 887.6 1274.17C882.8 1265.53 880.4 1254.49 880.4 1241.05ZM934.64 1207.77C923.653 1207.77 914.96 1210.49 908.56 1215.93C902.16 1221.47 898.96 1229.85 898.96 1241.05C898.96 1252.35 902.16 1260.73 908.56 1266.17C914.96 1271.61 923.653 1274.33 934.64 1274.33C945.733 1274.33 954.48 1271.61 960.88 1266.17C967.28 1260.73 970.48 1252.35 970.48 1241.05C970.48 1229.85 967.227 1221.47 960.72 1215.93C954.32 1210.49 945.627 1207.77 934.64 1207.77Z" fill="#FAFAFA" style="fill:#FAFAFA;fill:color(display-p3 0.9804 0.9804 0.9804);fill-opacity:1;"/>
<line x1="762.5" y1="-21" x2="762.5" y2="1497" stroke="#4C4C4C" style="stroke:#4C4C4C;stroke:color(display-p3 0.2980 0.2980 0.2980);stroke-opacity:1;"/>
<line x1="71.5" y1="-21" x2="71.4999" y2="1497" stroke="#4C4C4C" style="stroke:#4C4C4C;stroke:color(display-p3 0.2980 0.2980 0.2980);stroke-opacity:1;"/>
<line x1="1111" y1="53.5" x2="-90" y2="53.5" stroke="#4C4C4C" style="stroke:#4C4C4C;stroke:color(display-p3 0.2980 0.2980 0.2980);stroke-opacity:1;"/>
<line x1="762" y1="273.5" x2="-39" y2="273.5" stroke="#4C4C4C" style="stroke:#4C4C4C;stroke:color(display-p3 0.2980 0.2980 0.2980);stroke-opacity:1;"/>
<line x1="762" y1="391.5" x2="-19" y2="391.5" stroke="#4C4C4C" style="stroke:#4C4C4C;stroke:color(display-p3 0.2980 0.2980 0.2980);stroke-opacity:1;"/>
<line x1="1137" y1="1387.5" x2="-19" y2="1387.5" stroke="#4C4C4C" style="stroke:#4C4C4C;stroke:color(display-p3 0.2980 0.2980 0.2980);stroke-opacity:1;"/>
<line x1="762" y1="967.5" x2="-19" y2="967.5" stroke="#4C4C4C" style="stroke:#4C4C4C;stroke:color(display-p3 0.2980 0.2980 0.2980);stroke-opacity:1;"/>
<line x1="762" y1="1085.5" x2="-19" y2="1085.5" stroke="#4C4C4C" style="stroke:#4C4C4C;stroke:color(display-p3 0.2980 0.2980 0.2980);stroke-opacity:1;"/>
<line x1="70" y1="385" x2="70" y2="419" stroke="white" style="stroke:white;stroke-opacity:1;" stroke-width="8"/>
<line x1="68" y1="389" x2="102" y2="389" stroke="white" style="stroke:white;stroke-opacity:1;" stroke-width="8"/>
<line y1="-4" x2="34" y2="-4" transform="matrix(4.37114e-08 1 1 -4.37114e-08 766 385)" stroke="white" style="stroke:white;stroke-opacity:1;" stroke-width="8"/>
<line y1="-4" x2="34" y2="-4" transform="matrix(-1 1.74846e-07 1.74846e-07 1 764 393)" stroke="white" style="stroke:white;stroke-opacity:1;" stroke-width="8"/>
<line x1="71" y1="51" x2="71" y2="85" stroke="white" style="stroke:white;stroke-opacity:1;" stroke-width="4"/>
<line x1="69" y1="53" x2="103" y2="53" stroke="white" style="stroke:white;stroke-opacity:1;" stroke-width="4"/>
<line y1="-2" x2="34" y2="-2" transform="matrix(4.37114e-08 1 1 -4.37114e-08 764 51)" stroke="white" style="stroke:white;stroke-opacity:1;" stroke-width="4"/>
<line y1="-2" x2="34" y2="-2" transform="matrix(-1 1.74846e-07 1.74846e-07 1 764 55)" stroke="white" style="stroke:white;stroke-opacity:1;" stroke-width="4"/>
<line x1="71" y1="1083" x2="71" y2="1117" stroke="white" style="stroke:white;stroke-opacity:1;" stroke-width="4"/>
<line x1="69" y1="1085" x2="103" y2="1085" stroke="white" style="stroke:white;stroke-opacity:1;" stroke-width="4"/>
<line y1="-2" x2="34" y2="-2" transform="matrix(4.37114e-08 1 1 -4.37114e-08 764 1083)" stroke="white" style="stroke:white;stroke-opacity:1;" stroke-width="4"/>
<line y1="-2" x2="34" y2="-2" transform="matrix(-1 1.74846e-07 1.74846e-07 1 764 1087)" stroke="white" style="stroke:white;stroke-opacity:1;" stroke-width="4"/>
<line y1="-2" x2="34" y2="-2" transform="matrix(-4.37114e-08 -1 -1 4.37114e-08 69 273)" stroke="white" style="stroke:white;stroke-opacity:1;" stroke-width="4"/>
<line y1="-2" x2="34" y2="-2" transform="matrix(1 -1.74846e-07 -1.74846e-07 -1 69 269)" stroke="white" style="stroke:white;stroke-opacity:1;" stroke-width="4"/>
<line x1="762" y1="273" x2="762" y2="239" stroke="white" style="stroke:white;stroke-opacity:1;" stroke-width="4"/>
<line x1="764" y1="271" x2="730" y2="271" stroke="white" style="stroke:white;stroke-opacity:1;" stroke-width="4"/>
<line y1="-2" x2="34" y2="-2" transform="matrix(-4.37114e-08 -1 -1 4.37114e-08 69 1387)" stroke="white" style="stroke:white;stroke-opacity:1;" stroke-width="4"/>
<line y1="-2" x2="34" y2="-2" transform="matrix(1 -1.74846e-07 -1.74846e-07 -1 69 1383)" stroke="white" style="stroke:white;stroke-opacity:1;" stroke-width="4"/>
<line x1="762" y1="1387" x2="762" y2="1353" stroke="white" style="stroke:white;stroke-opacity:1;" stroke-width="4"/>
<line x1="764" y1="1385" x2="730" y2="1385" stroke="white" style="stroke:white;stroke-opacity:1;" stroke-width="4"/>
<line y1="-4" x2="34" y2="-4" transform="matrix(-4.37114e-08 -1 -1 4.37114e-08 66 967)" stroke="white" style="stroke:white;stroke-opacity:1;" stroke-width="8"/>
<line y1="-4" x2="34" y2="-4" transform="matrix(1 -1.74846e-07 -1.74846e-07 -1 68 959)" stroke="white" style="stroke:white;stroke-opacity:1;" stroke-width="8"/>
<line x1="762" y1="967" x2="762" y2="933" stroke="white" style="stroke:white;stroke-opacity:1;" stroke-width="8"/>
<line x1="764" y1="963" x2="730" y2="963" stroke="white" style="stroke:white;stroke-opacity:1;" stroke-width="8"/>
<path d="M200.382 127.348L218.268 174.959H210.039L205.959 163.804H178.751L174.332 174.959H166.172L184.94 127.348H192.695L180.998 157.276H203.717L192.695 127.348H200.382Z" fill="#F6F6F6" style="fill:#F6F6F6;fill:color(display-p3 0.9647 0.9647 0.9647);fill-opacity:1;"/>
<path d="M282.204 127.348V174.959H274.656V154.487H242.417V174.959H234.868V127.348H242.417V147.411H274.656V127.348H282.204Z" fill="#F6F6F6" style="fill:#F6F6F6;fill:color(display-p3 0.9647 0.9647 0.9647);fill-opacity:1;"/>
<path d="M319.404 127.348L337.29 174.959H329.062L324.982 163.804H297.779L293.359 174.959H285.199L303.972 127.348H311.727L300.03 157.276H322.749L311.732 127.348H319.418H319.404Z" fill="#F6F6F6" style="fill:#F6F6F6;fill:color(display-p3 0.9647 0.9647 0.9647);fill-opacity:1;"/>
<path d="M359.399 174.963C355.544 174.963 352.099 174.43 349.062 173.364C346.025 172.298 343.452 170.745 341.343 168.705C339.234 166.665 337.626 164.17 336.514 161.225C335.403 158.276 334.847 154.945 334.847 151.228C334.847 147.511 335.435 144.176 336.616 141.231C337.796 138.281 339.473 135.777 341.651 133.714C343.829 131.651 346.448 130.075 349.507 128.986C352.567 127.898 356.004 127.355 359.813 127.355C362.67 127.355 365.445 127.663 368.142 128.274C370.839 128.885 373.279 129.873 375.452 131.233C377.63 132.593 379.454 134.353 380.928 136.503C382.403 138.658 383.345 141.254 383.749 144.29H376.063C375.746 142.839 375.112 141.515 374.161 140.312C373.21 139.113 372.02 138.079 370.591 137.215C369.162 136.356 367.508 135.685 365.625 135.207C363.741 134.729 361.738 134.495 359.606 134.495C356.569 134.495 353.973 134.936 351.818 135.823C349.664 136.705 347.895 137.909 346.512 139.43C345.129 140.95 344.118 142.719 343.484 144.736C342.85 146.753 342.533 148.899 342.533 151.164C342.533 153.429 342.841 155.574 343.452 157.591C344.063 159.608 345.037 161.377 346.379 162.898C347.716 164.418 349.475 165.618 351.648 166.504C353.822 167.391 356.477 167.832 359.606 167.832C361.421 167.832 363.222 167.639 365.013 167.253C366.805 166.867 368.459 166.279 369.98 165.484C371.501 164.69 372.815 163.67 373.927 162.424C375.038 161.179 375.796 159.668 376.205 157.904H383.823C383.322 160.94 382.316 163.536 380.795 165.691C379.274 167.846 377.405 169.615 375.185 170.998C372.962 172.381 370.495 173.391 367.77 174.025C365.05 174.659 362.261 174.976 359.404 174.976L359.399 174.963Z" fill="#F6F6F6" style="fill:#F6F6F6;fill:color(display-p3 0.9647 0.9647 0.9647);fill-opacity:1;"/>
<path d="M397.619 153.398V174.959H390.07V127.348H397.619V152.718" fill="#F6F6F6" style="fill:#F6F6F6;fill:color(display-p3 0.9647 0.9647 0.9647);fill-opacity:1;"/>
<path d="M469.783 127.348L487.669 174.959H479.441L475.361 163.804H448.158L443.738 174.959H435.578L454.351 127.348H462.106L450.409 157.276H473.128L462.111 127.348H469.797H469.783Z" fill="#F6F6F6" style="fill:#F6F6F6;fill:color(display-p3 0.9647 0.9647 0.9647);fill-opacity:1;"/>
<path d="M524.333 127.348V134.423H505.831V174.959H498.283V134.423H479.781V127.348H524.328H524.333Z" fill="#F6F6F6" style="fill:#F6F6F6;fill:color(display-p3 0.9647 0.9647 0.9647);fill-opacity:1;"/>
<path d="M575.068 127.348V174.959H567.52V154.487H535.281V174.959H527.732V127.348H535.281V147.411H567.52V127.348H575.068Z" fill="#F6F6F6" style="fill:#F6F6F6;fill:color(display-p3 0.9647 0.9647 0.9647);fill-opacity:1;"/>
<path d="M629.549 151.159C629.549 158.914 627.349 164.818 622.952 168.875C618.555 172.932 612.228 174.963 603.977 174.963C595.725 174.963 589.298 172.932 584.965 168.875C580.633 164.818 578.469 158.91 578.469 151.159C578.469 143.408 580.688 137.385 585.135 133.374C589.578 129.363 595.881 127.355 604.041 127.355C612.201 127.355 618.495 129.317 622.915 133.241C627.335 137.164 629.545 143.137 629.545 151.164L629.549 151.159ZM621.863 151.021C621.863 145.761 620.365 141.695 617.374 138.814C614.383 135.933 609.959 134.495 604.11 134.495C598.261 134.495 593.75 135.947 590.713 138.846C587.676 141.75 586.155 145.852 586.155 151.154C586.155 156.456 587.685 160.734 590.745 163.568C593.805 166.403 598.261 167.818 604.11 167.818C609.959 167.818 614.663 166.321 617.544 163.33C620.425 160.339 621.863 156.236 621.863 151.021Z" fill="#F6F6F6" style="fill:#F6F6F6;fill:color(display-p3 0.9647 0.9647 0.9647);fill-opacity:1;"/>
<path d="M632.949 174.959V127.348H640.429V174.959H632.949ZM678.792 127.348V174.959H663.557L640.433 127.348H648.051L671.312 174.959V127.348H678.792Z" fill="#F6F6F6" style="fill:#F6F6F6;fill:color(display-p3 0.9647 0.9647 0.9647);fill-opacity:1;"/>
<path d="M397.62 152.718L422.108 127.348H432.446L411.835 148.431L432.583 174.959H423.33L406.395 153.398H397.62" fill="#B91F2E" style="fill:#B91F2E;fill:color(display-p3 0.7255 0.1216 0.1804);fill-opacity:1;"/>
<path d="M162.837 133.082H155.288V174.965H162.837V133.082Z" fill="#F6F6F6" style="fill:#F6F6F6;fill:color(display-p3 0.9647 0.9647 0.9647);fill-opacity:1;"/>
<path d="M171.005 121H163.452V128.507H171.005V121Z" fill="#B91F2E" style="fill:#B91F2E;fill:color(display-p3 0.7255 0.1216 0.1804);fill-opacity:1;"/>
<path d="M155.876 222.804H154V201.538H160.31C161.522 201.538 162.564 201.714 163.436 202.067C164.308 202.419 164.971 202.909 165.426 203.535C165.88 204.142 166.202 204.779 166.392 205.445C166.581 206.11 166.676 206.825 166.676 207.589C166.676 210.976 165.331 213.091 162.64 213.933L167.358 222.804H165.283L160.708 214.374H155.876V222.804ZM155.876 203.271V212.7H159.258C161.001 212.7 162.337 212.367 163.265 211.701C164.213 211.016 164.687 209.704 164.687 207.765C164.687 205.964 164.213 204.769 163.265 204.182C162.337 203.575 160.745 203.271 158.491 203.271H155.876Z" fill="#F6F6F6" style="fill:#F6F6F6;fill:color(display-p3 0.9647 0.9647 0.9647);fill-opacity:1;"/>
<path d="M190.127 223.156C189.009 223.156 188.043 222.98 187.228 222.628C186.414 222.255 185.75 221.756 185.239 221.13C184.746 220.503 184.348 219.71 184.045 218.75C183.742 217.791 183.533 216.792 183.42 215.754C183.325 214.717 183.278 213.512 183.278 212.142C183.278 210.458 183.391 208.989 183.619 207.736C183.846 206.463 184.225 205.317 184.756 204.299C185.286 203.281 186.035 202.507 187.001 201.979C187.967 201.43 189.142 201.156 190.525 201.156C191.624 201.156 192.572 201.342 193.367 201.714C194.182 202.067 194.826 202.547 195.3 203.154C195.793 203.761 196.181 204.534 196.465 205.474C196.769 206.394 196.967 207.344 197.062 208.323C197.176 209.302 197.233 210.428 197.233 211.701C197.233 213.542 197.129 215.128 196.92 216.459C196.712 217.771 196.342 218.956 195.812 220.013C195.3 221.051 194.571 221.834 193.623 222.363C192.676 222.892 191.51 223.156 190.127 223.156ZM186.347 219.25C187.086 220.718 188.384 221.453 190.241 221.453C192.098 221.453 193.396 220.699 194.135 219.191C194.893 217.664 195.272 215.265 195.272 211.995C195.272 208.881 194.921 206.59 194.22 205.122C193.519 203.633 192.268 202.889 190.468 202.889C188.611 202.889 187.276 203.653 186.461 205.18C185.665 206.708 185.267 209.028 185.267 212.142C185.267 215.412 185.627 217.781 186.347 219.25Z" fill="#F6F6F6" style="fill:#F6F6F6;fill:color(display-p3 0.9647 0.9647 0.9647);fill-opacity:1;"/>
<path d="M228.443 222.804H226.34L224.18 215.96H216.364L214.175 222.804H212.3L219.178 201.538H221.451L228.443 222.804ZM220.286 203.653L216.904 214.227H223.64L220.314 203.653H220.286Z" fill="#F6F6F6" style="fill:#F6F6F6;fill:color(display-p3 0.9647 0.9647 0.9647);fill-opacity:1;"/>
<path d="M248.228 222.804H244.164V201.538H248.711C254.566 201.538 257.493 204.975 257.493 211.848C257.493 215.255 256.735 217.938 255.22 219.896C253.704 221.834 251.373 222.804 248.228 222.804ZM246.068 203.242V221.1H248.37C250.72 221.1 252.491 220.336 253.685 218.809C254.898 217.282 255.504 215.108 255.504 212.288C255.504 208.94 254.916 206.6 253.742 205.268C252.586 203.917 250.852 203.242 248.541 203.242H246.068Z" fill="#F6F6F6" style="fill:#F6F6F6;fill:color(display-p3 0.9647 0.9647 0.9647);fill-opacity:1;"/>
<path d="M311.729 222.804H309.824V203.242H303.259V201.538H318.266V203.242H311.729V222.804Z" fill="#F6F6F6" style="fill:#F6F6F6;fill:color(display-p3 0.9647 0.9647 0.9647);fill-opacity:1;"/>
<path d="M340.779 223.156C339.661 223.156 338.695 222.98 337.88 222.628C337.065 222.255 336.402 221.756 335.89 221.13C335.398 220.503 335 219.71 334.697 218.75C334.393 217.791 334.185 216.792 334.071 215.754C333.977 214.717 333.929 213.512 333.929 212.142C333.929 210.458 334.043 208.989 334.27 207.736C334.498 206.463 334.877 205.317 335.407 204.299C335.938 203.281 336.686 202.507 337.653 201.979C338.619 201.43 339.794 201.156 341.177 201.156C342.276 201.156 343.223 201.342 344.019 201.714C344.834 202.067 345.478 202.547 345.952 203.154C346.444 203.761 346.833 204.534 347.117 205.474C347.42 206.394 347.619 207.344 347.714 208.323C347.827 209.302 347.884 210.428 347.884 211.701C347.884 213.542 347.78 215.128 347.572 216.459C347.363 217.771 346.994 218.956 346.463 220.013C345.952 221.051 345.222 221.834 344.275 222.363C343.327 222.892 342.162 223.156 340.779 223.156ZM336.999 219.25C337.738 220.718 339.036 221.453 340.893 221.453C342.749 221.453 344.047 220.699 344.786 219.191C345.544 217.664 345.923 215.265 345.923 211.995C345.923 208.881 345.573 206.59 344.872 205.122C344.171 203.633 342.92 202.889 341.12 202.889C339.263 202.889 337.927 203.653 337.112 205.18C336.317 206.708 335.919 209.028 335.919 212.142C335.919 215.412 336.279 217.781 336.999 219.25Z" fill="#F6F6F6" style="fill:#F6F6F6;fill:color(display-p3 0.9647 0.9647 0.9647);fill-opacity:1;"/>
<path d="M400.954 223.156C398.87 223.156 397.316 222.696 396.293 221.776C395.27 220.836 394.597 219.328 394.275 217.252L396.037 216.929C396.341 218.515 396.843 219.671 397.544 220.395C398.264 221.1 399.42 221.453 401.011 221.453C404.043 221.453 405.559 220.102 405.559 217.399C405.559 216.675 405.435 216.058 405.189 215.549C404.962 215.02 404.583 214.579 404.052 214.227C403.541 213.875 403.067 213.62 402.631 213.463C402.214 213.287 401.617 213.072 400.841 212.817C400.215 212.621 399.742 212.465 399.42 212.347C399.116 212.23 398.69 212.053 398.141 211.818C397.591 211.583 397.174 211.329 396.89 211.055C396.606 210.781 396.303 210.448 395.98 210.056C395.677 209.664 395.45 209.195 395.298 208.646C395.166 208.098 395.099 207.481 395.099 206.796C395.099 205.053 395.639 203.682 396.719 202.684C397.818 201.665 399.353 201.156 401.324 201.156C403.162 201.156 404.564 201.616 405.53 202.537C406.515 203.438 407.122 204.945 407.349 207.06L405.615 207.295C405.483 206.551 405.36 205.983 405.246 205.591C405.132 205.18 404.924 204.74 404.621 204.27C404.336 203.78 403.92 203.438 403.37 203.242C402.84 203.026 402.167 202.919 401.352 202.919C398.415 202.919 396.947 204.182 396.947 206.708C396.947 207.256 397.042 207.755 397.231 208.206C397.421 208.656 397.638 209.018 397.885 209.292C398.131 209.547 398.491 209.811 398.965 210.085C399.457 210.34 399.874 210.526 400.215 210.644C400.556 210.761 401.04 210.928 401.665 211.143C402.423 211.378 402.991 211.574 403.37 211.73C403.768 211.867 404.27 212.112 404.876 212.465C405.502 212.798 405.966 213.15 406.269 213.522C406.572 213.894 406.847 214.393 407.093 215.02C407.34 215.647 407.463 216.352 407.463 217.135C407.463 219.132 406.847 220.64 405.615 221.658C404.403 222.657 402.849 223.156 400.954 223.156Z" fill="#F6F6F6" style="fill:#F6F6F6;fill:color(display-p3 0.9647 0.9647 0.9647);fill-opacity:1;"/>
<path d="M432.25 222.804H430.346V203.242H423.78V201.538H438.787V203.242H432.25V222.804Z" fill="#F6F6F6" style="fill:#F6F6F6;fill:color(display-p3 0.9647 0.9647 0.9647);fill-opacity:1;"/>
<path d="M469.486 222.804H467.382L465.222 215.96H457.406L455.218 222.804H453.342L460.22 201.538H462.494L469.486 222.804ZM461.329 203.653L457.946 214.227H464.682L461.357 203.653H461.329Z" fill="#F6F6F6" style="fill:#F6F6F6;fill:color(display-p3 0.9647 0.9647 0.9647);fill-opacity:1;"/>
<path d="M487.309 222.804H485.434V201.538H491.743C492.956 201.538 493.998 201.714 494.87 202.067C495.741 202.419 496.404 202.909 496.859 203.535C497.314 204.142 497.636 204.779 497.825 205.445C498.015 206.11 498.11 206.825 498.11 207.589C498.11 210.976 496.764 213.091 494.074 213.933L498.792 222.804H496.717L492.141 214.374H487.309V222.804ZM487.309 203.271V212.7H490.692C492.435 212.7 493.771 212.367 494.699 211.701C495.646 211.016 496.12 209.704 496.12 207.765C496.12 205.964 495.646 204.769 494.699 204.182C493.771 203.575 492.179 203.271 489.924 203.271H487.309Z" fill="#F6F6F6" style="fill:#F6F6F6;fill:color(display-p3 0.9647 0.9647 0.9647);fill-opacity:1;"/>
<path d="M522.641 222.804H520.737V203.242H514.171V201.538H529.178V203.242H522.641V222.804Z" fill="#F6F6F6" style="fill:#F6F6F6;fill:color(display-p3 0.9647 0.9647 0.9647);fill-opacity:1;"/>
<path d="M577.501 222.804H575.597V201.538H577.501V210.937H586.369V201.538H588.273V222.804H586.369V212.641H577.501V222.804Z" fill="#F6F6F6" style="fill:#F6F6F6;fill:color(display-p3 0.9647 0.9647 0.9647);fill-opacity:1;"/>
<path d="M620.137 222.804H618.034L615.874 215.96H608.058L605.87 222.804H603.994L610.872 201.538H613.145L620.137 222.804ZM611.98 203.653L608.598 214.227H615.334L612.009 203.653H611.98Z" fill="#F6F6F6" style="fill:#F6F6F6;fill:color(display-p3 0.9647 0.9647 0.9647);fill-opacity:1;"/>
<path d="M642.508 223.156C641.372 223.156 640.386 222.96 639.553 222.569C638.719 222.158 638.056 221.639 637.563 221.012C637.07 220.366 636.673 219.553 636.369 218.574C636.085 217.595 635.886 216.616 635.773 215.637C635.678 214.638 635.63 213.512 635.63 212.259C635.63 208.578 636.189 205.807 637.307 203.947C638.444 202.086 640.339 201.156 642.992 201.156C644.83 201.156 646.298 201.734 647.397 202.889C648.515 204.025 649.169 205.758 649.358 208.088L647.596 208.294C647.35 206.492 646.847 205.141 646.09 204.24C645.351 203.34 644.242 202.889 642.764 202.889C640.945 202.889 639.628 203.653 638.814 205.18C638.018 206.708 637.62 209.067 637.62 212.259C637.62 215.568 637.989 217.928 638.728 219.338C639.486 220.748 640.813 221.453 642.707 221.453C643.882 221.453 644.877 221.061 645.692 220.278C646.525 219.494 647.103 218.3 647.425 216.694L649.102 217.076C648.78 219.191 648.022 220.738 646.829 221.717C645.635 222.676 644.195 223.156 642.508 223.156Z" fill="#F6F6F6" style="fill:#F6F6F6;fill:color(display-p3 0.9647 0.9647 0.9647);fill-opacity:1;"/>
<path d="M680 222.804H677.755L670.933 212.288L668.546 215.343V222.804H666.642V201.538H668.546V212.905L677.158 201.538H679.403L672.156 210.761L680 222.804Z" fill="#F6F6F6" style="fill:#F6F6F6;fill:color(display-p3 0.9647 0.9647 0.9647);fill-opacity:1;"/>
</g>
<defs>
<clipPath id="clip0_371_5211">
<rect width="1080" height="1440" fill="white" style="fill:white;fill-opacity:1;"/>
</clipPath>
<clipPath id="clip1_371_5211">
<rect width="1831" height="1831" fill="white" style="fill:white;fill-opacity:1;" transform="translate(-421 -238)"/>
</clipPath>
</defs>
</svg>
